<svg width="164" height="164" viewBox="0 0 164 164" fill="none" xmlns="http://www.w3.org/2000/svg">
<circle cx="82" cy="82" r="82" transform="matrix(1 0 0 -1 0 164)" fill="#095353"/>
<path d="M101.034 72.2715C104.603 72.8949 107.332 76.0212 107.332 79.7618V87.3515H89.7672C90.1558 84.2614 91.3213 81.2707 93.3543 78.8673C93.8964 78.2257 94.4927 77.6294 95.1433 77.0964L101.034 72.2715Z" fill="white"/>
<path d="M73.9821 65.3214V61.5988C73.9821 57.4244 77.4065 54 81.5809 54H89.1797V63.0444C88.3032 62.674 87.3455 62.4661 86.3335 62.4661C82.4754 62.4661 79.3311 65.4659 79.0872 69.2608C77.4698 67.8513 75.7621 66.5321 73.9821 65.3214Z" fill="white"/>
<path d="M81.5809 105.512H73.9822V87.3506H63.4198C59.2455 87.3506 55.8301 83.9352 55.8301 79.7609V72.1621H70.6933C72.5817 74.6107 73.9913 77.4297 74.958 80.7999C76.5301 86.2935 76.6928 92.1665 78.7981 97.5064C80.0359 100.624 81.8159 103.117 83.9844 105.123C83.2344 105.376 82.4212 105.512 81.5809 105.512Z" fill="white"/>
<path d="M64.7204 63.2598C89.9292 79.65 67.1329 102.058 100.266 109.792C84.2549 102.275 83.5411 83.1105 93.4439 75.0148L83.7489 78.0417C83.7489 78.0417 76.8278 68.4822 64.7204 63.2598Z" fill="white"/>
<path d="M86.3344 65.1582C83.8135 65.1582 81.7625 67.2002 81.7625 69.7301C81.7625 72.251 83.8135 74.2929 86.3344 74.2929C88.8553 74.2929 90.9062 72.2509 90.9062 69.7301C90.9062 67.2002 88.8552 65.1582 86.3344 65.1582Z" fill="white"/>
<path d="M75.7354 136.727C76.9319 136.865 77.9246 137.225 78.7135 137.804C79.4902 138.393 80.0462 139.157 80.3817 140.094C80.7062 141.03 80.7994 142.088 80.6612 143.27C80.5205 144.473 80.1782 145.498 79.6343 146.344C79.0793 147.189 78.356 147.809 77.4642 148.205C76.5711 148.611 75.5373 148.746 74.3628 148.61C73.4737 148.506 72.6958 148.261 72.0291 147.873C71.3611 147.496 70.8476 146.987 70.4885 146.347C70.1173 145.716 69.9266 144.967 69.9166 144.101L72.1888 144.365C72.2688 144.918 72.5105 145.373 72.9137 145.73C73.3047 146.097 73.857 146.322 74.5705 146.405C75.3608 146.497 76.0131 146.389 76.5273 146.083C77.0292 145.787 77.4178 145.366 77.6928 144.821C77.9666 144.288 78.14 143.709 78.2129 143.085C78.2883 142.44 78.2502 141.815 78.0985 141.209C77.9467 140.604 77.6559 140.093 77.2262 139.677C76.7854 139.26 76.1753 139.006 75.396 138.916C74.9349 138.862 74.5156 138.88 74.1381 138.969C73.7592 139.07 73.4392 139.238 73.178 139.473C72.9058 139.708 72.7047 140.001 72.5746 140.351L70.2201 140.078C70.4174 139.247 70.7866 138.564 71.3276 138.028C71.8687 137.492 72.5194 137.113 73.2797 136.89C74.0387 136.679 74.8572 136.625 75.7354 136.727Z" fill="white"/>
<path d="M64.2561 134.168C65.0918 134.455 65.7653 134.874 66.2766 135.422C66.7844 135.982 67.1024 136.633 67.2307 137.376C67.3554 138.13 67.2681 138.939 66.9687 139.803C66.6621 140.688 66.2265 141.389 65.6618 141.905C65.083 142.428 64.4207 142.754 63.6749 142.882C62.9291 143.01 62.1489 142.933 61.3341 142.653C60.4984 142.366 59.8337 141.939 59.3401 141.373C58.8464 140.807 58.5372 140.147 58.4125 139.393C58.2878 138.639 58.3787 137.82 58.6853 136.935C58.9847 136.071 59.4167 135.381 59.9814 134.864C60.5321 134.354 61.1733 134.039 61.905 133.918C62.6263 133.793 63.41 133.877 64.2561 134.168ZM63.595 136.178C63.1145 136.012 62.6919 135.983 62.3273 136.091C61.9626 136.198 61.66 136.397 61.4192 136.687C61.1644 136.984 60.972 137.32 60.8422 137.695C60.7123 138.069 60.6558 138.452 60.6726 138.842C60.6789 139.229 60.7904 139.582 61.0072 139.901C61.2099 140.227 61.5567 140.475 62.0477 140.644C62.5177 140.806 62.9387 140.822 63.3105 140.694C63.6787 140.576 63.9903 140.369 64.2451 140.072C64.4895 139.771 64.6766 139.434 64.8064 139.059C64.9399 138.674 65.0016 138.293 64.9917 137.917C64.9713 137.537 64.8509 137.192 64.6306 136.884C64.4102 136.575 64.065 136.339 63.595 136.178Z" fill="white"/>
<path d="M57.5316 131.713L53.1049 139.219L51.2328 138.123L51.6451 137.195C51.2844 137.329 50.9286 137.389 50.5778 137.375C50.2119 137.365 49.874 137.308 49.5642 137.203C49.2447 137.092 48.9707 136.97 48.7421 136.836C48.018 136.412 47.5483 135.926 47.3329 135.378C47.1081 134.825 47.0667 134.232 47.2088 133.6C47.3357 132.972 47.5896 132.335 47.9704 131.689L50.4147 127.544L52.4155 128.716L50.1223 132.605C49.9879 132.832 49.8726 133.072 49.7763 133.322C49.68 133.572 49.6283 133.823 49.6211 134.074C49.6043 134.32 49.6529 134.553 49.7667 134.773C49.8805 134.993 50.0851 135.189 50.3805 135.362C50.7615 135.585 51.1367 135.677 51.5059 135.638C51.8752 135.599 52.2169 135.454 52.5312 135.204C52.8454 134.954 53.1173 134.634 53.3469 134.244L55.5308 130.541L57.5316 131.713Z" fill="white"/>
<path d="M45.1386 123.321C45.6992 123.786 46.1141 124.245 46.3832 124.697C46.6439 125.143 46.7376 125.607 46.6643 126.091C46.5755 126.576 46.2943 127.103 45.8207 127.67L43.4243 130.54L44.4182 131.364L43.0927 132.952L42.0989 132.127L40.6038 133.918L38.82 132.438L40.3151 130.648L38.8498 129.432L40.1752 127.845L41.6405 129.06L43.8248 126.444C44.0581 126.165 44.1909 125.902 44.2233 125.657C44.2556 125.412 44.0935 125.141 43.7367 124.845L43.1761 124.38L44.5015 122.793L45.1386 123.321Z" fill="white"/>
<path d="M40.8135 118.945C41.0759 119.244 41.2936 119.566 41.4666 119.913C41.624 120.259 41.7144 120.612 41.7378 120.973C41.7611 121.333 41.7028 121.684 41.5629 122.026C41.423 122.369 41.1869 122.685 40.8546 122.975C40.406 123.368 39.9686 123.589 39.5425 123.639C39.108 123.697 38.6853 123.634 38.2744 123.451C37.8636 123.268 37.4583 123 37.0586 122.646C36.6517 122.284 36.2587 121.888 35.8797 121.457L35.0489 120.513C34.808 120.724 34.6363 120.955 34.5337 121.206C34.4155 121.455 34.3831 121.711 34.4364 121.972C34.4815 122.24 34.6242 122.511 34.8647 122.784C35.0178 122.958 35.1921 123.106 35.3877 123.228C35.5677 123.349 35.7466 123.427 35.9244 123.462C36.1023 123.497 36.2722 123.473 36.4343 123.39L37.9866 125.153C37.5773 125.423 37.1638 125.58 36.7459 125.623C36.3198 125.673 35.9033 125.634 35.4967 125.506C35.09 125.378 34.7072 125.186 34.3482 124.928C33.9736 124.67 33.6333 124.366 33.3272 124.019C32.4891 123.067 32.1438 122.123 32.2912 121.188C32.4304 120.261 32.9984 119.361 33.9953 118.49L37.5342 115.395L38.9116 116.96L38.0861 117.726C38.5591 117.679 38.9786 117.729 39.3448 117.878C39.7036 118.018 40.0053 118.194 40.2499 118.405C40.4945 118.616 40.6824 118.796 40.8135 118.945ZM39.0805 119.757C38.8255 119.468 38.5341 119.254 38.2065 119.115C37.8788 118.977 37.5533 118.924 37.2301 118.958C36.9068 118.991 36.6206 119.117 36.3713 119.335L36.2093 119.477L37.2588 120.669C37.4118 120.843 37.5695 121.005 37.7319 121.156C37.887 121.299 38.0478 121.415 38.2142 121.504C38.3651 121.592 38.5231 121.629 38.6884 121.617C38.8537 121.604 39.0194 121.525 39.1856 121.38C39.3517 121.235 39.4565 121.07 39.4999 120.885C39.5278 120.7 39.5051 120.507 39.4321 120.307C39.3508 120.115 39.2336 119.931 39.0805 119.757Z" fill="white"/>
<path d="M33.8792 109.643C34.3353 110.41 34.5698 111.162 34.5826 111.897C34.5898 112.622 34.3927 113.295 33.9911 113.916C33.58 114.543 32.9846 115.086 32.2049 115.547C31.4157 116.013 30.6438 116.27 29.8892 116.318C29.1251 116.373 28.4181 116.22 27.7682 115.861C27.1126 115.493 26.5511 114.916 26.0837 114.129C25.7233 113.523 25.5117 112.918 25.4488 112.315C25.386 111.712 25.4745 111.148 25.7144 110.622C25.9487 110.087 26.3513 109.619 26.9222 109.218L28.0794 111.165C27.7973 111.447 27.6534 111.756 27.6477 112.092C27.6363 112.419 27.7292 112.748 27.9263 113.08C28.1797 113.506 28.487 113.786 28.8483 113.918C29.2039 114.041 29.5771 114.064 29.968 113.987C30.3532 113.9 30.7075 113.762 31.0308 113.571C31.3826 113.363 31.6816 113.11 31.9278 112.811C32.1645 112.518 32.3095 112.189 32.3627 111.824C32.4009 111.456 32.2989 111.069 32.0567 110.661C31.854 110.32 31.6005 110.066 31.2963 109.9C30.9826 109.74 30.6369 109.72 30.259 109.84L29.0764 107.85C29.7226 107.533 30.3459 107.414 30.9463 107.495C31.5466 107.576 32.1006 107.806 32.6082 108.185C33.1008 108.56 33.5244 109.046 33.8792 109.643Z" fill="white"/>
<path d="M29.2717 100.304C29.54 100.98 29.6834 101.581 29.7019 102.107C29.7163 102.622 29.575 103.075 29.278 103.464C28.9667 103.848 28.4667 104.175 27.7782 104.446L24.2946 105.82L24.7702 107.018L22.8434 107.778L22.3678 106.58L20.1943 107.436L19.3407 105.286L21.5141 104.429L20.8129 102.662L22.7397 101.902L23.4409 103.669L26.6163 102.417C26.9554 102.283 27.1982 102.117 27.3447 101.917C27.4912 101.717 27.479 101.402 27.3083 100.972L27.04 100.296L28.9668 99.5361L29.2717 100.304Z" fill="white"/>
<path d="M26.2618 86.507C26.3711 87.6473 26.2465 88.6052 25.8879 89.3807C25.5283 90.1452 24.9637 90.7411 24.1943 91.1685C23.4238 91.5849 22.4776 91.8465 21.3555 91.9534L14.9199 92.5664L14.6944 90.2146L21.2455 89.5905C21.7735 89.5402 22.2667 89.4158 22.725 89.2173C23.1713 89.0088 23.525 88.704 23.7863 88.3029C24.0355 87.8919 24.1286 87.3575 24.0655 86.6996C24.0014 86.0308 23.809 85.5291 23.4883 85.1945C23.1565 84.861 22.7473 84.6455 22.2606 84.548C21.7739 84.4505 21.272 84.4264 20.755 84.4757L14.2039 85.0997L13.9784 82.7478L20.414 82.1348C21.5251 82.029 22.5039 82.1072 23.3506 82.3696C24.1863 82.633 24.8533 83.1061 25.3517 83.7889C25.8502 84.4716 26.1535 85.3777 26.2618 86.507Z" fill="white"/>
<path d="M26.2745 75.0345C26.2302 75.4396 26.1408 75.8509 26.0062 76.2684C25.8716 76.6859 25.6802 77.064 25.432 77.4026C25.1728 77.7401 24.8482 78.0151 24.4581 78.2276C24.057 78.4389 23.5777 78.553 23.02 78.57L23.2749 76.2378C23.4798 76.1935 23.6627 76.0971 23.8234 75.9483C23.9854 75.7886 24.1113 75.6029 24.2012 75.391C24.2922 75.1683 24.3503 74.9419 24.3754 74.7119C24.3922 74.5587 24.398 74.4042 24.3927 74.2485C24.3875 74.0928 24.3591 73.9457 24.3076 73.8071C24.256 73.6686 24.185 73.5556 24.0945 73.4682C23.993 73.3797 23.8599 73.3264 23.6951 73.3085C23.5193 73.2895 23.376 73.3293 23.2652 73.4281C23.1543 73.5268 23.0607 73.6718 22.9842 73.8629C22.8967 74.0528 22.8118 74.2707 22.7293 74.5166C22.5814 74.9548 22.4189 75.4247 22.2418 75.9262C22.0647 76.4277 21.8404 76.852 21.569 77.1993C21.4424 77.3407 21.3066 77.4644 21.1616 77.5705C21.0166 77.6767 20.8575 77.7591 20.6844 77.8179C20.5112 77.8766 20.3343 77.9184 20.1538 77.9431C19.9622 77.9666 19.7621 77.967 19.5534 77.9444C19.081 77.8931 18.6907 77.751 18.3827 77.5181C18.0649 77.2731 17.8201 76.9695 17.6485 76.6074C17.4769 76.2453 17.3698 75.8515 17.3274 75.4259C17.274 74.999 17.2713 74.5666 17.3191 74.1287C17.3837 73.5374 17.5425 73.0006 17.7953 72.5184C18.0371 72.035 18.3792 71.6512 18.8216 71.3668C19.253 71.0812 19.7914 70.9347 20.437 70.9273L20.1965 73.1281C19.95 73.1457 19.7416 73.2726 19.5712 73.509C19.3899 73.7441 19.2789 74.0478 19.2382 74.4201C19.2238 74.5515 19.2193 74.695 19.2245 74.8507C19.2309 74.9954 19.255 75.131 19.2968 75.2574C19.3385 75.3838 19.4047 75.4907 19.4952 75.5781C19.5747 75.6643 19.6913 75.7157 19.8451 75.7324C19.966 75.7456 20.0794 75.7246 20.1855 75.6697C20.2927 75.6038 20.3865 75.5087 20.4668 75.3845C20.5482 75.2493 20.6272 75.0861 20.7037 74.895C20.8323 74.5322 20.9554 74.1689 21.0729 73.805C21.1807 73.4289 21.2893 73.0972 21.3985 72.8099C21.5149 72.4569 21.6771 72.1422 21.8852 71.8656C22.0945 71.5781 22.3631 71.358 22.6911 71.2052C23.0092 71.0403 23.41 70.9841 23.8934 71.0366C24.4427 71.0963 24.8866 71.2553 25.2252 71.5136C25.5529 71.7708 25.8007 72.0968 25.9687 72.4918C26.138 72.8758 26.2426 73.2915 26.2826 73.739C26.3239 74.1756 26.3211 74.6074 26.2745 75.0345Z" fill="white"/>
<path d="M23.1364 59.2436L21.4907 60.2975L20.7622 58.8178L19.8731 60.2126L18.3514 58.997L19.5398 57.8399L17.9357 57.4418L18.6392 55.605L20.1015 56.3735L19.9831 54.7369L21.9363 54.8258L21.6667 56.4562L23.1933 55.8522L23.7157 57.731L22.0846 57.9593L23.1364 59.2436Z" fill="white"/>
<path d="M37.5007 46.8868C36.7711 47.8421 35.9552 48.5104 35.0529 48.8917C34.1485 49.2576 33.2063 49.3457 32.2263 49.1559C31.253 48.9574 30.2915 48.4979 29.3418 47.7774C28.3745 47.0436 27.6642 46.2279 27.2109 45.3303C26.7642 44.4239 26.5974 43.4876 26.7104 42.5213C26.8145 41.5484 27.2247 40.593 27.9409 39.6552C28.4831 38.9453 29.0914 38.4033 29.766 38.0292C30.4318 37.6484 31.1327 37.4672 31.8685 37.4856C32.6023 37.4886 33.3456 37.7065 34.0985 38.1392L32.713 39.9534C32.1951 39.7404 31.6791 39.7158 31.1652 39.8796C30.6491 40.028 30.1736 40.387 29.7385 40.9567C29.2566 41.5877 29.0168 42.2017 29.0192 42.7987C29.0195 43.3803 29.1847 43.9278 29.5148 44.4412C29.8361 44.9479 30.2473 45.3914 30.7486 45.7717C31.2674 46.1653 31.8267 46.4512 32.4267 46.6295C33.0266 46.8078 33.6155 46.8185 34.1935 46.6618C34.7782 46.4963 35.3082 46.1025 35.7834 45.4802C36.0645 45.1121 36.2628 44.7434 36.3781 44.3741C36.4847 43.9982 36.5027 43.6381 36.4322 43.294C36.3684 42.9411 36.2182 42.6195 35.9816 42.3292L37.4173 40.4493C38.0342 41.0418 38.4361 41.7067 38.6231 42.4438C38.8102 43.1809 38.8059 43.932 38.6104 44.6972C38.4061 45.4558 38.0362 46.1857 37.5007 46.8868Z" fill="white"/>
<path d="M45.5579 38.3324C44.885 38.904 44.1816 39.27 43.4476 39.4304C42.7064 39.5825 41.9819 39.5249 41.2743 39.2577C40.5594 38.9821 39.9045 38.4965 39.3095 37.8007C38.7002 37.0882 38.3157 36.3584 38.156 35.6113C37.9975 34.8486 38.0523 34.1147 38.3203 33.4093C38.5884 32.704 39.0505 32.0727 39.7065 31.5155C40.3793 30.9439 41.0857 30.5898 41.8257 30.4533C42.5656 30.3168 43.293 30.3863 44.0079 30.6619C44.7227 30.9374 45.3848 31.4315 45.9941 32.144C46.5891 32.8397 46.9664 33.5612 47.1262 34.3083C47.2871 35.0399 47.2342 35.7506 46.9674 36.4404C46.709 37.123 46.2391 37.7537 45.5579 38.3324ZM44.1563 36.7444C44.5432 36.4157 44.7827 36.0675 44.8748 35.6998C44.9669 35.3321 44.9488 34.9713 44.8203 34.6173C44.6931 34.2478 44.5004 33.9121 44.2424 33.6104C43.9843 33.3086 43.6823 33.0658 43.3364 32.8821C42.9989 32.6912 42.6372 32.6078 42.2511 32.6318C41.8663 32.6403 41.4763 32.8124 41.081 33.1482C40.7025 33.4697 40.4744 33.8227 40.3966 34.2072C40.3116 34.5833 40.3328 34.9561 40.46 35.3256C40.5956 35.6879 40.7925 36.02 41.0505 36.3218C41.3158 36.6319 41.6135 36.8783 41.9439 37.0608C42.2826 37.2361 42.6414 37.3076 43.0203 37.2752C43.3991 37.2428 43.7778 37.0659 44.1563 36.7444Z" fill="white"/>
<path d="M51.0878 33.8025L46.8363 26.1963L48.7333 25.143L49.3268 25.9671C49.3939 25.5894 49.5224 25.2533 49.712 24.9589C49.9059 24.6495 50.1267 24.3882 50.3744 24.175C50.6318 23.9565 50.8763 23.7829 51.108 23.6543C51.8417 23.2469 52.5 23.0894 53.083 23.1818C53.6756 23.2688 54.2094 23.5335 54.6843 23.9758C55.1635 24.4032 55.586 24.944 55.9517 25.5983L58.2993 29.7983L56.272 30.924L54.0696 26.9838C53.9405 26.7528 53.7921 26.5326 53.6244 26.3231C53.4568 26.1137 53.266 25.9422 53.0523 25.8087C52.8482 25.6699 52.6221 25.5936 52.3742 25.58C52.1262 25.5664 51.8526 25.6427 51.5533 25.8089C51.1671 26.0233 50.8975 26.2991 50.7444 26.6362C50.5913 26.9734 50.5434 27.3404 50.6008 27.7372C50.6582 28.1341 50.7971 28.5297 51.0176 28.9242L53.1151 32.6768L51.0878 33.8025Z" fill="white"/>
<path d="M64.6306 27.4082C63.9441 27.6536 63.3369 27.7771 62.8091 27.7785C62.2917 27.7762 61.8425 27.6209 61.4615 27.3124C61.0871 26.9899 60.775 26.4813 60.525 25.7866L59.2603 22.272L58.0432 22.707L57.3437 20.7631L58.5608 20.328L57.7718 18.1353L59.9562 17.3544L60.7453 19.5472L62.5397 18.9058L63.2392 20.8497L61.4448 21.4911L62.5976 24.6948C62.7207 25.0369 62.8801 25.2842 63.0758 25.4365C63.2715 25.5889 63.5878 25.587 64.0247 25.4308L64.7113 25.1854L65.4108 27.1294L64.6306 27.4082Z" fill="white"/>
<path d="M70.6346 25.9158C70.2436 25.9889 69.8543 26.0112 69.4666 25.9828C69.0878 25.9415 68.7369 25.839 68.4137 25.6752C68.0906 25.5115 67.817 25.2824 67.593 24.9881C67.369 24.6938 67.2162 24.3301 67.1348 23.8971C67.0248 23.3125 67.0567 22.8247 67.2305 22.4336C67.4023 22.0317 67.6718 21.7012 68.0391 21.442C68.4063 21.1829 68.8445 20.9722 69.3537 20.8098C69.8737 20.6454 70.4161 20.5104 70.9809 20.4049L72.2192 20.1735C72.1601 19.8595 72.0484 19.5946 71.8841 19.3788C71.7287 19.1501 71.5247 18.9921 71.2722 18.9048C71.0176 18.8067 70.7111 18.7911 70.3526 18.8581C70.1245 18.9007 69.908 18.9748 69.703 19.0804C69.5068 19.1731 69.3483 19.2867 69.2274 19.4214C69.1066 19.556 69.0407 19.714 69.0299 19.8953L66.7163 20.3277C66.6919 19.8392 66.7676 19.4048 66.9434 19.0245C67.1172 18.6335 67.3629 18.2962 67.6807 18.0127C67.9984 17.7292 68.3599 17.4991 68.7651 17.3226C69.1793 17.1331 69.6144 16.9958 70.0706 16.9105C71.3197 16.6771 72.3102 16.8618 73.042 17.4647C73.7717 18.0567 74.2588 19.0023 74.5032 20.3014L75.3707 24.9131L73.3178 25.2967L73.0775 24.1986C72.8773 24.6282 72.6196 24.9621 72.3046 25.2003C72.0005 25.4364 71.695 25.6056 71.3882 25.7077C71.0813 25.8099 70.8301 25.8793 70.6346 25.9158ZM70.8169 24.0159C71.1971 23.9448 71.5304 23.8041 71.8169 23.5937C72.1034 23.3833 72.3145 23.1309 72.4503 22.8366C72.586 22.5423 72.6234 22.2327 72.5623 21.9079L72.5226 21.6968L70.9585 21.9891C70.7304 22.0317 70.5098 22.0842 70.2966 22.1464C70.0943 22.2066 69.9124 22.2855 69.7508 22.3829C69.598 22.4675 69.485 22.5838 69.4117 22.732C69.3384 22.8802 69.3221 23.0625 69.3628 23.279C69.4035 23.4956 69.4925 23.6694 69.6296 23.8007C69.7755 23.9191 69.9534 23.9979 70.1632 24.0372C70.3709 24.0656 70.5888 24.0585 70.8169 24.0159Z" fill="white"/>
<path d="M82.2243 24.7132C81.3292 24.7133 80.5611 24.5315 79.9201 24.1681C79.2902 23.8046 78.8095 23.2925 78.4779 22.6316C78.1464 21.9598 77.9806 21.1722 77.9806 20.2691C77.9806 19.3549 78.1518 18.5618 78.4944 17.89C78.837 17.2071 79.3287 16.6784 79.9697 16.3039C80.6217 15.9294 81.4063 15.7421 82.3235 15.7421C83.0308 15.7421 83.6607 15.8687 84.2133 16.122C84.7658 16.3753 85.2079 16.7388 85.5394 17.2124C85.882 17.686 86.081 18.2698 86.1362 18.9637L83.8652 18.9637C83.7658 18.5782 83.5724 18.2974 83.285 18.1211C83.0088 17.9449 82.6772 17.8568 82.2904 17.8568C81.7931 17.8568 81.3953 17.978 81.0969 18.2203C80.8096 18.4627 80.5996 18.7711 80.467 19.1455C80.3455 19.52 80.2847 19.8945 80.2847 20.269C80.2847 20.6765 80.3511 21.062 80.4837 21.4255C80.6163 21.778 80.8263 22.0698 81.1136 22.3011C81.412 22.5214 81.7988 22.6315 82.274 22.6315C82.6718 22.6315 83.0199 22.5434 83.3183 22.3672C83.6167 22.1799 83.8101 21.8935 83.8985 21.508L86.2192 21.508C86.1639 22.2239 85.9485 22.8187 85.5727 23.2923C85.197 23.7659 84.7163 24.1239 84.1306 24.3662C83.556 24.5976 82.9205 24.7132 82.2243 24.7132Z" fill="white"/>
<path d="M92.6665 25.5127C91.9461 25.3992 91.3541 25.2167 90.8905 24.9652C90.4378 24.7155 90.1188 24.3641 89.9333 23.9112C89.7604 23.449 89.7318 22.8535 89.8474 22.1246L90.4324 18.4366L89.1553 18.2353L89.4788 16.1955L90.7559 16.3967L91.1209 14.0957L93.4131 14.4569L93.0482 16.7579L94.9311 17.0545L94.6076 19.0944L92.7246 18.7977L92.1914 22.1594C92.1345 22.5184 92.1551 22.8116 92.2533 23.0389C92.3515 23.2663 92.6299 23.4161 93.0883 23.4883L93.8087 23.6018L93.4852 25.6416L92.6665 25.5127Z" fill="white"/>
<path d="M106.132 29.9511C105.092 29.4644 104.328 28.8698 103.841 28.1673C103.364 27.4696 103.136 26.6819 103.159 25.8043C103.192 24.9313 103.448 23.9864 103.927 22.9694L106.674 17.1367L108.82 18.1407L106.023 24.078C105.798 24.5566 105.654 25.043 105.592 25.5373C105.545 26.0263 105.628 26.4849 105.841 26.9132C106.069 27.3363 106.484 27.6882 107.084 27.969C107.694 28.2545 108.225 28.3449 108.678 28.2401C109.134 28.1254 109.529 27.8841 109.861 27.5162C110.193 27.1483 110.469 26.73 110.69 26.2614L113.486 20.3241L115.632 21.328L112.885 27.1607C112.411 28.1677 111.845 28.9676 111.187 29.5603C110.534 30.143 109.786 30.4744 108.943 30.5543C108.099 30.6343 107.162 30.4332 106.132 29.9511Z" fill="white"/>
<path d="M115.937 35.7514C115.61 35.507 115.3 35.2207 115.008 34.8926C114.716 34.5645 114.487 34.2078 114.321 33.8223C114.162 33.4281 114.09 33.0096 114.105 32.5668C114.127 32.1152 114.273 31.6459 114.543 31.159L116.426 32.5658C116.36 32.7641 116.35 32.9701 116.397 33.1838C116.452 33.404 116.548 33.6066 116.685 33.7916C116.831 33.9832 116.997 34.1484 117.183 34.2871C117.307 34.3795 117.437 34.4632 117.574 34.538C117.711 34.6129 117.853 34.6635 117.999 34.6899C118.144 34.7162 118.278 34.7129 118.4 34.6798C118.528 34.6379 118.642 34.5508 118.741 34.4186C118.847 34.2776 118.886 34.1344 118.857 33.989C118.828 33.8436 118.751 33.6895 118.625 33.5265C118.505 33.3547 118.36 33.1708 118.19 32.9749C117.887 32.6247 117.564 32.246 117.222 31.8386C116.879 31.4312 116.627 31.0227 116.465 30.613C116.408 30.4324 116.37 30.2529 116.352 30.0744C116.334 29.896 116.344 29.7176 116.382 29.5391C116.419 29.3607 116.473 29.1877 116.544 29.0203C116.621 28.844 116.723 28.6722 116.849 28.5047C117.134 28.1257 117.455 27.8634 117.813 27.7179C118.187 27.5701 118.574 27.5149 118.974 27.5522C119.374 27.5895 119.768 27.6984 120.157 27.8788C120.553 28.0505 120.928 28.2684 121.281 28.5326C121.759 28.8893 122.142 29.2989 122.429 29.7614C122.723 30.215 122.88 30.704 122.9 31.2283C122.927 31.7437 122.779 32.2802 122.457 32.8377L120.679 31.51C120.79 31.2897 120.786 31.0463 120.669 30.7798C120.558 30.5045 120.353 30.2545 120.052 30.03C119.946 29.9507 119.824 29.8737 119.687 29.7988C119.559 29.7306 119.43 29.6822 119.299 29.6536C119.169 29.625 119.043 29.6273 118.921 29.6604C118.807 29.6846 118.703 29.7585 118.61 29.8819C118.537 29.9788 118.497 30.0868 118.491 30.2057C118.493 30.3313 118.527 30.4602 118.594 30.5923C118.669 30.731 118.769 30.8819 118.895 31.0449C119.143 31.3399 119.394 31.6306 119.648 31.9169C119.918 32.201 120.149 32.463 120.342 32.703C120.587 32.9827 120.776 33.2822 120.909 33.6016C121.051 33.9275 121.104 34.2701 121.068 34.6291C121.049 34.986 120.893 35.3584 120.601 35.7462C120.27 36.1869 119.907 36.4866 119.511 36.6454C119.122 36.7953 118.714 36.8418 118.288 36.7847C117.87 36.7342 117.458 36.6121 117.051 36.4184C116.653 36.2313 116.282 36.009 115.937 35.7514Z" fill="white"/>
<path d="M131.182 41.0991L131.106 39.1509L132.755 39.2762L132 37.8048L133.824 37.1149L134.221 38.7227L135.379 37.5472L136.61 39.0835L135.203 39.9492L136.678 40.6781L135.61 42.3104L134.338 41.2515L134.085 42.869L132.196 42.3643L132.826 40.8476L131.182 41.0991Z" fill="white"/>
<path d="M134.588 59.7074C134.132 58.5961 133.968 57.5562 134.097 56.5878C134.239 55.6254 134.641 54.7715 135.302 54.0262C135.968 53.291 136.853 52.6984 137.958 52.2483C139.083 51.7899 140.149 51.5938 141.155 51.6599C142.165 51.7362 143.059 52.0681 143.837 52.6554C144.626 53.2386 145.244 54.0756 145.691 55.1665C146.03 55.9924 146.19 56.7899 146.171 57.5591C146.162 58.3241 145.963 59.018 145.574 59.6406C145.199 60.2693 144.633 60.7971 143.877 61.2241L143.012 59.1137C143.459 58.7769 143.742 58.3463 143.861 57.8218C143.994 57.3033 143.925 56.7127 143.654 56.05C143.353 55.3159 142.943 54.7985 142.426 54.4976C141.923 54.2027 141.366 54.0668 140.755 54.0897C140.153 54.1085 139.561 54.2367 138.978 54.4742C138.375 54.7201 137.844 55.0554 137.385 55.4802C136.926 55.905 136.618 56.4053 136.461 56.9813C136.307 57.5674 136.379 58.2224 136.675 58.9463C136.851 59.3745 137.069 59.7318 137.33 60.0183C137.601 60.3005 137.903 60.4987 138.236 60.6128C138.574 60.7371 138.928 60.7713 139.299 60.7153L140.196 62.9023C139.371 63.1314 138.592 63.1393 137.86 62.9259C137.128 62.7125 136.48 62.3277 135.918 61.7715C135.366 61.2111 134.922 60.523 134.588 59.7074Z" fill="white"/>
<path d="M137.879 70.9694C137.729 70.1011 137.771 69.3114 138.007 68.6002C138.253 67.8871 138.672 67.2952 139.263 66.8245C139.866 66.3519 140.619 66.0378 141.522 65.8821C142.448 65.7227 143.274 65.7649 144 66.0087C144.74 66.2614 145.345 66.6824 145.817 67.2717C146.29 67.8611 146.599 68.579 146.746 69.4256C146.897 70.2939 146.842 71.0801 146.583 71.7842C146.324 72.4883 145.893 73.0766 145.291 73.5492C144.689 74.0218 143.925 74.3378 142.999 74.4972C142.095 74.6528 141.28 74.6088 140.554 74.365C139.84 74.1302 139.254 73.7227 138.794 73.1423C138.337 72.5729 138.032 71.8486 137.879 70.9694ZM139.964 70.5768C140.051 71.076 140.229 71.4589 140.5 71.7252C140.77 71.9916 141.091 72.1599 141.462 72.2302C141.846 72.3094 142.234 72.3152 142.626 72.2477C143.018 72.1802 143.382 72.0449 143.716 71.8419C144.053 71.6498 144.31 71.3821 144.486 71.0388C144.674 70.7045 144.724 70.2823 144.636 69.7722C144.551 69.2838 144.363 68.9083 144.071 68.6456C143.789 68.3811 143.457 68.2093 143.073 68.1301C142.691 68.0617 142.304 68.0613 141.912 68.1288C141.509 68.1982 141.145 68.328 140.819 68.5183C140.495 68.7194 140.25 68.9906 140.085 69.3321C139.92 69.6735 139.88 70.0884 139.964 70.5768Z" fill="white"/>
<path d="M138.972 78.0848L147.704 78.3144L147.647 80.478L146.633 80.567C146.925 80.8171 147.15 81.0985 147.307 81.4111C147.476 81.7351 147.589 82.0576 147.647 82.3786C147.704 82.7107 147.729 83.0088 147.722 83.2731C147.7 84.1099 147.501 84.7547 147.124 85.2075C146.747 85.6714 146.246 85.9943 145.622 86.1762C145.009 86.3694 144.327 86.4562 143.576 86.4364L138.754 86.3096L138.815 83.9974L143.339 84.1164C143.604 84.1233 143.87 84.1083 144.136 84.0712C144.402 84.0342 144.648 83.958 144.872 83.8427C145.096 83.7384 145.277 83.5834 145.415 83.3777C145.553 83.1719 145.626 82.8984 145.635 82.5571C145.647 82.1167 145.546 81.7449 145.333 81.4418C145.12 81.1387 144.828 80.9107 144.456 80.7577C144.084 80.6047 143.672 80.5222 143.219 80.5103L138.91 80.397L138.972 78.0848Z" fill="white"/>
<path d="M137.603 92.95C137.739 92.236 137.941 91.6521 138.208 91.1983C138.473 90.7554 138.836 90.4487 139.296 90.2785C139.765 90.1211 140.363 90.1116 141.09 90.2501L144.77 90.9508L145.013 89.685L147.048 90.0726L146.805 91.3384L149.101 91.7755L148.666 94.0475L146.37 93.6103L146.012 95.4765L143.977 95.0889L144.335 93.2227L140.98 92.584C140.622 92.5158 140.328 92.527 140.096 92.6175C139.865 92.7081 139.706 92.9805 139.619 93.4349L139.482 94.149L137.447 93.7614L137.603 92.95Z" fill="white"/>
<path d="M135.84 98.862C135.976 98.4893 136.154 98.1438 136.376 97.8255C136.604 97.5213 136.871 97.2722 137.177 97.078C137.483 96.8839 137.82 96.7655 138.188 96.7228C138.556 96.6801 138.948 96.7339 139.363 96.8841C139.924 97.0868 140.33 97.3622 140.579 97.7101C140.839 98.0618 140.988 98.4611 141.025 98.9081C141.062 99.355 141.022 99.8383 140.903 100.358C140.781 100.888 140.622 101.422 140.426 101.96L139.997 103.141C140.298 103.25 140.584 103.288 140.854 103.257C141.13 103.24 141.37 103.145 141.574 102.973C141.788 102.804 141.958 102.549 142.082 102.207C142.161 101.99 142.207 101.766 142.22 101.537C142.24 101.321 142.222 101.127 142.167 100.955C142.112 100.783 142.009 100.646 141.858 100.545L142.66 98.3391C143.095 98.5665 143.432 98.8522 143.671 99.1964C143.921 99.5443 144.087 99.9267 144.171 100.344C144.254 100.76 144.269 101.188 144.216 101.625C144.169 102.077 144.066 102.52 143.908 102.955C143.475 104.146 142.812 104.902 141.919 105.224C141.037 105.549 139.972 105.487 138.725 105.036L134.299 103.437L135.011 101.48L136.082 101.832C135.813 101.441 135.655 101.051 135.61 100.659C135.56 100.278 135.569 99.9299 135.637 99.6146C135.705 99.2993 135.772 99.0484 135.84 98.862ZM137.389 99.9842C137.257 100.347 137.21 100.704 137.246 101.057C137.282 101.41 137.393 101.719 137.578 101.986C137.763 102.252 138.012 102.441 138.324 102.554L138.526 102.627L139.069 101.136C139.148 100.918 139.215 100.702 139.269 100.488C139.32 100.284 139.344 100.087 139.342 99.8991C139.347 99.725 139.304 99.5688 139.213 99.4306C139.122 99.2923 138.973 99.1857 138.765 99.1106C138.557 99.0355 138.362 99.0234 138.179 99.0744C138.002 99.1395 137.844 99.2521 137.703 99.4122C137.573 99.5761 137.468 99.7667 137.389 99.9842Z" fill="white"/>
<path d="M130.993 109.402C131.449 108.635 131.997 108.068 132.638 107.704C133.273 107.349 133.96 107.198 134.699 107.25C135.448 107.308 136.213 107.567 136.992 108.027C137.781 108.493 138.379 109.044 138.784 109.68C139.199 110.322 139.405 111.013 139.402 111.754C139.393 112.504 139.155 113.272 138.687 114.059C138.327 114.665 137.897 115.141 137.397 115.486C136.896 115.83 136.357 116.024 135.779 116.067C135.196 116.12 134.591 115.993 133.963 115.687L135.121 113.739C135.504 113.85 135.845 113.827 136.144 113.671C136.437 113.524 136.682 113.284 136.879 112.953C137.132 112.526 137.23 112.123 137.173 111.744C137.11 111.374 136.951 111.037 136.695 110.732C136.434 110.437 136.142 110.194 135.818 110.003C135.466 109.796 135.1 109.656 134.718 109.585C134.347 109.519 133.988 109.55 133.641 109.679C133.299 109.822 133.007 110.098 132.765 110.506C132.562 110.847 132.461 111.19 132.461 111.536C132.471 111.887 132.619 112.199 132.907 112.471L131.725 114.461C131.135 114.049 130.731 113.561 130.514 112.998C130.296 112.434 130.232 111.84 130.321 111.214C130.414 110.603 130.638 109.999 130.993 109.402Z" fill="white"/>
<path d="M125.004 117.913C125.469 117.353 125.929 116.938 126.382 116.668C126.828 116.408 127.294 116.313 127.78 116.385C128.267 116.472 128.795 116.751 129.366 117.221L132.252 119.602L133.076 118.61L134.672 119.927L133.848 120.919L135.648 122.405L134.168 124.187L132.368 122.701L131.152 124.165L129.556 122.848L130.772 121.384L128.141 119.214C127.86 118.982 127.597 118.85 127.35 118.819C127.104 118.787 126.833 118.949 126.537 119.306L126.072 119.866L124.476 118.549L125.004 117.913Z" fill="white"/>
<path d="M114.32 127.221C115.268 126.574 116.17 126.219 117.024 126.157C117.869 126.101 118.666 126.305 119.413 126.77C120.152 127.24 120.839 127.939 121.476 128.866L125.127 134.184L123.171 135.518L119.454 130.105C119.154 129.669 118.807 129.299 118.41 128.995C118.012 128.707 117.573 128.546 117.094 128.512C116.613 128.493 116.098 128.67 115.551 129.044C114.995 129.423 114.647 129.834 114.509 130.275C114.376 130.726 114.385 131.187 114.535 131.659C114.685 132.131 114.906 132.58 115.2 133.007L118.916 138.42L116.96 139.754L113.309 134.437C112.679 133.519 112.274 132.627 112.095 131.762C111.922 130.905 112.014 130.095 112.373 129.33C112.731 128.565 113.38 127.862 114.32 127.221Z" fill="white"/>
<path d="M104.328 132.705C104.705 132.548 105.109 132.427 105.541 132.343C105.973 132.259 106.398 132.244 106.815 132.297C107.237 132.36 107.635 132.51 108.01 132.748C108.389 132.996 108.721 133.359 109.006 133.838L106.833 134.742C106.696 134.584 106.522 134.471 106.314 134.403C106.096 134.339 105.872 134.318 105.642 134.342C105.402 134.37 105.175 134.429 104.961 134.518C104.819 134.578 104.68 134.647 104.546 134.727C104.412 134.807 104.296 134.902 104.199 135.014C104.102 135.126 104.037 135.243 104.004 135.364C103.976 135.495 103.993 135.637 104.057 135.79C104.125 135.952 104.229 136.058 104.37 136.107C104.51 136.156 104.682 136.168 104.887 136.142C105.096 136.127 105.329 136.096 105.585 136.049C106.041 135.967 106.532 135.882 107.059 135.794C107.585 135.706 108.066 135.697 108.502 135.766C108.687 135.808 108.862 135.867 109.025 135.942C109.188 136.018 109.337 136.117 109.473 136.24C109.608 136.362 109.73 136.496 109.839 136.642C109.952 136.798 110.049 136.972 110.13 137.166C110.313 137.603 110.377 138.012 110.321 138.393C110.259 138.789 110.111 139.149 109.875 139.474C109.64 139.798 109.346 140.082 108.992 140.324C108.643 140.577 108.265 140.788 107.857 140.958C107.306 141.187 106.758 141.308 106.212 141.32C105.671 141.343 105.168 141.23 104.705 140.981C104.245 140.742 103.857 140.343 103.538 139.783L105.588 138.93C105.723 139.137 105.935 139.257 106.225 139.292C106.519 139.337 106.839 139.287 107.186 139.143C107.308 139.092 107.437 139.026 107.571 138.947C107.695 138.871 107.802 138.785 107.893 138.687C107.984 138.59 108.046 138.48 108.079 138.359C108.117 138.248 108.105 138.121 108.046 137.979C107.999 137.867 107.926 137.778 107.826 137.712C107.717 137.651 107.588 137.615 107.44 137.605C107.282 137.599 107.1 137.609 106.895 137.634C106.515 137.697 106.136 137.765 105.759 137.838C105.377 137.926 105.033 137.991 104.728 138.035C104.362 138.104 104.007 138.114 103.663 138.066C103.31 138.022 102.987 137.894 102.694 137.682C102.395 137.484 102.152 137.161 101.965 136.714C101.752 136.206 101.678 135.741 101.741 135.321C101.809 134.911 101.975 134.537 102.241 134.2C102.497 133.867 102.812 133.575 103.186 133.324C103.549 133.077 103.93 132.871 104.328 132.705Z" fill="white"/>
<path d="M91.9713 143.065L93.6919 143.993L92.7435 145.343L94.3983 145.446L94.065 147.361L92.4745 146.882L92.8992 148.475L90.9457 148.747L90.915 147.1L89.5341 147.994L88.6691 146.246L90.2319 145.694L88.9641 144.653L90.3626 143.29L91.3507 144.604L91.9713 143.065Z" fill="white"/>
</svg>
