<svg width="144" height="145" viewBox="0 0 144 145" fill="none" xmlns="http://www.w3.org/2000/svg">
<circle cx="72" cy="72.0186" r="72" fill="#F9D67B"/>
<path d="M55.9614 64.083C53.0188 64.597 50.769 67.1745 50.769 70.2586V76.5162H65.2509C64.9306 73.9685 63.9696 71.5027 62.2934 69.5211C61.8465 68.9922 61.3548 68.5005 60.8184 68.061L55.9614 64.083Z" fill="#014E4E"/>
<path d="M78.2655 58.3528V55.2836C78.2655 51.8419 75.4421 49.0186 72.0004 49.0186H65.7354V56.4755C66.458 56.1701 67.2476 55.9987 68.0819 55.9987C71.2629 55.9987 73.8553 58.472 74.0564 61.6008C75.3899 60.4387 76.7979 59.351 78.2655 58.3528Z" fill="#014E4E"/>
<path d="M71.9999 91.4893H78.2649V76.5158H86.9734C90.415 76.5158 93.231 73.6999 93.231 70.2582V63.9932H80.9765C79.4196 66.012 78.2574 68.3362 77.4604 71.1149C76.1642 75.6442 76.03 80.4864 74.2943 84.889C73.2737 87.4591 71.8062 89.5152 70.0183 91.169C70.6367 91.3776 71.3071 91.4893 71.9999 91.4893Z" fill="#1E1E1E"/>
<path d="M85.901 56.6543C65.1168 70.1677 83.912 88.6425 56.5946 95.0193C69.7951 88.8213 70.3837 73.0209 62.219 66.3461L70.2123 68.8417C70.2123 68.8417 75.9186 60.9601 85.901 56.6543Z" fill="#014E4E"/>
<path d="M68.0817 58.2188C70.1601 58.2188 71.8511 59.9023 71.8511 61.9882C71.8511 64.0666 70.1601 65.7502 68.0817 65.7502C66.0033 65.7502 64.3123 64.0666 64.3123 61.9882C64.3123 59.9023 66.0033 58.2188 68.0817 58.2188Z" fill="#1E1E1E"/>
<path d="M77.4993 23.9657C76.4487 23.8437 75.5771 23.5283 74.8844 23.0194C74.2024 22.5021 73.7142 21.832 73.4196 21.0091C73.1347 20.1873 73.0529 19.2577 73.1742 18.2203C73.2977 17.1636 73.5983 16.2638 74.0759 15.5209C74.5632 14.7791 75.1983 14.2346 75.9814 13.8874C76.7655 13.5306 77.6732 13.412 78.7045 13.5318C79.4852 13.6225 80.1683 13.8381 80.7536 14.1787C81.3402 14.5097 81.791 14.9564 82.1063 15.5188C82.4323 16.0727 82.5997 16.7299 82.6085 17.4904L80.6134 17.2587C80.5431 16.7734 80.3309 16.3739 79.9768 16.0602C79.6335 15.7379 79.1486 15.5404 78.5221 15.4677C77.8282 15.3871 77.2555 15.4812 76.804 15.7501C76.3632 16.0105 76.0221 16.3798 75.7806 16.858C75.5402 17.3267 75.388 17.8348 75.3239 18.3823C75.2577 18.9491 75.2912 19.4982 75.4244 20.0297C75.5577 20.5612 75.813 21.0096 76.1903 21.3747C76.5774 21.741 77.113 21.9638 77.7973 22.0433C78.2021 22.0903 78.5703 22.0746 78.9018 21.9963C79.2345 21.9084 79.5155 21.7609 79.7449 21.5538C79.9838 21.3479 80.1604 21.0909 80.2746 20.7829L82.342 21.023C82.1688 21.7526 81.8446 22.3527 81.3695 22.8233C80.8944 23.2939 80.3231 23.6267 79.6555 23.8218C78.9891 24.0073 78.2703 24.0553 77.4993 23.9657Z" fill="#1E1E1E"/>
<path d="M87.5797 26.213C86.8459 25.9605 86.2546 25.5933 85.8056 25.1113C85.3598 24.6203 85.0805 24.0484 84.9679 23.3958C84.8584 22.734 84.9351 22.0237 85.1979 21.265C85.4671 20.4879 85.8496 19.8727 86.3455 19.4192C86.8537 18.9598 87.4352 18.6739 88.09 18.5616C88.7448 18.4493 89.43 18.5163 90.1454 18.7625C90.8791 19.015 91.4628 19.3898 91.8962 19.8868C92.3297 20.3838 92.6012 20.9633 92.7107 21.6251C92.8202 22.2868 92.7403 23.0063 92.4711 23.7833C92.2083 24.542 91.8289 25.1481 91.3331 25.6016C90.8496 26.0491 90.2866 26.326 89.6441 26.4323C89.0107 26.5418 88.3226 26.4687 87.5797 26.213ZM88.1602 24.4483C88.5821 24.5935 88.9532 24.6189 89.2733 24.5245C89.5935 24.43 89.8593 24.2555 90.0707 24.0008C90.2944 23.7402 90.4633 23.4453 90.5773 23.1162C90.6913 22.7871 90.7409 22.4512 90.7262 22.1085C90.7207 21.769 90.6227 21.459 90.4324 21.1787C90.2544 20.8923 89.9499 20.675 89.5188 20.5266C89.1061 20.3846 88.7365 20.3699 88.41 20.4827C88.0867 20.5863 87.8131 20.7684 87.5894 21.029C87.3748 21.2928 87.2105 21.5893 87.0965 21.9184C86.9793 22.2566 86.9251 22.5909 86.9338 22.9213C86.9517 23.2549 87.0574 23.5573 87.2509 23.8285C87.4444 24.0997 87.7475 24.3063 88.1602 24.4483Z" fill="#1E1E1E"/>
<path d="M93.4837 28.3665L97.3705 21.7756L99.0143 22.7386L98.6522 23.5529C98.969 23.4356 99.2814 23.3831 99.5894 23.3952C99.9107 23.4039 100.207 23.4543 100.479 23.5464C100.76 23.6434 101.001 23.7507 101.201 23.8683C101.837 24.2408 102.249 24.6675 102.439 25.1485C102.636 25.6343 102.672 26.1548 102.548 26.7099C102.436 27.2616 102.213 27.8209 101.879 28.3879L99.7326 32.0272L97.9759 30.9981L99.9894 27.5839C100.107 27.3838 100.209 27.1739 100.293 26.9542C100.378 26.7344 100.423 26.5143 100.429 26.2936C100.444 26.0779 100.402 25.8734 100.302 25.6802C100.202 25.4871 100.022 25.3145 99.7627 25.1626C99.4281 24.9666 99.0987 24.8858 98.7745 24.9202C98.4503 24.9547 98.1502 25.0818 97.8743 25.3015C97.5984 25.5213 97.3596 25.8021 97.158 26.1439L95.2404 29.3956L93.4837 28.3665Z" fill="#1E1E1E"/>
<path d="M104.365 35.7363C103.872 35.328 103.508 34.9252 103.272 34.5279C103.043 34.1367 102.961 33.7288 103.025 33.304C103.103 32.878 103.35 32.416 103.766 31.9179L105.87 29.3979L104.997 28.6741L106.161 27.2802L107.034 28.004L108.346 26.4318L109.913 27.7309L108.6 29.3031L109.887 30.3703L108.723 31.7641L107.436 30.697L105.518 32.994C105.313 33.2393 105.197 33.4697 105.168 33.6852C105.14 33.9007 105.282 34.1383 105.596 34.3981L106.088 34.8064L104.924 36.2003L104.365 35.7363Z" fill="#1E1E1E"/>
<path d="M108.162 39.5776C107.932 39.3159 107.741 39.0327 107.589 38.7282C107.451 38.4245 107.371 38.1143 107.351 37.7978C107.33 37.4812 107.382 37.1727 107.504 36.8723C107.627 36.5719 107.835 36.2942 108.126 36.0391C108.52 35.6947 108.904 35.5004 109.278 35.4562C109.66 35.4057 110.031 35.4607 110.392 35.6213C110.753 35.7819 111.108 36.0175 111.459 36.3282C111.817 36.6462 112.162 36.9942 112.495 37.3722L113.224 38.201C113.436 38.016 113.586 37.8134 113.676 37.5931C113.78 37.3737 113.809 37.1494 113.762 36.9202C113.722 36.6847 113.597 36.4469 113.386 36.207C113.251 36.0543 113.098 35.9244 112.927 35.8173C112.768 35.711 112.611 35.6426 112.455 35.6118C112.299 35.5811 112.15 35.6022 112.008 35.6752L110.645 34.1267C111.004 33.8897 111.367 33.7523 111.734 33.7145C112.108 33.6703 112.474 33.7044 112.831 33.8168C113.188 33.9292 113.524 34.0984 113.839 34.3245C114.168 34.5515 114.467 34.8177 114.736 35.1231C115.472 35.9591 115.775 36.7875 115.645 37.6083C115.523 38.4227 115.024 39.2126 114.149 39.978L111.042 42.6949L109.832 41.3209L110.557 40.6485C110.142 40.69 109.774 40.6455 109.452 40.5149C109.137 40.3915 108.872 40.2372 108.657 40.0519C108.443 39.8666 108.278 39.7085 108.162 39.5776ZM109.684 38.8647C109.908 39.1191 110.164 39.3071 110.452 39.4287C110.739 39.5502 111.025 39.5962 111.309 39.5668C111.593 39.5373 111.844 39.4269 112.063 39.2355L112.205 39.1112L111.284 38.0643C111.149 37.9116 111.011 37.769 110.868 37.6363C110.732 37.5109 110.591 37.4092 110.445 37.3312C110.312 37.254 110.173 37.221 110.028 37.2321C109.883 37.2432 109.738 37.3125 109.592 37.4401C109.446 37.5676 109.354 37.7124 109.316 37.8744C109.291 38.0373 109.311 38.2065 109.375 38.382C109.447 38.5511 109.55 38.712 109.684 38.8647Z" fill="#1E1E1E"/>
<path d="M114.251 47.7475C113.851 47.0734 113.645 46.4138 113.634 45.7685C113.627 45.1316 113.8 44.5404 114.153 43.9951C114.514 43.4449 115.037 42.9677 115.721 42.5636C116.414 42.1545 117.092 41.9287 117.755 41.886C118.426 41.8384 119.046 41.9722 119.617 42.2872C120.193 42.6106 120.686 43.1177 121.096 43.8083C121.413 44.3409 121.598 44.8719 121.654 45.4013C121.709 45.9307 121.631 46.4262 121.42 46.8877C121.215 47.3576 120.861 47.7686 120.36 48.1207L119.344 46.4106C119.591 46.1633 119.718 45.892 119.723 45.5968C119.733 45.3099 119.651 45.0208 119.478 44.7296C119.256 44.3551 118.986 44.1098 118.669 43.9935C118.356 43.8856 118.029 43.8655 117.686 43.9332C117.347 44.0092 117.036 44.131 116.752 44.2986C116.443 44.4809 116.181 44.7033 115.965 44.9658C115.757 45.2233 115.63 45.512 115.583 45.8319C115.549 46.1551 115.639 46.4957 115.852 46.8535C116.03 47.153 116.252 47.3757 116.519 47.5216C116.795 47.6624 117.098 47.6799 117.43 47.574L118.468 49.3215C117.901 49.6002 117.354 49.7041 116.827 49.6331C116.299 49.562 115.813 49.3602 115.367 49.0276C114.935 48.6984 114.563 48.2717 114.251 47.7475Z" fill="#1E1E1E"/>
<path d="M118.298 55.9474C118.062 55.3538 117.936 54.8263 117.92 54.3647C117.907 53.9121 118.031 53.5147 118.292 53.1727C118.566 52.8361 119.004 52.5487 119.609 52.3103L122.668 51.1044L122.25 50.0522L123.942 49.3852L124.36 50.4374L126.268 49.685L127.018 51.5736L125.109 52.3259L125.725 53.8772L124.033 54.5442L123.417 52.9929L120.629 54.0922C120.331 54.2095 120.118 54.356 119.99 54.5315C119.861 54.707 119.872 54.9836 120.022 55.3613L120.257 55.9549L118.565 56.6219L118.298 55.9474Z" fill="#1E1E1E"/>
<path d="M120.94 68.0597C120.844 67.0585 120.953 66.2174 121.268 65.5365C121.584 64.8652 122.079 64.3419 122.755 63.9667C123.432 63.6011 124.262 63.3714 125.248 63.2775L130.898 62.7393L131.096 64.8043L125.344 65.3522C124.881 65.3964 124.448 65.5056 124.045 65.68C123.653 65.863 123.343 66.1306 123.113 66.4828C122.894 66.8437 122.813 67.3129 122.868 67.8906C122.924 68.4778 123.093 68.9184 123.375 69.2121C123.666 69.505 124.026 69.6942 124.453 69.7798C124.88 69.8654 125.321 69.8866 125.775 69.8433L131.527 69.2954L131.725 71.3604L126.074 71.8987C125.099 71.9916 124.239 71.9229 123.496 71.6926C122.762 71.4613 122.176 71.0459 121.739 70.4464C121.301 69.8469 121.035 69.0513 120.94 68.0597Z" fill="#1E1E1E"/>
<path d="M120.928 78.1349C120.967 77.7791 121.046 77.418 121.164 77.0514C121.282 76.6848 121.45 76.3528 121.668 76.0555C121.896 75.7592 122.181 75.5177 122.523 75.3311C122.875 75.1456 123.296 75.0454 123.786 75.0305L123.562 77.0783C123.382 77.1171 123.221 77.2018 123.08 77.3324C122.938 77.4727 122.828 77.6358 122.749 77.8218C122.669 78.0174 122.618 78.2161 122.596 78.418C122.581 78.5526 122.576 78.6883 122.58 78.825C122.585 78.9617 122.61 79.0908 122.655 79.2125C122.7 79.3342 122.763 79.4333 122.842 79.5101C122.931 79.5878 123.048 79.6346 123.193 79.6503C123.347 79.667 123.473 79.6321 123.57 79.5453C123.668 79.4586 123.75 79.3314 123.817 79.1635C123.894 78.9968 123.969 78.8054 124.041 78.5895C124.171 78.2048 124.314 77.7922 124.469 77.3519C124.625 76.9115 124.821 76.5389 125.06 76.234C125.171 76.1099 125.29 76.0012 125.418 75.9081C125.545 75.8149 125.684 75.7425 125.837 75.6909C125.989 75.6393 126.144 75.6027 126.302 75.581C126.471 75.5603 126.646 75.5599 126.83 75.5798C127.244 75.6249 127.587 75.7496 127.858 75.9541C128.137 76.1692 128.352 76.4358 128.502 76.7537C128.653 77.0716 128.747 77.4175 128.784 77.7912C128.831 78.166 128.833 78.5456 128.791 78.9302C128.735 79.4494 128.595 79.9206 128.373 80.344C128.161 80.7685 127.861 81.1056 127.472 81.3552C127.093 81.606 126.621 81.7346 126.054 81.7412L126.265 79.8087C126.481 79.7933 126.664 79.6818 126.814 79.4743C126.973 79.2678 127.071 79.0012 127.106 78.6743C127.119 78.5589 127.123 78.4329 127.118 78.2962C127.113 78.1691 127.092 78.0501 127.055 77.9391C127.018 77.8281 126.96 77.7342 126.881 77.6575C126.811 77.5818 126.709 77.5367 126.573 77.522C126.467 77.5105 126.368 77.5288 126.275 77.5771C126.18 77.635 126.098 77.7185 126.028 77.8275C125.956 77.9462 125.887 78.0895 125.82 78.2573C125.707 78.5758 125.599 78.8949 125.495 79.2144C125.401 79.5446 125.305 79.8359 125.21 80.0881C125.107 80.3981 124.965 80.6744 124.782 80.9173C124.598 81.1697 124.363 81.363 124.075 81.4971C123.795 81.6419 123.443 81.6912 123.019 81.6451C122.537 81.5928 122.147 81.4532 121.849 81.2263C121.562 81.0005 121.344 80.7142 121.197 80.3675C121.048 80.0303 120.956 79.6652 120.921 79.2723C120.885 78.889 120.887 78.5098 120.928 78.1349Z" fill="#1E1E1E"/>
<path d="M123.684 91.9999L125.129 91.0745L125.768 92.3738L126.549 91.1491L127.885 92.2164L126.842 93.2324L128.25 93.582L127.632 95.1948L126.349 94.5199L126.453 95.957L124.737 95.879L124.974 94.4473L123.634 94.9777L123.175 93.328L124.607 93.1276L123.684 91.9999Z" fill="#1E1E1E"/>
<path d="M111.072 102.848C111.712 102.01 112.429 101.423 113.221 101.088C114.015 100.767 114.843 100.689 115.703 100.856C116.558 101.03 117.402 101.434 118.236 102.066C119.085 102.711 119.709 103.427 120.107 104.215C120.499 105.011 120.646 105.833 120.546 106.682C120.455 107.536 120.095 108.375 119.466 109.198C118.99 109.821 118.456 110.297 117.863 110.626C117.279 110.96 116.663 111.119 116.017 111.103C115.373 111.101 114.72 110.909 114.059 110.529L115.276 108.936C115.73 109.123 116.184 109.145 116.635 109.001C117.088 108.871 117.505 108.556 117.887 108.055C118.311 107.501 118.521 106.962 118.519 106.438C118.519 105.927 118.374 105.447 118.084 104.996C117.802 104.551 117.441 104.161 117.001 103.828C116.545 103.482 116.054 103.231 115.527 103.074C115 102.918 114.483 102.908 113.976 103.046C113.462 103.191 112.997 103.537 112.58 104.084C112.333 104.407 112.159 104.73 112.058 105.055C111.964 105.385 111.948 105.701 112.01 106.003C112.066 106.313 112.198 106.595 112.406 106.85L111.145 108.501C110.603 107.981 110.251 107.397 110.086 106.75C109.922 106.102 109.926 105.443 110.098 104.771C110.277 104.105 110.602 103.464 111.072 102.848Z" fill="#1E1E1E"/>
<path d="M103.998 110.36C104.588 109.858 105.206 109.536 105.85 109.396C106.501 109.262 107.137 109.313 107.759 109.547C108.386 109.789 108.961 110.216 109.484 110.826C110.019 111.452 110.356 112.093 110.497 112.749C110.636 113.419 110.588 114.063 110.352 114.682C110.117 115.302 109.711 115.856 109.135 116.345C108.545 116.847 107.924 117.158 107.275 117.278C106.625 117.398 105.986 117.337 105.358 117.095C104.731 116.853 104.149 116.419 103.614 115.793C103.092 115.182 102.761 114.549 102.62 113.893C102.479 113.251 102.526 112.627 102.76 112.021C102.987 111.422 103.399 110.868 103.998 110.36ZM105.228 111.754C104.888 112.043 104.678 112.348 104.597 112.671C104.516 112.994 104.532 113.311 104.645 113.622C104.757 113.946 104.926 114.241 105.153 114.506C105.379 114.771 105.644 114.984 105.948 115.145C106.244 115.313 106.562 115.386 106.901 115.365C107.239 115.358 107.581 115.206 107.928 114.912C108.261 114.629 108.461 114.319 108.529 113.982C108.604 113.652 108.585 113.324 108.474 113C108.355 112.682 108.182 112.39 107.955 112.125C107.722 111.853 107.461 111.636 107.171 111.476C106.873 111.322 106.558 111.259 106.226 111.288C105.893 111.316 105.56 111.472 105.228 111.754Z" fill="#1E1E1E"/>
<path d="M99.1412 114.338L102.874 121.017L101.209 121.942L100.687 121.218C100.628 121.55 100.516 121.845 100.349 122.103C100.179 122.375 99.9851 122.604 99.7676 122.792C99.5416 122.983 99.3269 123.136 99.1235 123.249C98.4792 123.607 97.9012 123.745 97.3893 123.664C96.869 123.587 96.4003 123.355 95.9833 122.966C95.5625 122.591 95.1915 122.116 94.8704 121.542L92.8091 117.854L94.5892 116.866L96.523 120.325C96.6364 120.528 96.7667 120.721 96.9139 120.905C97.0611 121.089 97.2286 121.24 97.4163 121.357C97.5955 121.479 97.794 121.546 98.0117 121.558C98.2294 121.57 98.4697 121.503 98.7325 121.357C99.0715 121.169 99.3083 120.927 99.4427 120.631C99.5771 120.334 99.6192 120.012 99.5688 119.664C99.5184 119.315 99.3964 118.968 99.2028 118.622L97.3611 115.327L99.1412 114.338Z" fill="#1E1E1E"/>
<path d="M87.2499 119.953C87.8527 119.737 88.3858 119.629 88.8493 119.628C89.3036 119.63 89.698 119.766 90.0326 120.037C90.3612 120.32 90.6353 120.767 90.8548 121.377L91.9653 124.463L93.0339 124.081L93.6481 125.788L92.5795 126.17L93.2723 128.095L91.3542 128.78L90.6614 126.855L89.0858 127.418L88.4716 125.711L90.0472 125.148L89.035 122.335C88.9269 122.035 88.7869 121.818 88.6151 121.684C88.4432 121.55 88.1655 121.552 87.7819 121.689L87.1791 121.905L86.5649 120.198L87.2499 119.953Z" fill="#1E1E1E"/>
<path d="M81.9789 121.263C82.3223 121.199 82.6641 121.179 83.0045 121.204C83.3371 121.24 83.6453 121.33 83.929 121.474C84.2127 121.618 84.4529 121.819 84.6496 122.077C84.8463 122.336 84.9804 122.655 85.052 123.035C85.1485 123.548 85.1205 123.977 84.9679 124.32C84.8171 124.673 84.5804 124.963 84.258 125.191C83.9355 125.418 83.5507 125.603 83.1037 125.746C82.6471 125.89 82.1708 126.009 81.6749 126.102L80.5876 126.305C80.6395 126.58 80.7375 126.813 80.8818 127.002C81.0183 127.203 81.1974 127.342 81.4191 127.419C81.6427 127.505 81.9118 127.518 82.2265 127.46C82.4268 127.422 82.6169 127.357 82.797 127.265C82.9692 127.183 83.1084 127.083 83.2145 126.965C83.3206 126.847 83.3784 126.708 83.388 126.549L85.4194 126.169C85.4409 126.598 85.3744 126.98 85.22 127.314C85.0674 127.657 84.8516 127.953 84.5727 128.202C84.2937 128.451 83.9763 128.653 83.6204 128.808C83.2568 128.974 82.8747 129.095 82.4742 129.17C81.3774 129.375 80.5077 129.212 79.8652 128.683C79.2244 128.163 78.7967 127.333 78.5821 126.192L77.8204 122.143L79.6229 121.806L79.8339 122.77C80.0098 122.393 80.236 122.1 80.5126 121.891C80.7796 121.684 81.0479 121.535 81.3173 121.445C81.5867 121.356 81.8073 121.295 81.9789 121.263ZM81.8189 122.931C81.4851 122.993 81.1924 123.117 80.9408 123.302C80.6893 123.486 80.5039 123.708 80.3847 123.966C80.2655 124.225 80.2327 124.497 80.2863 124.782L80.3212 124.967L81.6946 124.71C81.8948 124.673 82.0886 124.627 82.2757 124.572C82.4534 124.519 82.6131 124.45 82.755 124.365C82.8891 124.29 82.9883 124.188 83.0527 124.058C83.1171 123.928 83.1314 123.768 83.0956 123.578C83.0599 123.388 82.9818 123.235 82.8614 123.12C82.7332 123.016 82.5771 122.947 82.3929 122.912C82.2105 122.887 82.0191 122.893 81.8189 122.931Z" fill="#1E1E1E"/>
<path d="M71.8017 122.319C72.5876 122.319 73.262 122.479 73.8248 122.798C74.3779 123.117 74.8 123.567 75.0911 124.147C75.3823 124.737 75.5278 125.428 75.5279 126.221C75.5279 127.024 75.3775 127.72 75.0767 128.31C74.7759 128.91 74.3441 129.374 73.7813 129.703C73.2088 130.032 72.5199 130.196 71.7145 130.196C71.0935 130.196 70.5404 130.085 70.0552 129.863C69.5701 129.64 69.1819 129.321 68.8908 128.905C68.59 128.49 68.4153 127.977 68.3668 127.368L70.3608 127.368C70.4482 127.706 70.618 127.953 70.8703 128.107C71.1129 128.262 71.404 128.34 71.7436 128.34C72.1802 128.34 72.5296 128.233 72.7916 128.02C73.0438 127.808 73.2282 127.537 73.3446 127.208C73.4513 126.879 73.5047 126.55 73.5047 126.222C73.5047 125.864 73.4465 125.525 73.33 125.206C73.2136 124.897 73.0292 124.64 72.7769 124.437C72.5149 124.244 72.1753 124.147 71.758 124.147C71.4087 124.147 71.1031 124.224 70.8411 124.379C70.5791 124.544 70.4093 124.795 70.3317 125.134L68.294 125.134C68.3425 124.505 68.5317 123.983 68.8616 123.567C69.1915 123.151 69.6136 122.837 70.1278 122.624C70.6324 122.421 71.1903 122.319 71.8017 122.319Z" fill="#1E1E1E"/>
<path d="M62.633 121.617C63.2656 121.717 63.7854 121.877 64.1925 122.098C64.5899 122.317 64.8701 122.626 65.033 123.023C65.1847 123.429 65.2099 123.952 65.1083 124.592L64.5947 127.83L65.7161 128.007L65.432 129.798L64.3106 129.621L63.9902 131.642L61.9775 131.325L62.2979 129.304L60.6446 129.044L60.9287 127.253L62.582 127.513L63.0502 124.561C63.1002 124.246 63.0821 123.989 62.9958 123.789C62.9096 123.59 62.6652 123.458 62.2627 123.395L61.6301 123.295L61.9142 121.504L62.633 121.617Z" fill="#1E1E1E"/>
<path d="M50.8101 117.719C51.7236 118.146 52.3942 118.669 52.8219 119.285C53.2408 119.898 53.4403 120.59 53.4204 121.36C53.3917 122.127 53.1671 122.956 52.7465 123.849L50.3344 128.971L48.4502 128.089L50.9057 122.876C51.1036 122.456 51.2297 122.029 51.284 121.595C51.3255 121.165 51.2525 120.763 51.0652 120.386C50.865 120.015 50.5014 119.706 49.9743 119.459C49.4385 119.209 48.9721 119.129 48.575 119.221C48.1738 119.322 47.8275 119.534 47.536 119.857C47.2445 120.18 47.0019 120.547 46.8081 120.959L44.3526 126.172L42.4685 125.291L44.8807 120.169C45.2971 119.285 45.7941 118.583 46.3715 118.062C46.9448 117.551 47.6017 117.26 48.3422 117.189C49.0828 117.119 49.9054 117.296 50.8101 117.719Z" fill="#1E1E1E"/>
<path d="M42.2008 112.626C42.4881 112.84 42.7599 113.092 43.0162 113.38C43.2725 113.668 43.4735 113.981 43.6192 114.319C43.759 114.666 43.8223 115.033 43.8088 115.422C43.7896 115.818 43.6617 116.23 43.4251 116.658L41.7711 115.423C41.8293 115.249 41.8379 115.068 41.7971 114.88C41.7485 114.687 41.664 114.509 41.5436 114.346C41.4155 114.178 41.2699 114.033 41.1068 113.911C40.9981 113.83 40.8836 113.757 40.7632 113.691C40.6429 113.625 40.5186 113.581 40.3906 113.558C40.2625 113.535 40.1451 113.537 40.0383 113.567C39.9258 113.603 39.8259 113.68 39.7386 113.796C39.6455 113.92 39.6116 114.045 39.6369 114.173C39.6621 114.301 39.7301 114.436 39.8408 114.579C39.9456 114.73 40.0728 114.891 40.2223 115.064C40.4883 115.371 40.7718 115.704 41.0727 116.061C41.3737 116.419 41.5951 116.778 41.7369 117.137C41.7874 117.296 41.8205 117.454 41.8361 117.61C41.8517 117.767 41.843 117.924 41.8101 118.08C41.7771 118.237 41.7296 118.389 41.6676 118.536C41.5997 118.691 41.5105 118.842 41.4 118.989C41.1498 119.321 40.8675 119.552 40.5532 119.679C40.2252 119.809 39.8856 119.858 39.5344 119.825C39.1831 119.792 38.8366 119.697 38.495 119.538C38.1476 119.387 37.8185 119.196 37.5079 118.964C37.0886 118.651 36.7528 118.291 36.5003 117.885C36.242 117.487 36.1041 117.057 36.0864 116.597C36.0629 116.144 36.1928 115.673 36.4759 115.184L38.0367 116.35C37.9397 116.543 37.9427 116.757 38.0457 116.991C38.1428 117.233 38.3234 117.452 38.5874 117.649C38.6806 117.719 38.7873 117.787 38.9077 117.852C39.0203 117.912 39.1338 117.955 39.2483 117.98C39.3628 118.005 39.4735 118.003 39.5802 117.974C39.6811 117.952 39.7723 117.888 39.8537 117.779C39.9177 117.694 39.9526 117.599 39.9584 117.495C39.9564 117.385 39.9263 117.272 39.868 117.156C39.802 117.034 39.7137 116.901 39.603 116.758C39.3855 116.499 39.1651 116.244 38.9419 115.992C38.705 115.743 38.5021 115.513 38.3332 115.302C38.1177 115.057 37.9516 114.794 37.8351 114.513C37.7108 114.227 37.6641 113.926 37.695 113.611C37.7123 113.298 37.849 112.971 38.105 112.63C38.396 112.243 38.7151 111.98 39.0624 111.841C39.4039 111.709 39.762 111.668 40.1365 111.718C40.5034 111.763 40.8653 111.87 41.2225 112.04C41.5719 112.204 41.898 112.399 42.2008 112.626Z" fill="#1E1E1E"/>
<path d="M28.8158 107.931L28.8825 109.642L27.4347 109.532L28.0973 110.824L26.4965 111.429L26.1477 110.018L25.1307 111.05L24.0498 109.701L25.2848 108.941L23.9897 108.301L24.9275 106.868L26.045 107.797L26.2668 106.377L27.9257 106.82L27.3722 108.152L28.8158 107.931Z" fill="#1E1E1E"/>
<path d="M25.8253 91.5918C26.2255 92.5676 26.3693 93.4806 26.2568 94.331C26.1316 95.176 25.7786 95.9257 25.1979 96.5802C24.6136 97.2257 23.8364 97.7461 22.8663 98.1412C21.8783 98.5437 20.9426 98.7159 20.0592 98.6579C19.1721 98.5909 18.387 98.2995 17.7038 97.7838C17.0116 97.2718 16.4691 96.5368 16.0763 95.5789C15.7789 94.8538 15.6385 94.1535 15.6551 93.4781C15.6626 92.8064 15.8373 92.1972 16.1792 91.6504C16.5084 91.0984 17.0049 90.635 17.6688 90.26L18.4287 92.1131C18.0364 92.4088 17.7878 92.7869 17.6832 93.2475C17.5659 93.7027 17.6265 94.2213 17.8652 94.8032C18.1295 95.4477 18.4888 95.9021 18.9431 96.1663C19.3847 96.4252 19.8739 96.5446 20.4107 96.5244C20.9386 96.5079 21.4585 96.3953 21.9704 96.1868C22.5004 95.9709 22.9667 95.6765 23.3693 95.3035C23.7719 94.9305 24.0425 94.4912 24.1811 93.9855C24.3159 93.4709 24.253 92.8957 23.9924 92.2601C23.8382 91.8841 23.6466 91.5704 23.4177 91.3189C23.1798 91.071 22.9145 90.897 22.6218 90.7968C22.3255 90.6877 22.0144 90.6577 21.6887 90.7068L20.9012 88.7866C21.6258 88.5854 22.3096 88.5785 22.9525 88.7658C23.5954 88.9532 24.1637 89.2911 24.6575 89.7795C25.1424 90.2715 25.5316 90.8756 25.8253 91.5918Z" fill="#1E1E1E"/>
<path d="M22.9339 81.704C23.0661 82.4664 23.0288 83.1598 22.8219 83.7843C22.6055 84.4104 22.2377 84.9301 21.7186 85.3434C21.1898 85.7584 20.5286 86.0342 19.735 86.1708C18.9223 86.3108 18.197 86.2738 17.5592 86.0598C16.9102 85.8378 16.3784 85.4682 15.9637 84.9507C15.5491 84.4333 15.2773 83.8029 15.1484 83.0595C15.0162 82.2971 15.064 81.6068 15.2916 80.9886C15.5192 80.3703 15.8974 79.8537 16.4261 79.4388C16.9548 79.0238 17.6256 78.7464 18.4383 78.6064C19.2319 78.4697 19.9476 78.5084 20.5854 78.7225C21.212 78.9286 21.727 79.2865 22.1305 79.796C22.5323 80.2961 22.8001 80.932 22.9339 81.704ZM21.103 82.0487C21.027 81.6104 20.8703 81.2742 20.6328 81.0403C20.3953 80.8064 20.1136 80.6586 19.7878 80.597C19.4508 80.5274 19.1102 80.5223 18.766 80.5816C18.4218 80.6409 18.1026 80.7596 17.8086 80.9378C17.5129 81.1065 17.2877 81.3416 17.1332 81.643C16.9675 81.9366 16.9234 82.3073 17.0011 82.7552C17.0754 83.184 17.2409 83.5138 17.4975 83.7444C17.7446 83.9766 18.0366 84.1275 18.3736 84.1971C18.709 84.2571 19.0488 84.2574 19.393 84.1982C19.7468 84.1372 20.0668 84.0232 20.3529 83.8562C20.6374 83.6796 20.8521 83.4414 20.9971 83.1417C21.1421 82.8419 21.1774 82.4776 21.103 82.0487Z" fill="#1E1E1E"/>
<path d="M21.9757 75.4571L14.3078 75.2554L14.3581 73.3557L15.2484 73.2775C14.9921 73.0579 14.7948 72.8109 14.6565 72.5364C14.5087 72.2519 14.4094 71.9687 14.3586 71.6869C14.3081 71.3953 14.2859 71.1335 14.2921 70.9015C14.3115 70.1667 14.4867 69.6005 14.8175 69.2029C15.1486 68.7956 15.5881 68.5121 16.1359 68.3524C16.6742 68.1827 17.2732 68.1066 17.9328 68.1239L22.1669 68.2353L22.1131 70.2655L18.141 70.161C17.9082 70.1549 17.6749 70.1681 17.441 70.2007C17.2072 70.2332 16.9919 70.3001 16.7951 70.4013C16.5985 70.4929 16.4396 70.629 16.3183 70.8096C16.1971 70.9903 16.1325 71.2304 16.1245 71.5301C16.1143 71.9168 16.2027 72.2433 16.3898 72.5094C16.5769 72.7755 16.8337 72.9758 17.1602 73.1101C17.4866 73.2445 17.8487 73.3169 18.2464 73.3273L22.0294 73.4268L21.9757 75.4571Z" fill="#1E1E1E"/>
<path d="M23.1777 62.4033C23.0575 63.0302 22.8802 63.5429 22.6457 63.9413C22.4131 64.3303 22.0948 64.5995 21.6907 64.749C21.2789 64.8872 20.7538 64.8955 20.1152 64.7739L16.8842 64.1586L16.6711 65.2701L14.8841 64.9298L15.0971 63.8183L13.0813 63.4345L13.4637 61.4396L15.4795 61.8235L15.7937 60.1849L17.5807 60.5252L17.2666 62.1638L20.2117 62.7246C20.5262 62.7845 20.7849 62.7747 20.9879 62.6952C21.1908 62.6157 21.3305 62.3764 21.407 61.9775L21.5272 61.3505L23.3142 61.6908L23.1777 62.4033Z" fill="#1E1E1E"/>
<path d="M24.7244 57.2118C24.6053 57.5391 24.4485 57.8425 24.2539 58.122C24.0535 58.3891 23.8191 58.6078 23.5507 58.7783C23.2822 58.9487 22.9864 59.0527 22.6631 59.0902C22.3398 59.1277 21.9957 59.0805 21.6309 58.9486C21.1383 58.7706 20.7824 58.5288 20.5632 58.2233C20.335 57.9145 20.2045 57.5639 20.1718 57.1714C20.1391 56.779 20.1748 56.3547 20.2788 55.8985C20.3861 55.4332 20.5258 54.9642 20.6978 54.4914L21.0749 53.4549C20.8103 53.3593 20.5595 53.3252 20.3224 53.3527C20.0796 53.3678 19.8687 53.4511 19.6897 53.6024C19.5017 53.7505 19.3531 53.9746 19.2439 54.2746C19.1745 54.4655 19.134 54.6618 19.1226 54.8634C19.1054 55.0526 19.1209 55.2228 19.1691 55.374C19.2173 55.5252 19.3078 55.6453 19.4405 55.7344L18.736 57.671C18.3545 57.4714 18.0587 57.2205 17.8487 56.9182C17.6295 56.6127 17.4833 56.277 17.41 55.911C17.3367 55.5451 17.3235 55.17 17.3704 54.7857C17.4115 54.3891 17.5015 53.9998 17.6404 53.618C18.0208 52.5724 18.603 51.9084 19.387 51.6259C20.1618 51.3401 21.0966 51.395 22.1913 51.7906L26.0773 53.195L25.4522 54.9133L24.5118 54.6044C24.7484 54.947 24.8867 55.2902 24.9268 55.6339C24.9703 55.9685 24.9623 56.2742 24.9028 56.5511C24.8434 56.8279 24.7839 57.0482 24.7244 57.2118ZM23.3643 56.2265C23.48 55.9083 23.522 55.5943 23.4902 55.2845C23.4585 54.9747 23.3612 54.7029 23.1985 54.4692C23.0358 54.2356 22.8176 54.0693 22.5439 53.9704L22.3661 53.9061L21.8898 55.2153C21.8203 55.4063 21.7616 55.5959 21.7137 55.7844C21.6691 55.9637 21.6477 56.136 21.6495 56.3012C21.6455 56.4541 21.6834 56.5912 21.7631 56.7126C21.8428 56.834 21.9738 56.9277 22.1563 56.9936C22.3387 57.0595 22.5104 57.0701 22.6711 57.0253C22.8261 56.9682 22.9653 56.8693 23.0887 56.7287C23.203 56.5849 23.2948 56.4175 23.3643 56.2265Z" fill="#1E1E1E"/>
<path d="M28.9803 47.9588C28.5798 48.6329 28.0984 49.1299 27.5361 49.4499C26.9788 49.7616 26.3755 49.8945 25.7262 49.8485C25.0686 49.7975 24.3974 49.57 23.7128 49.1659C23.0198 48.7569 22.4953 48.2731 22.1393 47.7146C21.7749 47.1511 21.5941 46.5443 21.597 45.8941C21.6048 45.2356 21.8139 44.561 22.2243 43.8703C22.5407 43.3377 22.9186 42.92 23.3578 42.6173C23.7971 42.3146 24.2704 42.1443 24.7777 42.1066C25.29 42.0605 25.8215 42.1719 26.3722 42.4407L25.3562 44.1508C25.0195 44.0532 24.72 44.0732 24.4579 44.2107C24.2007 44.3399 23.9856 44.5501 23.8125 44.8414C23.5901 45.2158 23.5039 45.5696 23.5541 45.9027C23.6092 46.2275 23.7491 46.5236 23.9736 46.791C24.2031 47.05 24.4598 47.2633 24.7437 47.4309C25.0526 47.6132 25.3745 47.7358 25.7093 47.7985C26.0358 47.8563 26.351 47.8288 26.6549 47.7159C26.9554 47.5898 27.2119 47.3478 27.4245 46.99C27.6025 46.6904 27.6915 46.3889 27.6914 46.0854C27.6829 45.7769 27.5524 45.5032 27.2997 45.2641L28.338 43.5166C28.856 43.8785 29.2104 44.3069 29.4013 44.8017C29.5922 45.2965 29.6485 45.8187 29.5702 46.3681C29.4884 46.9043 29.2918 47.4346 28.9803 47.9588Z" fill="#1E1E1E"/>
<path d="M34.2393 40.4859C33.8309 40.9776 33.4277 41.3417 33.0297 41.5783C32.6378 41.8074 32.2287 41.8904 31.8024 41.8274C31.3747 41.7508 30.9105 41.5059 30.4097 41.0927L27.8759 39.0021L27.1519 39.8737L25.7504 38.7174L26.4744 37.8458L24.8935 36.5415L26.1929 34.977L27.7738 36.2813L28.8411 34.9963L30.2426 36.1526L29.1752 37.4377L31.4849 39.3433C31.7315 39.5468 31.963 39.6624 32.1793 39.6902C32.3955 39.718 32.6336 39.5754 32.8935 39.2625L33.3019 38.7708L34.7034 39.9272L34.2393 40.4859Z" fill="#1E1E1E"/>
<path d="M43.6215 32.3118C42.7887 32.8798 41.9972 33.1912 41.247 33.2459C40.5048 33.2952 39.8055 33.1159 39.1492 32.7081C38.5009 32.2948 37.8972 31.6811 37.3382 30.8671L34.1322 26.1982L35.8498 25.0266L39.1134 29.7792C39.3764 30.1623 39.6819 30.4872 40.0296 30.7539C40.3799 31.0072 40.7652 31.1487 41.1854 31.1785C41.6081 31.1948 42.0597 31.0391 42.5402 30.7114C43.0287 30.3782 43.3338 30.0177 43.4555 29.63C43.5718 29.2342 43.5642 28.8293 43.4326 28.4151C43.301 28.0009 43.1065 27.6063 42.8489 27.2312L39.5853 22.4785L41.303 21.3069L44.509 25.9757C45.0625 26.7818 45.4179 27.5648 45.5752 28.3247C45.7271 29.0766 45.6456 29.7885 45.3308 30.4602C45.0161 31.132 44.4463 31.7492 43.6215 32.3118Z" fill="#1E1E1E"/>
<path d="M52.395 27.4963C52.0637 27.6341 51.7085 27.74 51.3294 27.814C50.9503 27.8879 50.5774 27.9015 50.2109 27.8549C49.8406 27.7994 49.4909 27.6672 49.1615 27.4584C48.8285 27.2407 48.5371 26.9218 48.2875 26.5016L50.1948 25.708C50.3158 25.8462 50.4678 25.9454 50.6507 26.0056C50.8426 26.062 51.0393 26.0797 51.2408 26.0587C51.4512 26.034 51.6505 25.9825 51.8385 25.9043C51.9639 25.8521 52.0855 25.791 52.2034 25.721C52.3213 25.651 52.4227 25.5669 52.5078 25.4686C52.5928 25.3703 52.6498 25.268 52.6788 25.1616C52.7041 25.0463 52.6887 24.9217 52.6327 24.7878C52.5728 24.645 52.4813 24.5521 52.3581 24.509C52.235 24.466 52.0834 24.4557 51.9036 24.4781C51.7199 24.4916 51.5158 24.5189 51.2912 24.56C50.8904 24.6325 50.459 24.7072 49.9971 24.7841C49.5351 24.8611 49.1126 24.8692 48.7297 24.8085C48.5669 24.7714 48.4139 24.7198 48.2705 24.6537C48.1272 24.5876 47.9961 24.5007 47.8773 24.3929C47.7586 24.2851 47.6514 24.1673 47.5558 24.0394C47.4564 23.9026 47.3712 23.7494 47.3001 23.5798C47.1394 23.1961 47.0835 22.8368 47.1325 22.502C47.1868 22.1545 47.3172 21.8382 47.5237 21.5532C47.7303 21.2681 47.9887 21.0191 48.2991 20.8061C48.6057 20.5842 48.9381 20.3987 49.2962 20.2496C49.7798 20.0484 50.2611 19.9424 50.7403 19.9317C51.2158 19.912 51.657 20.0114 52.0639 20.2298C52.4671 20.4393 52.8085 20.7898 53.088 21.2813L51.2882 22.0303C51.1702 21.8489 50.9839 21.743 50.7293 21.7127C50.471 21.6734 50.1896 21.7171 49.8852 21.8438C49.7778 21.8885 49.6651 21.9459 49.5472 22.0159C49.4383 22.0822 49.3439 22.1582 49.2641 22.2438C49.1843 22.3294 49.1299 22.4254 49.1009 22.5318C49.0681 22.6293 49.0779 22.7405 49.1302 22.8654C49.1713 22.9636 49.2356 23.0417 49.323 23.0996C49.4193 23.1539 49.5324 23.1854 49.6623 23.1942C49.8011 23.1993 49.9605 23.1907 50.1403 23.1682C50.4747 23.1129 50.8072 23.0532 51.1378 22.989C51.4736 22.9121 51.7755 22.8546 52.0434 22.8164C52.3651 22.756 52.6767 22.7468 52.9783 22.789C53.2888 22.8275 53.5725 22.94 53.8294 23.1265C54.0916 23.3004 54.3049 23.5837 54.4694 23.9763C54.6563 24.4226 54.7219 24.8302 54.6662 25.1992C54.6067 25.5593 54.4603 25.8875 54.2269 26.1838C54.0024 26.4763 53.7261 26.7328 53.3978 26.9532C53.0785 27.1699 52.7442 27.3509 52.395 27.4963Z" fill="#1E1E1E"/>
<path d="M63.2436 18.3998L61.7329 17.5854L62.5656 16.3998L61.1126 16.3097L61.4053 14.6282L62.8018 15.0484L62.4289 13.6503L64.1442 13.4108L64.1712 14.8572L65.3836 14.0726L66.1432 15.6071L64.771 16.0918L65.8842 17.0056L64.6562 18.2025L63.7886 17.0493L63.2436 18.3998Z" fill="#1E1E1E"/>
</svg>
