<svg width="55" height="55" viewBox="0 0 55 55" fill="none" xmlns="http://www.w3.org/2000/svg">
<path d="M0.00794352 52.7998L2.26172 55L10.9018 46.5654L8.64802 44.3652L0.00794352 52.7998Z" fill="#014E4E"/>
<path d="M8.64857 54.9892L10.9023 52.7891L2.26227 44.3545L0.00849384 46.5547L8.64857 54.9892Z" fill="#014E4E"/>
<path d="M0.00403727 30.628L2.25781 32.8281L10.8979 24.3935L8.64411 22.1934L0.00403727 30.628Z" fill="#014E4E"/>
<path d="M8.64466 32.8174L10.8984 30.6172L2.25836 22.1826L0.00458759 24.3828L8.64466 32.8174Z" fill="#014E4E"/>
<path d="M0.000131019 8.44827L2.25391 10.6484L10.894 2.21386L8.64021 0.0136827L0.000131019 8.44827Z" fill="#014E4E"/>
<path d="M8.64857 10.6377L10.9023 8.4375L2.26227 0.00291752L0.00849384 2.20309L8.64857 10.6377Z" fill="#014E4E"/>
<path d="M22.8556 52.7842L25.1094 54.9844L33.7494 46.5498L31.4957 44.3496L22.8556 52.7842Z" fill="#014E4E"/>
<path d="M31.4845 54.997L33.7383 52.7969L25.0982 44.3623L22.8444 46.5625L31.4845 54.997Z" fill="#014E4E"/>
<path d="M22.8556 30.6201L25.1094 32.8203L33.7494 24.3857L31.4957 22.1856L22.8556 30.6201Z" fill="#014E4E"/>
<path d="M31.4845 32.833L33.7383 30.6328L25.0982 22.1982L22.8444 24.3984L31.4845 32.833Z" fill="#014E4E"/>
<path d="M22.8439 8.44827L25.0977 10.6484L33.7377 2.21386L31.484 0.0136879L22.8439 8.44827Z" fill="#014E4E"/>
<path d="M31.4845 10.6455L33.7383 8.44531L25.0982 0.01073L22.8444 2.2109L31.4845 10.6455Z" fill="#014E4E"/>
<path d="M44.1056 52.7998L46.3594 55L54.9994 46.5654L52.7457 44.3653L44.1056 52.7998Z" fill="#014E4E"/>
<path d="M52.7423 54.9892L54.9961 52.7891L46.356 44.3545L44.1022 46.5546L52.7423 54.9892Z" fill="#014E4E"/>
<path d="M44.1017 30.628L46.3555 32.8281L54.9955 24.3935L52.7418 22.1934L44.1017 30.628Z" fill="#014E4E"/>
<path d="M52.7423 32.8174L54.9961 30.6172L46.356 22.1826L44.1022 24.3828L52.7423 32.8174Z" fill="#014E4E"/>
<path d="M44.0939 8.44827L46.3477 10.6484L54.9877 2.21386L52.734 0.0136879L44.0939 8.44827Z" fill="#014E4E"/>
<path d="M52.7423 10.6377L54.9961 8.4375L46.356 0.00291752L44.1022 2.20308L52.7423 10.6377Z" fill="#014E4E"/>
</svg>
