<svg width="21" height="20" viewBox="0 0 21 20" fill="none" xmlns="http://www.w3.org/2000/svg">
<g clip-path="url(#clip0_208_98)">
<path d="M11.8908 0.156696C11.942 0.168941 11.942 0.168941 11.9942 0.181434C13.3654 0.516029 14.5337 1.22998 15.5236 2.22701C15.5429 2.24638 15.5622 2.26576 15.582 2.28572C16.8883 3.61757 17.5263 5.51922 17.5256 7.35793C17.48 10.3268 15.6577 13.2063 14.0393 15.5864C14.0074 15.6335 14.0074 15.6335 13.9749 15.6815C13.5469 16.3141 13.0968 16.9282 12.6247 17.5285C12.5292 17.6504 12.4345 17.7728 12.3398 17.8952C12.0308 18.294 11.7138 18.685 11.3866 19.0689C11.2696 19.2065 11.1562 19.3464 11.0437 19.4877C10.8862 19.6815 10.7115 19.887 10.4846 20.0004C10.4099 20.0073 10.3349 20.0109 10.26 20.0127C10.2199 20.0141 10.1798 20.0156 10.1385 20.0171C9.88052 19.9821 9.71995 19.7922 9.55441 19.6074C9.53396 19.5849 9.51351 19.5623 9.49244 19.5391C9.34215 19.3724 9.19796 19.2013 9.05743 19.0262C8.98381 18.9348 8.9095 18.8443 8.83434 18.7543C8.58714 18.4576 8.34689 18.1578 8.11736 17.8472C7.98619 17.6702 7.85022 17.498 7.71114 17.3271C7.48068 17.0427 7.27083 16.7457 7.06223 16.4451C7.01336 16.3753 6.96383 16.306 6.91372 16.237C5.23565 13.9248 3.51647 11.1892 3.06271 8.32076C3.05819 8.29246 3.05367 8.26416 3.04901 8.235C2.77451 6.44299 3.24348 4.50446 4.30874 3.03832C4.33583 3.00262 4.36292 2.96692 4.39083 2.93013C4.41551 2.89725 4.44018 2.86437 4.4656 2.83049C5.51771 1.47314 6.94338 0.560863 8.60958 0.156696C8.64253 0.148425 8.67548 0.140154 8.70943 0.131633C9.7189 -0.112371 10.8854 -0.0948011 11.8908 0.156696ZM7.75021 4.60982C7.72538 4.63137 7.70056 4.65292 7.67498 4.67513C6.99548 5.3062 6.66842 6.24179 6.61007 7.14507C6.58607 8.16636 7.004 9.0863 7.6907 9.82573C8.16524 10.2907 8.74982 10.6089 9.39083 10.7817C9.4219 10.7905 9.45297 10.7992 9.48498 10.8082C10.3778 11.0148 11.3683 10.8255 12.1434 10.3494C12.9875 9.78832 13.5721 8.99907 13.8049 8.00826C13.9953 7.05529 13.8353 6.06212 13.2907 5.24482C12.6839 4.38515 11.8637 3.87122 10.8444 3.64852C9.67613 3.50639 8.63325 3.82926 7.75021 4.60982Z" fill="white"/>
</g>
<defs>
<clipPath id="clip0_208_98">
<rect width="20" height="20" fill="white" transform="translate(0.25)"/>
</clipPath>
</defs>
</svg>
