<svg width="21" height="20" viewBox="0 0 21 20" fill="none" xmlns="http://www.w3.org/2000/svg">
<path d="M13.257 12.8237C13.781 12.9983 14.3473 12.7152 14.5219 12.1912C14.6966 11.6673 14.4134 11.101 13.8895 10.9263L13.257 12.8237ZM10.7607 10.9375H9.76074C9.76074 11.3679 10.0362 11.7501 10.4445 11.8862L10.7607 10.9375ZM11.7607 7.01739C11.7607 6.46511 11.313 6.01739 10.7607 6.01739C10.2085 6.01739 9.76074 6.46511 9.76074 7.01739H11.7607ZM13.8895 10.9263L11.077 9.98882L10.4445 11.8862L13.257 12.8237L13.8895 10.9263ZM11.7607 10.9375V7.01739H9.76074V10.9375H11.7607ZM17.2607 10C17.2607 13.5899 14.3506 16.5 10.7607 16.5V18.5C15.4552 18.5 19.2607 14.6944 19.2607 10H17.2607ZM10.7607 16.5C7.17089 16.5 4.26074 13.5899 4.26074 10H2.26074C2.26074 14.6944 6.06632 18.5 10.7607 18.5V16.5ZM4.26074 10C4.26074 6.41015 7.17089 3.5 10.7607 3.5V1.5C6.06632 1.5 2.26074 5.30558 2.26074 10H4.26074ZM10.7607 3.5C14.3506 3.5 17.2607 6.41015 17.2607 10H19.2607C19.2607 5.30558 15.4552 1.5 10.7607 1.5V3.5Z" fill="white"/>
</svg>
