<svg width="50" height="51" viewBox="0 0 50 51" fill="none" xmlns="http://www.w3.org/2000/svg">
<g clip-path="url(#clip0_170_9955)">
<path d="M4.8572 21.2925H8.42862C8.90223 21.2925 9.35643 21.4806 9.69131 21.8155C10.0262 22.1504 10.2143 22.6046 10.2143 23.0782V32.0068C10.2143 32.4804 10.0262 32.9346 9.69131 33.2695C9.35643 33.6043 8.90223 33.7925 8.42862 33.7925H4.8572C3.90999 33.7925 3.00159 33.4162 2.33181 32.7464C1.66204 32.0767 1.28577 31.1683 1.28577 30.2211V24.8639C1.28577 23.9167 1.66204 23.0083 2.33181 22.3385C3.00159 21.6688 3.90999 21.2925 4.8572 21.2925V21.2925Z" stroke="#014E4E" stroke-width="2" stroke-linecap="round" stroke-linejoin="round"/>
<path d="M44.1429 33.7925H40.5715C40.0979 33.7925 39.6437 33.6043 39.3088 33.2695C38.9739 32.9346 38.7858 32.4804 38.7858 32.0068V23.0782C38.7858 22.6046 38.9739 22.1504 39.3088 21.8155C39.6437 21.4806 40.0979 21.2925 40.5715 21.2925H44.1429C45.0901 21.2925 45.9985 21.6688 46.6683 22.3385C47.3381 23.0083 47.7144 23.9167 47.7144 24.8639V30.2211C47.7144 31.1683 47.3381 32.0767 46.6683 32.7464C45.9985 33.4162 45.0901 33.7925 44.1429 33.7925V33.7925Z" stroke="#014E4E" stroke-width="2" stroke-linecap="round" stroke-linejoin="round"/>
<path d="M33.4286 43.6139C35.323 43.6139 37.1398 42.8614 38.4794 41.5218C39.8189 40.1823 40.5714 38.3655 40.5714 36.4711V33.7925" stroke="#014E4E" stroke-width="2" stroke-linecap="round" stroke-linejoin="round"/>
<path d="M28.9644 39.1494C30.1484 39.1494 31.2839 39.6198 32.1211 40.457C32.9583 41.2942 33.4287 42.4297 33.4287 43.6137C33.4287 44.7977 32.9583 45.9332 32.1211 46.7704C31.2839 47.6076 30.1484 48.078 28.9644 48.078H23.6072C22.4232 48.078 21.2877 47.6076 20.4505 46.7704C19.6133 45.9332 19.1429 44.7977 19.1429 43.6137C19.1429 42.4297 19.6133 41.2942 20.4505 40.457C21.2877 39.6198 22.4232 39.1494 23.6072 39.1494H28.9644Z" stroke="#014E4E" stroke-width="2" stroke-linecap="round" stroke-linejoin="round"/>
<path d="M8.42859 21.2923V17.7208C8.42859 13.4584 10.1218 9.3706 13.1358 6.35663C16.1498 3.34265 20.2376 1.64941 24.5 1.64941C28.7624 1.64941 32.8503 3.34265 35.8642 6.35663C38.8782 9.3706 40.5714 13.4584 40.5714 17.7208V21.2923" stroke="#014E4E" stroke-width="2" stroke-linecap="round" stroke-linejoin="round"/>
<path d="M19.1429 14.1494V19.5066" stroke="#014E4E" stroke-width="2" stroke-linecap="round" stroke-linejoin="round"/>
<path d="M29.8572 14.1494V19.5066" stroke="#014E4E" stroke-width="2" stroke-linecap="round" stroke-linejoin="round"/>
<path d="M19.1429 26.6494C19.1429 31.3994 29.8572 31.3994 29.8572 26.6494" stroke="#014E4E" stroke-width="2" stroke-linecap="round" stroke-linejoin="round"/>
</g>
<defs>
<clipPath id="clip0_170_9955">
<rect width="50" height="50" fill="white" transform="translate(0 0.300781)"/>
</clipPath>
</defs>
</svg>
