<svg width="50" height="51" viewBox="0 0 50 51" fill="none" xmlns="http://www.w3.org/2000/svg">
<g clip-path="url(#clip0_170_9975)">
<path d="M47.9643 13.685C47.8953 13.3107 47.7483 12.9551 47.533 12.6414C47.3176 12.3276 47.0387 12.0626 46.7143 11.8636L39.5714 19.0064C39.2383 19.3521 38.8389 19.627 38.397 19.8148C37.9552 20.0026 37.4801 20.0994 37 20.0994C36.5199 20.0994 36.0448 20.0026 35.603 19.8148C35.1612 19.627 34.7617 19.3521 34.4286 19.0064L31.7143 16.5778C31.0599 15.9102 30.6934 15.0127 30.6934 14.0778C30.6934 13.143 31.0599 12.2455 31.7143 11.5778L38.8571 4.43499C38.7014 4.06905 38.4671 3.74181 38.1708 3.47644C37.8746 3.21106 37.5237 3.01403 37.1429 2.89928C34.6506 2.40227 32.0689 2.61502 29.6917 3.51329C27.3144 4.41155 25.2371 5.95925 23.6963 7.98017C22.1555 10.0011 21.2131 12.414 20.9763 14.9443C20.7396 17.4746 21.218 20.0204 22.3571 22.2921L2.85715 41.6136C2.51698 41.9462 2.2467 42.3434 2.06218 42.7819C1.87765 43.2204 1.78259 43.6914 1.78259 44.1671C1.78259 44.6429 1.87765 45.1138 2.06218 45.5524C2.2467 45.9909 2.51698 46.3881 2.85715 46.7207L4.14286 48.0064C4.47547 48.3466 4.8727 48.6169 5.31121 48.8014C5.74972 48.9859 6.22068 49.081 6.69643 49.081C7.17219 49.081 7.64315 48.9859 8.08166 48.8014C8.52017 48.6169 8.91739 48.3466 9.25 48.0064L28.75 28.5421C31.0223 29.6247 33.5503 30.0559 36.053 29.7876C38.5557 29.5193 40.9349 28.5621 42.9261 27.0224C44.9173 25.4828 46.4424 23.421 47.3318 21.0664C48.2213 18.7118 48.4402 16.1566 47.9643 13.685V13.685Z" stroke="#014E4E" stroke-width="2" stroke-linecap="round" stroke-linejoin="round"/>
</g>
<defs>
<clipPath id="clip0_170_9975">
<rect width="50" height="50" fill="white" transform="translate(0 0.86377)"/>
</clipPath>
</defs>
</svg>
