<svg width="31" height="31" viewBox="0 0 31 31" fill="none" xmlns="http://www.w3.org/2000/svg">
<g clip-path="url(#clip0_140_97)">
<path d="M7.72709 12.9312C10.9816 12.9312 13.6199 10.2929 13.6199 7.03836C13.6199 3.78383 10.9816 1.14551 7.72709 1.14551C4.47255 1.14551 1.83423 3.78383 1.83423 7.03836C1.83423 10.2929 4.47255 12.9312 7.72709 12.9312Z" stroke="white" stroke-width="1.5" stroke-linecap="round" stroke-linejoin="round"/>
<path d="M23.7986 12.9312C27.0532 12.9312 29.6915 10.2929 29.6915 7.03836C29.6915 3.78383 27.0532 1.14551 23.7986 1.14551C20.5441 1.14551 17.9058 3.78383 17.9058 7.03836C17.9058 10.2929 20.5441 12.9312 23.7986 12.9312Z" stroke="white" stroke-width="1.5" stroke-linecap="round" stroke-linejoin="round"/>
<path d="M7.72709 29.0025C10.9816 29.0025 13.6199 26.3642 13.6199 23.1097C13.6199 19.8551 10.9816 17.2168 7.72709 17.2168C4.47255 17.2168 1.83423 19.8551 1.83423 23.1097C1.83423 26.3642 4.47255 29.0025 7.72709 29.0025Z" stroke="white" stroke-width="1.5" stroke-linecap="round" stroke-linejoin="round"/>
<path d="M23.7986 29.0025C27.0532 29.0025 29.6915 26.3642 29.6915 23.1097C29.6915 19.8551 27.0532 17.2168 23.7986 17.2168C20.5441 17.2168 17.9058 19.8551 17.9058 23.1097C17.9058 26.3642 20.5441 29.0025 23.7986 29.0025Z" stroke="white" stroke-width="1.5" stroke-linecap="round" stroke-linejoin="round"/>
</g>
<defs>
<clipPath id="clip0_140_97">
<rect width="30" height="30" fill="white" transform="translate(0.762695 0.0742188)"/>
</clipPath>
</defs>
</svg>
