<svg width="31" height="31" viewBox="0 0 31 31" fill="none" xmlns="http://www.w3.org/2000/svg">
<g clip-path="url(#clip0_140_23)">
<path d="M7.33158 13.3179C10.5861 13.3179 13.2244 10.6796 13.2244 7.42508C13.2244 4.17055 10.5861 1.53223 7.33158 1.53223C4.07704 1.53223 1.43872 4.17055 1.43872 7.42508C1.43872 10.6796 4.07704 13.3179 7.33158 13.3179Z" stroke="#014E4E" stroke-width="1.5" stroke-linecap="round" stroke-linejoin="round"/>
<path d="M23.4031 13.3179C26.6576 13.3179 29.296 10.6796 29.296 7.42508C29.296 4.17055 26.6576 1.53223 23.4031 1.53223C20.1486 1.53223 17.5103 4.17055 17.5103 7.42508C17.5103 10.6796 20.1486 13.3179 23.4031 13.3179Z" stroke="#014E4E" stroke-width="1.5" stroke-linecap="round" stroke-linejoin="round"/>
<path d="M7.33158 29.3892C10.5861 29.3892 13.2244 26.7509 13.2244 23.4964C13.2244 20.2418 10.5861 17.6035 7.33158 17.6035C4.07704 17.6035 1.43872 20.2418 1.43872 23.4964C1.43872 26.7509 4.07704 29.3892 7.33158 29.3892Z" stroke="#014E4E" stroke-width="1.5" stroke-linecap="round" stroke-linejoin="round"/>
<path d="M23.4031 29.3892C26.6576 29.3892 29.296 26.7509 29.296 23.4964C29.296 20.2418 26.6576 17.6035 23.4031 17.6035C20.1486 17.6035 17.5103 20.2418 17.5103 23.4964C17.5103 26.7509 20.1486 29.3892 23.4031 29.3892Z" stroke="#014E4E" stroke-width="1.5" stroke-linecap="round" stroke-linejoin="round"/>
</g>
<defs>
<clipPath id="clip0_140_23">
<rect width="30" height="30" fill="white" transform="translate(0.367188 0.460938)"/>
</clipPath>
</defs>
</svg>
