<svg width="36" height="36" viewBox="0 0 36 36" fill="none" xmlns="http://www.w3.org/2000/svg">
<path d="M24.7148 2.47411C26.0907 3.63878 26.9885 5.29043 27.1406 7.10155C27.1934 8.20584 27.1951 9.27592 26.8593 10.3359C26.8373 10.4081 26.8373 10.4081 26.8148 10.4818C26.4874 11.5275 25.9345 12.3617 25.1718 13.1484C25.1151 13.2129 25.1151 13.2129 25.0573 13.2786C24.8663 13.4883 24.6745 13.648 24.4302 13.7917C24.3854 13.8184 24.3405 13.845 24.2943 13.8725C24.2041 13.925 24.1127 13.9756 24.0203 14.0241C23.8733 14.1032 23.8733 14.1032 23.6953 14.2734C23.6505 14.4768 23.6716 14.6236 23.6953 14.8359C23.7003 14.8896 23.7054 14.9432 23.7106 14.9985C23.7172 15.0377 23.7237 15.0768 23.7304 15.1172C23.742 15.1868 23.7536 15.2564 23.7656 15.3281C23.8468 15.2933 23.928 15.2585 24.0117 15.2226C24.3577 15.0743 24.7039 15.0476 25.0565 15.179C25.2335 15.2638 25.4047 15.3554 25.5761 15.4512C25.6349 15.4823 25.6938 15.5135 25.7544 15.5456C26.1937 15.7839 26.1937 15.7839 26.3663 15.9755C26.5965 16.1807 26.8735 16.1904 27.1713 16.2378C28.1118 16.4086 28.8581 16.6778 29.6015 17.2969C29.6708 17.3542 29.6708 17.3542 29.7416 17.4128C30.6615 18.2509 31.0145 19.6358 31.0936 20.8375C31.1019 21.0872 31.1047 21.3361 31.1044 21.5859C31.1045 21.6743 31.1046 21.7626 31.1047 21.8536C31.0962 22.6105 30.9874 23.3161 30.7968 24.0469C30.8479 24.0266 30.8991 24.0063 30.9517 23.9853C31.6281 23.7356 32.2823 23.6344 32.9702 23.9043C33.5272 24.1781 33.8268 24.5492 34.1015 25.1016C34.2921 25.6733 34.2468 26.3625 33.9916 26.9033C33.668 27.5156 33.1138 27.7999 32.5151 28.0986C32.3699 28.1726 32.2248 28.2468 32.0798 28.3211C31.9697 28.3773 31.9697 28.3773 31.8575 28.4346C31.5243 28.607 31.1957 28.7876 30.8671 28.9687C30.3431 29.2567 29.816 29.5374 29.2851 29.8125C28.7514 30.0891 28.2213 30.3714 27.6943 30.6606C27.4395 30.8 27.1846 30.9391 26.9296 31.0781C26.8652 31.1133 26.8008 31.1484 26.7344 31.1846C25.4781 31.8668 24.3314 32.3734 22.8754 32.3668C22.7994 32.3665 22.7233 32.3663 22.6449 32.366C21.825 32.3545 21.0279 32.2424 20.2192 32.1155C20.0624 32.0919 19.9057 32.0684 19.7489 32.0451C19.3421 31.9841 18.9355 31.9217 18.529 31.8589C18.1144 31.7951 17.6996 31.7327 17.2847 31.6701C16.8183 31.5998 16.3519 31.5294 15.8856 31.4578C15.815 31.447 15.7444 31.4362 15.6716 31.4251C15.541 31.4051 15.4104 31.385 15.2799 31.3647C13.882 31.151 12.6057 31.1523 11.2903 31.7118C11.1093 31.7812 11.1093 31.7812 10.8984 31.7812C10.8966 31.834 10.8948 31.8867 10.8929 31.9411C10.8453 32.8006 10.5895 33.4104 9.98432 34.0312C9.29341 34.6217 8.57183 34.8839 7.66401 34.875C6.82678 34.8071 6.19628 34.4127 5.64795 33.7907C5.39621 33.4911 5.16626 33.1747 4.93528 32.859C4.70712 32.5474 4.47019 32.2433 4.23188 31.9394C3.87279 31.48 3.51863 31.017 3.1684 30.5508C3.10487 30.4664 3.10487 30.4664 3.04005 30.3803C2.82514 30.0932 2.61341 29.8041 2.4054 29.512C2.36619 29.457 2.32698 29.4019 2.28658 29.3452C1.87163 28.703 1.8251 28.023 1.89838 27.2812C2.07618 26.4661 2.57918 25.8763 3.23432 25.3828C3.8529 24.9986 4.56841 24.7721 5.29618 24.9249C5.40208 24.9507 5.50763 24.978 5.61259 25.0073C5.98667 25.0658 6.26928 24.893 6.58295 24.7104C6.63008 24.6835 6.6772 24.6566 6.72576 24.6289C7.26103 24.3212 7.79005 24.0028 8.32048 23.6869C10.0789 22.6406 10.0789 22.6406 10.3359 22.6406C10.3127 22.5942 10.2895 22.5478 10.2656 22.5C10.1317 20.7314 10.3475 18.9357 11.5092 17.5298C12.2589 16.7232 13.2724 16.3729 14.3354 16.2207C14.7185 16.1575 14.9255 16.0555 15.2051 15.7879C15.4189 15.5997 15.6687 15.4902 15.9257 15.3721C16.0017 15.3347 16.0017 15.3347 16.0793 15.2965C16.4573 15.1195 16.7715 15.0513 17.1867 15.1633C17.3824 15.2457 17.3824 15.2457 17.5781 15.3281C17.6013 14.9801 17.6245 14.632 17.6484 14.2734C17.5353 14.2053 17.4222 14.1371 17.3056 14.0669C16.8858 13.7998 16.5307 13.4913 16.1718 13.1484C16.1286 13.1104 16.0854 13.0725 16.0408 13.0333C14.9161 12.0069 14.2858 10.264 14.1885 8.7782C14.1818 8.54285 14.1799 8.30819 14.1811 8.07274C14.1815 7.98909 14.1819 7.90545 14.1823 7.81927C14.2098 5.82254 14.9475 4.14122 16.3297 2.72048C18.6142 0.570196 22.2978 0.572398 24.7148 2.47411ZM16.9744 3.75649C16.2714 4.50606 15.539 5.62457 15.539 6.67968C16.7919 6.72587 17.6896 6.54741 18.7995 5.96282C19.3696 5.67107 19.9504 5.58861 20.5798 5.74117C20.7787 5.81191 20.9706 5.892 21.164 5.97655C21.3614 6.06086 21.5592 6.14419 21.7573 6.22704C21.8086 6.24854 21.8599 6.27003 21.9128 6.29218C22.7318 6.62898 23.5423 6.76254 24.4248 6.76317C24.4877 6.76403 24.5506 6.76489 24.6154 6.76578C25.033 6.76669 25.4001 6.71358 25.8046 6.60936C25.7206 6.06964 25.5626 5.61844 25.3124 5.1328C25.2769 5.06373 25.2414 4.99467 25.2048 4.92351C24.5233 3.67943 23.4954 2.89225 22.1536 2.46587C20.2707 1.94215 18.3939 2.42933 16.9744 3.75649ZM19.1601 7.07958C18.4033 7.48135 17.6025 7.79587 16.7373 7.82692C16.6201 7.83134 16.6201 7.83134 16.5004 7.83585C16.4196 7.83861 16.3387 7.84138 16.2553 7.84423C16.1731 7.84726 16.0908 7.8503 16.0061 7.85343C15.8035 7.86087 15.601 7.86805 15.3984 7.87499C15.3193 9.38449 15.7466 10.8803 16.7563 12.0322C16.8651 12.1475 16.9749 12.2618 17.0859 12.375C17.1327 12.4243 17.1794 12.4736 17.2276 12.5244C18.1346 13.4107 19.4285 13.8013 20.6718 13.8164C22.0683 13.7994 23.393 13.2904 24.3984 12.3047C25.5696 11.0272 26.0009 9.50679 25.9453 7.80468C25.8582 7.81591 25.7712 7.82715 25.6816 7.83873C23.9914 8.02492 22.4354 7.80882 20.8874 7.12105C20.8436 7.10159 20.7997 7.08213 20.7545 7.06209C20.6361 7.00859 20.5185 6.95324 20.401 6.89775C19.9158 6.728 19.5918 6.83773 19.1601 7.07958ZM18.914 14.7656C18.75 14.9296 18.775 15.2962 18.7451 15.5182C18.7066 15.7304 18.6505 15.9055 18.5624 16.1016C19.0199 16.4464 19.4884 16.7695 19.9687 17.0815C20.0209 17.1156 20.073 17.1497 20.1267 17.1847C20.1761 17.2166 20.2255 17.2484 20.2763 17.2812C20.3204 17.3097 20.3644 17.3381 20.4098 17.3674C20.5411 17.4486 20.5411 17.4486 20.7421 17.5078C20.9015 17.4211 21.0447 17.3323 21.1934 17.2298C21.2368 17.2006 21.2802 17.1713 21.3249 17.1412C21.4166 17.0791 21.508 17.0167 21.5992 16.9539C21.7392 16.8577 21.8802 16.7632 22.0214 16.6687C22.1102 16.6083 22.1989 16.5478 22.2876 16.4872C22.3512 16.4446 22.3512 16.4446 22.4161 16.4012C22.5468 16.3128 22.5468 16.3128 22.7109 16.1719C22.7109 15.9879 22.6918 15.8554 22.6494 15.6789C22.6367 15.6256 22.624 15.5724 22.6109 15.5175C22.5975 15.4622 22.5841 15.407 22.5703 15.3501C22.5568 15.294 22.5434 15.238 22.5296 15.1802C22.4965 15.042 22.4631 14.9038 22.4296 14.7656C22.3698 14.7758 22.31 14.7859 22.2484 14.7964C21.1949 14.9577 20.1543 14.9624 19.1021 14.7895C19.009 14.7777 19.009 14.7777 18.914 14.7656ZM16.2685 16.5454C16.2125 16.5756 16.1565 16.6058 16.0988 16.6369C15.9395 16.7291 15.9395 16.7291 15.8906 16.9453C15.9617 17.1202 15.9617 17.1202 16.0743 17.3084C16.1154 17.381 16.1564 17.4535 16.1988 17.5283C16.2435 17.6056 16.2883 17.683 16.3344 17.7627C16.3794 17.8417 16.4244 17.9207 16.4708 18.002C16.7866 18.5549 17.1078 19.1046 17.4328 19.6521C17.6045 19.9418 17.7683 20.2355 17.9296 20.5312C18.1568 20.4314 18.3081 20.3107 18.4825 20.1352C18.5333 20.0842 18.5841 20.0333 18.6365 19.9808C18.6889 19.9275 18.7413 19.8742 18.7954 19.8193C18.847 19.7677 18.8986 19.716 18.9518 19.6628C19.2032 19.4094 19.4503 19.1524 19.6905 18.8882C19.7306 18.8441 19.7708 18.8 19.8122 18.7545C19.9187 18.629 19.9187 18.629 19.8984 18.4219C19.7408 18.2977 19.586 18.1887 19.418 18.0802C19.3683 18.0473 19.3187 18.0145 19.2675 17.9806C19.1076 17.875 18.9471 17.7705 18.7866 17.666C18.6813 17.5967 18.576 17.5273 18.4708 17.4578C18.2194 17.2921 17.9671 17.1276 17.7145 16.9638C17.5884 16.8817 17.4628 16.7989 17.3374 16.7158C17.2686 16.6708 17.1998 16.6258 17.129 16.5795C17.0414 16.5216 17.0414 16.5216 16.9519 16.4627C16.6803 16.3154 16.52 16.4066 16.2685 16.5454ZM24.1592 16.5666C24.0987 16.6068 24.0382 16.6469 23.9759 16.6883C23.9112 16.7322 23.8465 16.7762 23.7799 16.8214C23.6798 16.8886 23.6798 16.8886 23.5777 16.9571C23.4368 17.0518 23.2962 17.147 23.1557 17.2424C22.9399 17.3888 22.7232 17.5337 22.5063 17.6785C22.3697 17.7707 22.2332 17.8629 22.0967 17.9552C22.0315 17.9987 21.9662 18.0422 21.899 18.0871C21.8096 18.1483 21.8096 18.1483 21.7183 18.2107C21.6655 18.2465 21.6126 18.2822 21.5581 18.3191C21.5209 18.353 21.4836 18.3869 21.4453 18.4219C21.4228 18.6293 21.4228 18.6293 21.5356 18.7413C21.5975 18.7985 21.5975 18.7985 21.6606 18.8569C21.8377 19.0262 22.0034 19.1972 22.1616 19.3843C22.5091 19.7884 22.8939 20.1574 23.2734 20.5312C23.4815 20.338 23.6205 20.1562 23.7524 19.9053C23.7884 19.8376 23.8245 19.7698 23.8616 19.7001C23.8995 19.6278 23.9374 19.5554 23.9765 19.4809C24.3215 18.8323 24.6764 18.191 25.0464 17.5563C25.202 17.2877 25.3505 17.0288 25.4531 16.7344C25.3421 16.6751 25.2307 16.6166 25.1191 16.5586C25.0571 16.526 24.9951 16.4933 24.9312 16.4597C24.6099 16.3234 24.4332 16.383 24.1592 16.5666ZM12.131 18.6215C11.584 19.4372 11.4649 20.3837 11.4081 21.3398C11.4041 21.4021 11.4001 21.4644 11.396 21.5285C11.3931 21.5873 11.3902 21.6462 11.3873 21.7068C11.3845 21.7597 11.3817 21.8125 11.3788 21.867C11.381 22.0303 11.381 22.0303 11.5312 22.2187C11.5774 22.2091 11.6236 22.1996 11.6712 22.1897C13.5921 21.8127 15.4218 22.2599 17.2983 22.6659C17.5739 22.7251 17.8498 22.7824 18.1258 22.8396C18.4531 22.9074 18.7803 22.9761 19.1074 23.0449C19.167 23.0574 19.2267 23.0699 19.2882 23.0828C19.9149 23.215 20.5372 23.3577 21.1552 23.5264C21.2073 23.5404 21.2593 23.5544 21.313 23.5689C21.9023 23.7341 22.2732 23.9494 22.601 24.4687C22.8655 24.9597 22.9507 25.394 22.9921 25.9453C24.0542 26.4432 25.3895 26.1026 26.437 25.7326C26.8221 25.5926 27.2055 25.4485 27.5888 25.3037C27.7485 25.2442 27.9081 25.1848 28.0678 25.1254C28.3573 25.0176 28.6466 24.9095 28.9356 24.8005C28.9931 24.7788 29.0506 24.7571 29.1098 24.7348C29.2519 24.6813 29.2519 24.6813 29.3906 24.6094C29.4491 24.4409 29.4491 24.4409 29.4941 24.2353C29.5124 24.1584 29.5306 24.0816 29.5495 24.0024C29.5774 23.8808 29.5774 23.8808 29.6059 23.7568C29.6248 23.6774 29.6437 23.598 29.6632 23.5162C30.0281 21.962 30.0844 20.163 29.2211 18.752C28.6634 17.9638 27.9235 17.6081 26.9986 17.3941C26.7769 17.3656 26.6488 17.3666 26.4374 17.4375C26.3077 17.5935 26.3077 17.5935 26.207 17.7978C26.1656 17.8743 26.1241 17.9508 26.0815 18.0296C26.0375 18.1135 25.9936 18.1973 25.9497 18.2812C25.9037 18.3668 25.8575 18.4524 25.8113 18.5378C25.7156 18.7148 25.6204 18.8921 25.5257 19.0696C25.3043 19.4834 25.0755 19.8931 24.8466 20.3027C24.8068 20.375 24.7669 20.4472 24.7258 20.5216C24.1108 21.6264 24.1108 21.6264 23.7656 21.7266C23.5733 21.7551 23.5733 21.7551 23.3613 21.7617C23.292 21.7653 23.2228 21.769 23.1514 21.7727C22.5919 21.6602 22.2001 21.1576 21.832 20.751C21.7404 20.6515 21.6488 20.552 21.557 20.4527C21.5137 20.4056 21.4704 20.3585 21.4257 20.3099C21.2047 20.0722 20.975 19.8433 20.7421 19.6172C20.4898 19.7242 20.3282 19.8733 20.1357 20.0668C20.0744 20.1282 20.0131 20.1896 19.95 20.2529C19.8866 20.3172 19.8231 20.3815 19.7578 20.4477C19.6943 20.5112 19.6309 20.5747 19.5655 20.6401C19.2215 20.9846 19.2215 20.9846 18.9041 21.3531C18.707 21.5981 18.5296 21.7104 18.2178 21.757C18.1121 21.7572 18.1121 21.7572 18.0043 21.7573C17.899 21.7594 17.899 21.7594 17.7915 21.7614C17.505 21.7146 17.3766 21.6373 17.1562 21.4453C16.9956 21.217 16.8655 20.975 16.7343 20.729C16.6544 20.5834 16.5745 20.4379 16.4945 20.2923C16.4534 20.2164 16.4122 20.1406 16.3698 20.0625C16.1563 19.6705 15.9375 19.2815 15.7192 18.8921C15.6594 18.7847 15.6594 18.7847 15.5985 18.6752C15.5224 18.5388 15.4459 18.4028 15.3688 18.2671C15.2933 18.1333 15.2196 17.9985 15.1476 17.8628C15.1121 17.7983 15.0765 17.7338 15.04 17.6674C14.9936 17.5806 14.9936 17.5806 14.9463 17.4921C14.8442 17.3488 14.8442 17.3488 14.6625 17.3453C13.687 17.4649 12.7563 17.8384 12.131 18.6215ZM8.34537 25.059C8.05165 25.2342 7.75678 25.4074 7.46186 25.5806C7.3639 25.6381 7.26593 25.6957 7.16797 25.7533C7.09963 25.7935 7.03129 25.8336 6.96088 25.875C7.24136 26.2503 7.52409 26.6237 7.80903 26.9956C7.88969 27.101 7.97034 27.2063 8.051 27.3117C8.0918 27.365 8.1326 27.4183 8.17463 27.4732C8.40553 27.7748 8.6362 28.0766 8.86691 28.3783C9.06343 28.6353 9.26001 28.8923 9.4567 29.1492C9.49722 29.2021 9.53773 29.2551 9.57947 29.3096C9.65608 29.4097 9.73271 29.5097 9.80936 29.6098C10.0572 29.9337 10.3027 30.2593 10.5468 30.5859C10.8073 30.5406 11.0554 30.4699 11.3077 30.3915C12.9512 29.884 14.4416 30.0203 16.1191 30.2695C16.2947 30.2948 16.4702 30.32 16.6458 30.3452C17.4567 30.4619 18.2669 30.583 19.0765 30.7084C19.4159 30.7609 19.7554 30.8128 20.0949 30.8647C20.3306 30.9012 20.5661 30.939 20.8015 30.9769C22.5534 31.2514 23.9596 31.2511 25.5511 30.4016C25.768 30.2869 25.9862 30.175 26.2045 30.0633C27.0625 29.6237 27.9156 29.177 28.7601 28.712C29.2131 28.463 29.6699 28.2222 30.1289 27.9844C30.6849 27.6957 31.2389 27.4036 31.79 27.1055C31.8546 27.0708 31.9191 27.0362 31.9857 27.0005C32.6026 26.6955 32.6026 26.6955 32.9765 26.1562C33.009 25.8204 33.0116 25.6627 32.8579 25.3608C32.6235 25.0885 32.4719 24.9751 32.1107 24.9351C31.6543 24.9429 31.2378 25.1353 30.8166 25.2949C30.7222 25.3299 30.6277 25.3648 30.5332 25.3996C30.2843 25.4916 30.0359 25.5846 29.7875 25.6778C29.3473 25.8429 28.9064 26.0061 28.4655 26.1694C28.418 26.1871 28.3704 26.2047 28.3214 26.2229C27.681 26.4602 27.0389 26.6905 26.3913 26.9077C26.3232 26.9307 26.255 26.9537 26.1848 26.9774C25.5516 27.1864 24.9839 27.2237 24.3193 27.2241C24.1969 27.2254 24.1969 27.2254 24.0721 27.2267C23.5897 27.2275 23.1481 27.1891 22.6777 27.0796C22.4948 27.0532 22.4948 27.0532 22.344 27.1657C22.2559 27.2501 22.1701 27.3368 22.086 27.4252C21.3841 28.0739 20.2057 28.0786 19.3095 28.1338C19.2627 28.1367 19.2159 28.1397 19.1677 28.1427C18.1456 28.2062 17.1253 28.2167 16.1015 28.1953C15.9998 28.1933 15.9998 28.1933 15.896 28.1912C15.7183 28.1868 15.5408 28.1807 15.3632 28.1733C15.3136 28.1718 15.264 28.1702 15.2129 28.1686C14.9182 28.1523 14.7164 28.0997 14.4843 27.9141C14.4166 27.6657 14.3871 27.5005 14.4711 27.2549C14.5546 27.1406 14.5546 27.1406 14.6953 27.0703C14.7947 27.0647 14.8944 27.0635 14.994 27.0645C15.0562 27.065 15.1185 27.0655 15.1826 27.0659C15.2845 27.0671 15.2845 27.0671 15.3885 27.0684C15.5343 27.0694 15.6801 27.0704 15.8258 27.0713C15.9025 27.0719 15.9791 27.0725 16.0581 27.0731C17.1591 27.0806 18.2588 27.0857 19.3579 27.0132C19.4379 27.0082 19.518 27.0033 19.6004 26.9982C20.3396 26.9422 21.1201 26.8591 21.6562 26.2969C21.8222 26.0253 21.8359 25.7646 21.7968 25.4531C21.6825 25.1557 21.5508 24.9512 21.3046 24.75C21.1089 24.6717 20.9081 24.6239 20.7031 24.5756C20.6144 24.5535 20.6144 24.5535 20.524 24.531C20.3391 24.4856 20.154 24.4417 19.9687 24.3984C19.9128 24.3853 19.857 24.3721 19.7995 24.3586C19.4084 24.2671 19.0164 24.1804 18.624 24.0952C18.5633 24.082 18.5027 24.0688 18.4403 24.0551C17.5339 23.8578 16.6261 23.6673 15.7163 23.4863C15.5942 23.462 15.4721 23.4374 15.35 23.4126C12.5206 22.8406 10.744 23.625 8.34537 25.059ZM3.34528 26.9074C3.13871 27.2076 3.08045 27.463 3.07172 27.8218C3.06909 27.8916 3.06647 27.9615 3.06376 28.0335C3.13494 28.5853 3.48821 28.9996 3.82758 29.4214C3.9158 29.5328 4.00396 29.6444 4.09208 29.7559C4.13661 29.812 4.18115 29.8682 4.22704 29.926C4.43226 30.1862 4.63317 30.4497 4.83393 30.7134C4.90945 30.8123 4.98498 30.9113 5.06052 31.0103C5.09643 31.0573 5.13233 31.1044 5.16932 31.1529C5.38106 31.43 5.59382 31.7063 5.80704 31.9823C5.92623 32.1376 6.04429 32.2934 6.16135 32.4503C6.1922 32.4913 6.22304 32.5323 6.25482 32.5745C6.33999 32.6878 6.42468 32.8014 6.50934 32.915C6.85254 33.3224 7.20549 33.5787 7.73432 33.6797C8.25983 33.7193 8.65904 33.4966 9.07026 33.1875C9.44495 32.8647 9.63773 32.4826 9.70307 31.9922C9.69062 31.451 9.46187 31.0751 9.14057 30.6562C9.09045 30.59 9.04033 30.5237 8.98868 30.4555C8.83976 30.2605 8.6896 30.0666 8.53893 29.8731C8.35591 29.637 8.17487 29.3995 7.9936 29.1621C7.91596 29.0606 7.83832 28.959 7.76069 28.8575C7.60084 28.6483 7.4412 28.439 7.28168 28.2296C7.09124 27.9797 6.90028 27.7302 6.70878 27.4811C6.62036 27.3659 6.53228 27.2505 6.44425 27.1351C6.05403 26.6329 5.71543 26.2047 5.06245 26.0859C4.38689 26.0141 3.77002 26.4045 3.34528 26.9074Z" fill="#014E4E"/>
</svg>
