<svg width="30" height="31" viewBox="0 0 30 31" fill="none" xmlns="http://www.w3.org/2000/svg">
<path d="M15.0004 19.2558C16.7756 19.2558 18.2147 17.8263 18.2147 16.063C18.2147 14.2996 16.7756 12.8701 15.0004 12.8701C13.2252 12.8701 11.7861 14.2996 11.7861 16.063C11.7861 17.8263 13.2252 19.2558 15.0004 19.2558Z" stroke="white" stroke-width="1.5" stroke-linecap="round" stroke-linejoin="round"/>
<path d="M28.6502 11.9488C28.1945 10.5628 27.2074 9.41434 25.9057 8.75546C24.604 8.09657 23.0941 7.98114 21.7074 8.43449C21.2124 8.57476 20.7424 8.79167 20.3145 9.07734C20.453 8.58193 20.5251 8.07031 20.5288 7.55592C20.5288 6.08965 19.9463 4.68343 18.9095 3.64662C17.8727 2.60982 16.4665 2.02734 15.0002 2.02734C13.5339 2.02734 12.1277 2.60982 11.0909 3.64662C10.0541 4.68343 9.47164 6.08965 9.47164 7.55592C9.47537 8.07031 9.54743 8.58193 9.68593 9.07734C9.25941 8.78415 8.78936 8.55998 8.29307 8.41306C7.60785 8.18934 6.88528 8.10278 6.16661 8.15832C5.44794 8.21385 4.74724 8.4104 4.10453 8.73673C3.46181 9.06306 2.88967 9.51279 2.42076 10.0602C1.95185 10.6077 1.59536 11.2421 1.37164 11.9273C1.14793 12.6126 1.06137 13.3351 1.1169 14.0538C1.17244 14.7725 1.36898 15.4732 1.69531 16.1159C2.02164 16.7586 2.47137 17.3308 3.01882 17.7997C3.56627 18.2686 4.20071 18.6251 4.88593 18.8488C5.38783 18.997 5.90595 19.0833 6.42879 19.1059C6.0294 19.4262 5.66971 19.7931 5.35736 20.1988C4.93072 20.7796 4.62368 21.4394 4.45406 22.1398C4.28443 22.8402 4.25559 23.5674 4.36922 24.2791C4.48285 24.9907 4.73668 25.6727 5.11598 26.2855C5.49528 26.8983 5.9925 27.4297 6.57879 27.8488C7.76354 28.7049 9.23823 29.0591 10.6826 28.8345C12.127 28.6098 13.4244 27.8244 14.2931 26.6488C14.5945 26.2286 14.8328 25.7666 15.0002 25.2773C15.1743 25.7678 15.4198 26.2299 15.7288 26.6488C16.5975 27.8244 17.8949 28.6098 19.3393 28.8345C20.7836 29.0591 22.2583 28.7049 23.4431 27.8488C24.0294 27.4297 24.5266 26.8983 24.9059 26.2855C25.2852 25.6727 25.539 24.9907 25.6526 24.2791C25.7663 23.5674 25.7374 22.8402 25.5678 22.1398C25.3982 21.4394 25.0911 20.7796 24.6645 20.1988C24.3522 19.7931 23.9925 19.4262 23.5931 19.1059C24.1087 19.0816 24.6195 18.9953 25.1145 18.8488C25.8011 18.6299 26.4376 18.2774 26.9874 17.8116C27.5372 17.3458 27.9895 16.7758 28.3181 16.1345C28.6467 15.4931 28.8452 14.7932 28.9022 14.0748C28.9592 13.3564 28.8736 12.6339 28.6502 11.9488V11.9488Z" stroke="white" stroke-width="1.5" stroke-linecap="round" stroke-linejoin="round"/>
</svg>
