<svg width="20" height="20" viewBox="0 0 20 20" fill="none" xmlns="http://www.w3.org/2000/svg">
<g clip-path="url(#clip0_510_432)">
<path d="M4.64342 8.57199C6.81311 8.57199 8.57199 6.81311 8.57199 4.64342C8.57199 2.47373 6.81311 0.714844 4.64342 0.714844C2.47373 0.714844 0.714844 2.47373 0.714844 4.64342C0.714844 6.81311 2.47373 8.57199 4.64342 8.57199Z" stroke="#014E4E" stroke-linecap="round" stroke-linejoin="round"/>
<path d="M15.3583 8.57199C17.5279 8.57199 19.2868 6.81311 19.2868 4.64342C19.2868 2.47373 17.5279 0.714844 15.3583 0.714844C13.1886 0.714844 11.4297 2.47373 11.4297 4.64342C11.4297 6.81311 13.1886 8.57199 15.3583 8.57199Z" stroke="#014E4E" stroke-linecap="round" stroke-linejoin="round"/>
<path d="M4.64342 19.2868C6.81311 19.2868 8.57199 17.5279 8.57199 15.3583C8.57199 13.1886 6.81311 11.4297 4.64342 11.4297C2.47373 11.4297 0.714844 13.1886 0.714844 15.3583C0.714844 17.5279 2.47373 19.2868 4.64342 19.2868Z" stroke="#014E4E" stroke-linecap="round" stroke-linejoin="round"/>
<path d="M15.3583 19.2868C17.5279 19.2868 19.2868 17.5279 19.2868 15.3583C19.2868 13.1886 17.5279 11.4297 15.3583 11.4297C13.1886 11.4297 11.4297 13.1886 11.4297 15.3583C11.4297 17.5279 13.1886 19.2868 15.3583 19.2868Z" stroke="#014E4E" stroke-linecap="round" stroke-linejoin="round"/>
</g>
<defs>
<clipPath id="clip0_510_432">
<rect width="20" height="20" fill="white"/>
</clipPath>
</defs>
</svg>
