<svg width="31" height="31" viewBox="0 0 31 31" fill="none" xmlns="http://www.w3.org/2000/svg">
<g clip-path="url(#clip0_140_10)">
<path d="M16.3745 15.2463C16.0567 15.3844 15.7139 15.4556 15.3673 15.4556C15.0208 15.4556 14.678 15.3844 14.3602 15.2463L2.14592 9.5892C1.94758 9.48916 1.7809 9.33603 1.66445 9.14686C1.54799 8.95769 1.48633 8.73991 1.48633 8.51777C1.48633 8.29563 1.54799 8.07785 1.66445 7.88868C1.7809 7.69951 1.94758 7.54638 2.14592 7.44634L14.3602 1.74634C14.678 1.60833 15.0208 1.53711 15.3673 1.53711C15.7139 1.53711 16.0567 1.60833 16.3745 1.74634L28.5888 7.40348C28.7871 7.50352 28.9538 7.65665 29.0703 7.84582C29.1867 8.03499 29.2484 8.25277 29.2484 8.47491C29.2484 8.69705 29.1867 8.91483 29.0703 9.104C28.9538 9.29317 28.7871 9.4463 28.5888 9.54634L16.3745 15.2463Z" stroke="#014E4E" stroke-width="1.5" stroke-linecap="round" stroke-linejoin="round"/>
<path d="M29.2959 16.2109L16.2244 22.2324C15.9453 22.3597 15.642 22.4256 15.3351 22.4256C15.0283 22.4256 14.725 22.3597 14.4459 22.2324L1.43872 16.2109" stroke="#014E4E" stroke-width="1.5" stroke-linecap="round" stroke-linejoin="round"/>
<path d="M29.2959 23.1748L16.2244 29.1962C15.9453 29.3236 15.642 29.3895 15.3351 29.3895C15.0283 29.3895 14.725 29.3236 14.4459 29.1962L1.43872 23.1748" stroke="#014E4E" stroke-width="1.5" stroke-linecap="round" stroke-linejoin="round"/>
</g>
<defs>
<clipPath id="clip0_140_10">
<rect width="30" height="30" fill="white" transform="translate(0.367188 0.460938)"/>
</clipPath>
</defs>
</svg>
