<svg width="31" height="31" viewBox="0 0 31 31" fill="none" xmlns="http://www.w3.org/2000/svg">
<g clip-path="url(#clip0_140_36)">
<path d="M10.0099 28.7776C14.7438 28.7776 18.5813 24.9401 18.5813 20.2062C18.5813 15.4723 14.7438 11.6348 10.0099 11.6348C5.27604 11.6348 1.43848 15.4723 1.43848 20.2062C1.43848 24.9401 5.27604 28.7776 10.0099 28.7776Z" stroke="#014E4E" stroke-width="1.5" stroke-linecap="round" stroke-linejoin="round"/>
<path d="M20.7243 28.7776C25.4581 28.7776 29.2957 24.9401 29.2957 20.2062C29.2957 15.4723 25.4581 11.6348 20.7243 11.6348C15.9904 11.6348 12.1528 15.4723 12.1528 20.2062C12.1528 24.9401 15.9904 28.7776 20.7243 28.7776Z" stroke="#014E4E" stroke-width="1.5" stroke-linecap="round" stroke-linejoin="round"/>
<path d="M15.3668 20.2063C20.1007 20.2063 23.9383 16.3688 23.9383 11.6349C23.9383 6.90104 20.1007 3.06348 15.3668 3.06348C10.633 3.06348 6.79541 6.90104 6.79541 11.6349C6.79541 16.3688 10.633 20.2063 15.3668 20.2063Z" stroke="#014E4E" stroke-width="1.5" stroke-linecap="round" stroke-linejoin="round"/>
</g>
<defs>
<clipPath id="clip0_140_36">
<rect width="30" height="30" fill="white" transform="translate(0.367188 0.92041)"/>
</clipPath>
</defs>
</svg>
