<svg width="36" height="36" viewBox="0 0 36 36" fill="none" xmlns="http://www.w3.org/2000/svg">
<path d="M13.2331 1.08849C13.3486 1.08811 13.4642 1.08761 13.5797 1.087C13.8923 1.08572 14.2049 1.08621 14.5176 1.0871C14.8454 1.08782 15.1732 1.08716 15.501 1.08671C16.0514 1.0862 16.6018 1.08688 17.1522 1.08822C17.7877 1.08975 18.4232 1.08925 19.0587 1.0877C19.6053 1.08642 20.1518 1.08625 20.6983 1.08698C21.0243 1.08742 21.3503 1.08748 21.6764 1.08655C21.983 1.08574 22.2895 1.08631 22.5961 1.08793C22.7083 1.0883 22.8206 1.08819 22.9328 1.08757C23.5836 1.0843 24.0828 1.09446 24.6086 1.51902C25.1251 2.13607 25.1343 2.78916 25.1321 3.56797C25.1324 3.66785 25.1328 3.76773 25.1332 3.8676C25.1338 4.07604 25.1337 4.28446 25.133 4.4929C25.1321 4.75822 25.1336 5.02348 25.1356 5.2888C25.1369 5.49481 25.1369 5.70081 25.1365 5.90683C25.1365 6.00457 25.1369 6.10231 25.1378 6.20004C25.1429 6.85733 25.1007 7.43535 24.6921 7.97349C24.6488 8.00911 24.6056 8.04473 24.5611 8.08143C24.5187 8.11832 24.4764 8.1552 24.4328 8.19321C23.9455 8.48163 23.4746 8.5376 22.9175 8.52088C22.7101 8.51653 22.5028 8.51218 22.2891 8.5077C22.2891 9.06457 22.2891 9.62145 22.2891 10.1952C22.4281 10.1941 22.5671 10.193 22.7104 10.1918C23.172 10.1884 23.6337 10.186 24.0954 10.1843C24.375 10.1832 24.6546 10.1817 24.9343 10.1793C25.2046 10.177 25.4749 10.1757 25.7453 10.1752C25.848 10.1748 25.9506 10.174 26.0532 10.1729C26.9356 10.1634 27.6171 10.243 28.3008 10.8412C28.9269 11.5456 29.0606 12.1554 29.0574 13.0793C29.0577 13.1634 29.058 13.2475 29.0582 13.3342C29.0588 13.5664 29.0588 13.7987 29.0585 14.031C29.0583 14.2819 29.059 14.5329 29.0595 14.7838C29.0604 15.2751 29.0605 15.7663 29.0604 16.2575C29.0602 16.6568 29.0603 17.0562 29.0606 17.4556C29.0607 17.5125 29.0607 17.5694 29.0608 17.628C29.0609 17.7436 29.0609 17.8592 29.061 17.9748C29.0618 19.0583 29.0616 20.1417 29.0612 21.2252C29.0609 22.2156 29.0616 23.2061 29.063 24.1966C29.0643 25.2144 29.0649 26.2322 29.0647 27.25C29.0645 27.8211 29.0647 28.3922 29.0657 28.9633C29.0665 29.4495 29.0666 29.9357 29.0658 30.4219C29.0654 30.6698 29.0653 30.9176 29.0661 31.1655C29.067 31.4347 29.0663 31.7038 29.0654 31.9729C29.0659 32.0507 29.0664 32.1284 29.067 32.2085C29.0616 32.9817 28.8841 33.6567 28.3535 34.2358C27.7958 34.7654 27.186 34.9174 26.4318 34.9106C26.3564 34.911 26.2811 34.9115 26.2035 34.9119C25.9527 34.913 25.702 34.9122 25.4512 34.9113C25.2708 34.9117 25.0903 34.9122 24.9099 34.9128C24.4716 34.914 24.0333 34.9137 23.5951 34.9129C23.2387 34.9123 22.8823 34.9122 22.526 34.9125C22.4751 34.9126 22.4243 34.9126 22.3719 34.9126C22.2687 34.9127 22.1654 34.9128 22.0621 34.9129C21.095 34.9137 20.1278 34.9128 19.1607 34.9113C18.3319 34.91 17.503 34.9103 16.6742 34.9115C15.7104 34.9131 14.7466 34.9136 13.7827 34.9128C13.6799 34.9127 13.577 34.9126 13.4741 34.9125C13.4235 34.9125 13.3729 34.9124 13.3207 34.9124C12.965 34.9121 12.6093 34.9126 12.2536 34.9132C11.7743 34.9141 11.2951 34.9135 10.8159 34.9118C10.6402 34.9115 10.4645 34.9116 10.2888 34.9122C10.0486 34.913 9.80849 34.912 9.56828 34.9106C9.46455 34.9115 9.46455 34.9115 9.35873 34.9125C8.6193 34.9042 8.07073 34.6488 7.53775 34.1418C7.13048 33.666 6.9526 33.0922 6.95173 32.4728C6.95146 32.4008 6.95119 32.3287 6.95091 32.2545C6.951 32.1365 6.951 32.1365 6.95109 32.0162C6.95088 31.9322 6.95067 31.8483 6.95046 31.7618C6.94995 31.5291 6.94977 31.2963 6.94971 31.0636C6.94958 30.8125 6.94905 30.5614 6.94858 30.3103C6.94762 29.7613 6.9472 29.2123 6.94689 28.6633C6.9467 28.3204 6.9464 27.9774 6.94608 27.6345C6.94522 26.6847 6.9445 25.7349 6.94426 24.785C6.94425 24.7243 6.94423 24.6635 6.94422 24.6009C6.94419 24.5095 6.94419 24.5095 6.94417 24.4163C6.94414 24.2929 6.94411 24.1694 6.94408 24.046C6.94406 23.9848 6.94404 23.9235 6.94403 23.8604C6.94375 22.8686 6.94252 21.8768 6.94089 20.8849C6.93922 19.8662 6.93834 18.8474 6.93826 17.8286C6.9382 17.2568 6.93779 16.685 6.93652 16.1132C6.93543 15.6262 6.93507 15.1393 6.93565 14.6523C6.93593 14.404 6.93586 14.1557 6.93488 13.9074C6.93381 13.6378 6.93439 13.3682 6.93513 13.0986C6.93456 13.0207 6.93399 12.9428 6.93341 12.8626C6.93841 12.0752 7.12148 11.4159 7.66409 10.828C8.43212 10.2088 9.15383 10.1746 10.1009 10.1815C10.2073 10.1817 10.3136 10.1819 10.42 10.1821C10.6984 10.1826 10.9767 10.184 11.2551 10.1855C11.5398 10.187 11.8245 10.1876 12.1092 10.1883C12.6665 10.1898 13.2239 10.1923 13.7813 10.1952C13.7813 9.63832 13.7813 9.08145 13.7813 8.5077C13.347 8.51596 13.347 8.51596 12.9127 8.5267C12.2594 8.5329 11.7746 8.38488 11.2964 7.93339C10.9388 7.53869 10.8903 7.10019 10.8871 6.58818C10.8865 6.50015 10.8858 6.41213 10.8851 6.32144C10.8847 6.22585 10.8844 6.13026 10.8842 6.03467C10.8839 5.96187 10.8839 5.96187 10.8836 5.8876C10.8825 5.63065 10.8819 5.37371 10.8816 5.11677C10.8812 4.85286 10.8795 4.58897 10.8775 4.32507C10.8762 4.12082 10.8758 3.91656 10.8757 3.7123C10.8755 3.61509 10.8749 3.51788 10.874 3.42068C10.8675 2.68458 10.9078 2.09685 11.3915 1.51902C11.9613 1.05893 12.5351 1.08462 13.2331 1.08849ZM12.2344 2.46082C12.0729 2.70304 12.076 2.79331 12.0756 3.07851C12.0751 3.16205 12.0747 3.24559 12.0742 3.33166C12.0745 3.42197 12.0748 3.51228 12.0751 3.60532C12.075 3.698 12.0748 3.79067 12.0747 3.88615C12.0745 4.08233 12.0748 4.27849 12.0754 4.47467C12.0762 4.72584 12.0758 4.97699 12.0749 5.22817C12.0743 5.46798 12.0748 5.70779 12.0751 5.94761C12.0748 6.03777 12.0745 6.12794 12.0742 6.22084C12.0747 6.3046 12.0751 6.38836 12.0756 6.47466C12.0757 6.54834 12.0758 6.62203 12.0759 6.69795C12.0944 6.89708 12.1198 7.00868 12.2344 7.17176C12.4753 7.32866 12.6801 7.3302 12.9635 7.33071C13.0557 7.33121 13.1479 7.33171 13.2428 7.33222C13.3449 7.33206 13.4469 7.33189 13.5489 7.3317C13.6564 7.332 13.764 7.33237 13.8715 7.33278C14.1635 7.33373 14.4555 7.33377 14.7475 7.33359C14.9913 7.33351 15.235 7.33386 15.4788 7.33419C16.0538 7.33497 16.6289 7.335 17.2039 7.33458C17.7972 7.33415 18.3905 7.33502 18.9837 7.33652C19.4931 7.33776 20.0024 7.33818 20.5118 7.33795C20.816 7.33782 21.1202 7.33801 21.4245 7.33898C21.7105 7.33987 21.9966 7.33973 22.2827 7.33881C22.3877 7.33865 22.4926 7.33884 22.5976 7.33942C22.7409 7.34016 22.8843 7.33946 23.0276 7.3387C23.1078 7.33871 23.188 7.33872 23.2706 7.33873C23.5119 7.30899 23.6443 7.24939 23.836 7.10145C23.9101 6.8791 23.9165 6.71847 23.9187 6.48487C23.9196 6.40156 23.9205 6.31825 23.9215 6.23241C23.922 6.14232 23.9225 6.05224 23.923 5.95942C23.9239 5.82066 23.9239 5.82066 23.9248 5.67909C23.9258 5.48322 23.9265 5.28734 23.927 5.09146C23.9278 4.84091 23.9302 4.59041 23.933 4.33987C23.9353 4.10043 23.9356 3.86098 23.9362 3.62153C23.9381 3.48682 23.9381 3.48682 23.9399 3.34939C23.9397 3.26564 23.9395 3.18188 23.9393 3.09559C23.9397 3.02206 23.9401 2.94853 23.9406 2.87278C23.8972 2.61878 23.8045 2.50199 23.625 2.3202C23.3939 2.24315 23.2234 2.24065 22.98 2.24001C22.8891 2.23961 22.7982 2.23921 22.7046 2.23879C22.6036 2.2387 22.5027 2.23863 22.4017 2.23855C22.2956 2.23823 22.1895 2.23787 22.0833 2.2375C21.7948 2.23657 21.5063 2.23612 21.2178 2.23581C21.0375 2.2356 20.8573 2.23531 20.6771 2.235C20.1133 2.23404 19.5496 2.23336 18.9858 2.23309C18.3348 2.23277 17.6838 2.23154 17.0329 2.2295C16.5298 2.22798 16.0267 2.22727 15.5236 2.22718C15.2231 2.2271 14.9225 2.22669 14.622 2.22543C14.3393 2.22427 14.0567 2.22412 13.774 2.22474C13.6703 2.22479 13.5666 2.22449 13.4629 2.22379C13.3212 2.2229 13.1796 2.22344 13.0379 2.22404C12.9586 2.22394 12.8794 2.22384 12.7977 2.22373C12.5571 2.25345 12.4275 2.31624 12.2344 2.46082ZM14.9766 8.5077C14.9534 9.2734 14.9302 10.0391 14.9063 10.828C14.7657 11.1796 14.7657 11.1796 14.625 11.3202C14.4523 11.334 14.2874 11.3392 14.1145 11.3382C14.0356 11.3385 14.0356 11.3385 13.9551 11.3389C13.8406 11.3394 13.7262 11.3396 13.6117 11.3395C13.4301 11.3394 13.2486 11.3403 13.0671 11.3415C12.5509 11.3448 12.0347 11.3465 11.5185 11.347C11.2029 11.3473 10.8873 11.349 10.5716 11.3516C10.4516 11.3523 10.3315 11.3524 10.2115 11.352C9.35112 11.3345 9.35112 11.3345 8.57815 11.6718C7.86581 12.4029 8.15628 13.2084 8.15628 14.2733C14.6532 14.2733 21.15 14.2733 27.8438 14.2733C27.9853 12.5531 27.9853 12.5531 27.5625 11.8124C27.19 11.4494 26.8346 11.3696 26.327 11.3714C26.2746 11.3711 26.2222 11.3707 26.1682 11.3703C26.0548 11.3696 25.9415 11.3692 25.8282 11.3691C25.6488 11.3688 25.4694 11.3676 25.29 11.3662C24.7801 11.3623 24.2703 11.3601 23.7604 11.3584C23.4481 11.3573 23.1359 11.3552 22.8237 11.3525C22.7048 11.3516 22.5859 11.3512 22.467 11.3512C22.3009 11.3512 22.1348 11.3499 21.9687 11.3484C21.9196 11.3487 21.8706 11.349 21.82 11.3493C21.5017 11.3446 21.4355 11.3128 21.1641 11.1093C21.1409 10.2507 21.1177 9.39223 21.0938 8.5077C19.0751 8.5077 17.0564 8.5077 14.9766 8.5077ZM8.15628 15.4686C8.15628 20.2253 8.15628 24.9819 8.15628 29.8827C14.6532 29.8827 21.15 29.8827 27.8438 29.8827C27.8438 25.1261 27.8438 20.3694 27.8438 15.4686C21.3469 15.4686 14.85 15.4686 8.15628 15.4686ZM8.15628 31.0077C8.02309 32.4139 8.02309 32.4139 8.59573 33.495C9.05731 33.7677 9.55053 33.7703 10.0716 33.7682C10.1776 33.7686 10.1776 33.7686 10.2858 33.769C10.5216 33.7697 10.7574 33.7695 10.9932 33.7692C11.1627 33.7695 11.3321 33.7699 11.5016 33.7703C11.9135 33.7711 12.3255 33.7713 12.7374 33.7711C13.0724 33.771 13.4073 33.7711 13.7423 33.7714C13.79 33.7715 13.8378 33.7715 13.887 33.7716C13.984 33.7717 14.081 33.7717 14.178 33.7718C15.0869 33.7726 15.9957 33.7724 16.9046 33.772C17.7353 33.7716 18.5659 33.7724 19.3966 33.7738C20.2505 33.7751 21.1045 33.7757 21.9584 33.7754C22.4374 33.7753 22.9164 33.7755 23.3954 33.7765C23.8459 33.7774 24.2963 33.7772 24.7468 33.7763C24.9119 33.7761 25.0771 33.7763 25.2422 33.7769C25.468 33.7777 25.6937 33.7771 25.9195 33.7762C25.9846 33.7767 26.0496 33.7772 26.1167 33.7778C26.6242 33.7736 27.0803 33.7006 27.4834 33.3763C28.0985 32.5985 27.8438 32.1995 27.8438 31.0077C21.3469 31.0077 14.85 31.0077 8.15628 31.0077Z" fill="#014E4E"/>
<path d="M22.7109 18.1407C23.5276 19.0003 23.6709 20.6058 23.6581 21.7359C23.6198 22.8381 23.3551 23.8423 22.8516 24.8204C22.814 24.8946 22.7763 24.9688 22.7376 25.0453C21.8362 26.699 20.294 27.8569 18.5054 28.3887C16.8425 28.8778 15.0686 28.7018 13.4874 28.0308C13.0832 27.7929 12.9393 27.4469 12.7925 27.0176C12.7655 26.939 12.7655 26.939 12.7379 26.8587C12.1151 24.9704 12.2785 23.0497 13.1273 21.2644C13.3716 20.7918 13.6467 20.3725 13.9922 19.9688C14.0374 19.9134 14.0827 19.858 14.1293 19.801C16.1101 17.4686 19.9962 16.5426 22.7109 18.1407ZM15.5391 20.1094C15.4805 20.1614 15.422 20.2133 15.3616 20.2668C14.2334 21.3274 13.5956 22.806 13.5457 24.3524C13.5387 24.966 13.6067 25.5663 13.7813 26.1563C13.8277 26.2027 13.8741 26.2491 13.9219 26.2969C14.4929 25.955 15.0687 25.5225 15.3281 24.8907C15.5627 23.8813 15.4568 22.7622 15.3968 21.7358C15.3986 21.5767 15.4109 21.4533 15.4688 21.3047C15.7214 21.2205 15.9066 21.2112 16.1719 21.2344C16.3871 21.3905 16.4465 21.4768 16.4915 21.7412C16.493 21.8281 16.4945 21.915 16.496 22.0046C16.4971 22.051 16.4983 22.0974 16.4995 22.1452C16.5029 22.2928 16.5044 22.4403 16.5059 22.5879C16.5079 22.6883 16.51 22.7886 16.5122 22.889C16.5174 23.1343 16.5209 23.3797 16.5234 23.6251C16.6369 23.5313 16.7496 23.4367 16.8596 23.3389C16.9703 23.2426 17.0852 23.1509 17.2026 23.0628C17.4974 22.8177 17.7206 22.6061 17.7781 22.2175C17.8041 21.8924 17.7955 21.5688 17.7847 21.2432C17.7818 21.0753 17.7799 20.9074 17.779 20.7395C17.7782 20.6357 17.7761 20.5319 17.7725 20.4282C17.7684 20.2096 17.7763 20.0623 17.8826 19.8688C18.0561 19.7048 18.1861 19.6923 18.4219 19.6876C18.5855 19.7676 18.715 19.84 18.8438 19.9688C18.8547 20.063 18.8614 20.1578 18.866 20.2525C18.869 20.3094 18.8719 20.3663 18.8749 20.4249C18.8777 20.4846 18.8805 20.5444 18.8833 20.606C18.8863 20.6661 18.8894 20.7261 18.8925 20.788C18.9 20.9368 18.9071 21.0856 18.9141 21.2344C19.2481 20.9557 19.5635 20.665 19.8696 20.3561C19.9318 20.2938 19.9318 20.2938 19.9952 20.2302C20.1257 20.0993 20.256 19.9681 20.3862 19.837C20.4754 19.7474 20.5647 19.6579 20.6539 19.5683C20.871 19.3505 21.0879 19.1323 21.3047 18.9141C19.4681 17.9753 16.9652 18.8343 15.5391 20.1094ZM22.0781 19.7579C21.7575 20.0768 21.437 20.3959 21.1168 20.7153C21.0078 20.824 20.8986 20.9327 20.7894 21.0413C20.6329 21.1969 20.4766 21.3529 20.3203 21.5088C20.2711 21.5577 20.2219 21.6065 20.1712 21.6568C20.1261 21.7019 20.0811 21.7469 20.0347 21.7933C19.9947 21.8332 19.9547 21.873 19.9136 21.914C19.8203 21.9954 19.8203 21.9954 19.8281 22.0782C19.9539 22.0846 19.9539 22.0846 20.0822 22.0911C20.1923 22.097 20.3025 22.103 20.4126 22.1089C20.4679 22.1117 20.5231 22.1145 20.58 22.1173C20.6599 22.1217 20.6599 22.1217 20.7414 22.1262C20.8148 22.1301 20.8148 22.1301 20.8898 22.1341C21.0234 22.1485 21.0234 22.1485 21.2344 22.2188C21.2982 22.5443 21.3391 22.7708 21.1641 23.0626C20.9114 23.2389 20.6869 23.2095 20.3873 23.1927C19.2128 23.1081 19.2128 23.1081 18.159 23.5256C17.8822 23.7854 17.634 24.0727 17.4375 24.3985C17.4375 24.4217 17.4375 24.4449 17.4375 24.4688C17.4957 24.4702 17.5538 24.4716 17.6138 24.473C17.8773 24.4797 18.1408 24.4874 18.4043 24.4952C18.4959 24.4973 18.5874 24.4995 18.6817 24.5018C18.7696 24.5045 18.8575 24.5072 18.9481 24.51C19.0696 24.5133 19.0696 24.5133 19.1936 24.5167C19.399 24.5383 19.5196 24.5616 19.6875 24.6797C19.7954 24.9397 19.8472 25.099 19.7754 25.3741C19.6875 25.5235 19.6875 25.5235 19.5469 25.5938C19.4457 25.595 19.3444 25.5917 19.2434 25.5859C17.3513 25.3923 17.3513 25.3923 15.6352 25.9767C15.2913 26.2953 14.9844 26.6535 14.7656 27.0704C14.7656 27.1168 14.7656 27.1632 14.7656 27.211C16.1769 27.6741 17.7611 27.5218 19.0811 26.8726C20.6189 26.0724 21.6892 24.8691 22.2138 23.207C22.5224 22.1283 22.538 20.9778 22.2188 19.8985C22.1492 19.8289 22.1492 19.8289 22.0781 19.7579Z" fill="#014E4E"/>
<path d="M22.4297 3.09364C22.5979 3.21041 22.696 3.30143 22.7377 3.50655C22.7494 3.67339 22.7518 3.83798 22.7508 4.00523C22.7514 4.09702 22.7514 4.09702 22.7521 4.19067C22.7526 4.31992 22.7524 4.44918 22.7515 4.57843C22.7505 4.77586 22.7529 4.97306 22.7556 5.17047C22.7556 5.29622 22.7555 5.42197 22.7552 5.54771C22.7561 5.60654 22.757 5.66536 22.758 5.72596C22.7531 6.03059 22.7383 6.15211 22.5456 6.40068C22.3594 6.53895 22.3594 6.53895 22.1484 6.57851C21.8912 6.53027 21.7722 6.43859 21.5859 6.2577C21.4741 6.0341 21.5027 5.79226 21.5013 5.54661C21.5009 5.4899 21.5005 5.43319 21.5001 5.37476C21.4995 5.2546 21.499 5.13444 21.4987 5.01427C21.4981 4.83093 21.4959 4.64765 21.4937 4.46432C21.4932 4.34755 21.4928 4.23077 21.4926 4.114C21.4913 4.03202 21.4913 4.03202 21.4899 3.94839C21.4912 3.62655 21.5278 3.42023 21.7266 3.16395C21.9642 2.98369 22.1505 3.01222 22.4297 3.09364Z" fill="#014E4E"/>
<path d="M16.2422 3.09364C16.4108 3.21021 16.5085 3.30122 16.5501 3.50657C16.5619 3.6734 16.5642 3.83798 16.5632 4.00523C16.5639 4.09702 16.5639 4.09702 16.5646 4.19067C16.5651 4.31992 16.5648 4.44918 16.5639 4.57843C16.563 4.77586 16.5654 4.97306 16.568 5.17047C16.5681 5.29622 16.568 5.42197 16.5676 5.54771C16.5686 5.60654 16.5695 5.66536 16.5705 5.72596C16.5656 6.03059 16.5508 6.15211 16.3581 6.40068C16.1719 6.53895 16.1719 6.53895 15.9609 6.57851C15.7036 6.53027 15.5846 6.43859 15.3984 6.2577C15.2848 6.03038 15.3136 5.78113 15.3113 5.53123C15.3108 5.47296 15.3102 5.41469 15.3096 5.35465C15.3087 5.23118 15.3079 5.10771 15.3073 4.98423C15.3061 4.79579 15.3031 4.60743 15.2999 4.419C15.2992 4.29903 15.2986 4.17905 15.2982 4.05907C15.2969 4.00288 15.2957 3.94669 15.2944 3.8888C15.2955 3.61277 15.3091 3.47608 15.4574 3.23545C15.7176 2.99258 15.9109 3.00576 16.2422 3.09364Z" fill="#014E4E"/>
<path d="M20.3906 3.09374C20.6021 3.29063 20.6889 3.44237 20.706 3.72602C20.7069 3.83542 20.7063 3.94484 20.7043 4.05422C20.7042 4.14143 20.7042 4.14143 20.7041 4.2304C20.7036 4.35291 20.7025 4.47542 20.7008 4.59792C20.6982 4.78526 20.6979 4.9725 20.698 5.15986C20.6973 5.2791 20.6964 5.39835 20.6955 5.5176C20.6953 5.57349 20.6952 5.62938 20.695 5.68696C20.6866 6.17566 20.6866 6.17566 20.5312 6.39843C20.3081 6.57861 20.091 6.54242 19.8212 6.51653C19.6245 6.44622 19.5792 6.37112 19.4765 6.18749C19.4442 5.97668 19.4453 5.76763 19.4461 5.55468C19.4457 5.49332 19.4453 5.43195 19.4449 5.36873C19.4445 5.23919 19.4446 5.10964 19.4452 4.98009C19.4458 4.78192 19.4438 4.58389 19.4415 4.38573C19.4414 4.25976 19.4415 4.13378 19.4417 4.0078C19.4409 3.94862 19.4401 3.88943 19.4393 3.82845C19.4441 3.41892 19.4441 3.41892 19.6062 3.19921C19.8829 3.00673 20.0722 3.00278 20.3906 3.09374Z" fill="#014E4E"/>
<path d="M14.2031 3.09367C14.4134 3.29004 14.5012 3.44248 14.5207 3.72484C14.5226 3.83377 14.5228 3.94274 14.5217 4.05168C14.522 4.10966 14.5222 4.16763 14.5225 4.22736C14.5227 4.34957 14.5222 4.47179 14.521 4.59399C14.5195 4.7806 14.521 4.96701 14.5228 5.15361C14.5226 5.27263 14.5223 5.39165 14.5217 5.51067C14.5223 5.56619 14.5228 5.62172 14.5234 5.67893C14.5188 5.95089 14.5016 6.08891 14.3565 6.3264C14.1441 6.52339 13.9975 6.53899 13.7109 6.53899C13.5037 6.44437 13.3915 6.39235 13.289 6.18742C13.2795 5.98052 13.2741 5.77536 13.2723 5.56834C13.2717 5.50678 13.2712 5.44522 13.2706 5.3818C13.2696 5.25141 13.2688 5.12102 13.2683 4.99064C13.2671 4.79123 13.264 4.59191 13.2609 4.39253C13.2602 4.26592 13.2596 4.1393 13.2591 4.01268C13.2573 3.92324 13.2573 3.92324 13.2554 3.83199C13.2569 3.4187 13.2569 3.4187 13.4184 3.19883C13.6955 3.007 13.8846 3.00268 14.2031 3.09367Z" fill="#014E4E"/>
<path d="M18.3515 3.09381C18.6481 3.39041 18.644 3.72002 18.6446 4.11719C18.6448 4.16912 18.6451 4.22105 18.6453 4.27455C18.6457 4.38436 18.6458 4.49417 18.6458 4.60398C18.646 4.77141 18.6473 4.93881 18.6486 5.10623C18.6488 5.21307 18.6489 5.31992 18.649 5.42676C18.6495 5.47657 18.65 5.52639 18.6505 5.57771C18.6489 5.92693 18.6172 6.19872 18.3691 6.45563C18.1561 6.56803 18.0271 6.57313 17.789 6.53912C17.6026 6.43709 17.6026 6.43709 17.4375 6.25787C17.3855 6.04199 17.3899 5.83085 17.3933 5.60968C17.3931 5.54676 17.3929 5.48384 17.3927 5.41901C17.3928 5.28615 17.3938 5.15328 17.3955 5.02044C17.3979 4.81715 17.397 4.61409 17.3956 4.4108C17.3961 4.28162 17.3968 4.15243 17.3977 4.02325C17.3971 3.93217 17.3971 3.93217 17.3966 3.83924C17.4049 3.41798 17.4049 3.41798 17.5718 3.19832C17.8551 2.99678 18.0107 3.01607 18.3515 3.09381Z" fill="#014E4E"/>
</svg>
