<svg width="51" height="51" viewBox="0 0 51 51" fill="none" xmlns="http://www.w3.org/2000/svg">
<circle cx="25.3213" cy="25.0801" r="25" fill="#F9D67B"/>
<path d="M14.8613 19.9043C12.9423 20.2395 11.4751 21.9205 11.4751 23.9318V28.0128H20.9196C20.7107 26.3513 20.084 24.7432 18.9909 23.4508C18.6994 23.1059 18.3788 22.7852 18.0289 22.4986L14.8613 19.9043Z" fill="#014E4E"/>
<path d="M29.4075 16.1675V14.1659C29.4075 11.9214 27.5662 10.0801 25.3217 10.0801H21.2358V14.9432C21.7071 14.7441 22.2221 14.6323 22.7662 14.6323C24.8407 14.6323 26.5314 16.2452 26.6626 18.2857C27.5322 17.5279 28.4504 16.8185 29.4075 16.1675Z" fill="#014E4E"/>
<path d="M25.3211 37.7777H29.4069V28.0125H35.0863C37.3308 28.0125 39.1673 26.1761 39.1673 23.9315V19.8457H31.1754C30.16 21.1623 29.4021 22.6781 28.8823 24.4902C28.0369 27.4441 27.9494 30.602 26.8175 33.4732C26.1519 35.1493 25.1948 36.4902 24.0288 37.5688C24.4321 37.7048 24.8693 37.7777 25.3211 37.7777Z" fill="#1E1E1E"/>
<path d="M34.387 15.0596C20.8323 23.8725 33.0898 35.9211 15.2744 40.0798C23.8833 36.0377 24.2671 25.7333 18.9424 21.3802L24.1554 23.0078C24.1554 23.0078 27.8768 17.8677 34.387 15.0596Z" fill="#014E4E"/>
<path d="M22.7659 16.0801C24.1214 16.0801 25.2242 17.178 25.2242 18.5384C25.2242 19.8938 24.1213 20.9918 22.7659 20.9918C21.4104 20.9918 20.3076 19.8938 20.3076 18.5384C20.3076 17.178 21.4105 16.0801 22.7659 16.0801Z" fill="#1E1E1E"/>
</svg>
