<svg width="86" height="112" viewBox="0 0 86 112" fill="none" xmlns="http://www.w3.org/2000/svg">
<path d="M29.2624 62.7075L29.3617 63.7026L29.3823 63.7005L29.4027 63.6976L29.2624 62.7075ZM1.89163 39.3185L2.86964 39.5271L2.87156 39.5181L2.87331 39.5091L1.89163 39.3185ZM37.9307 54.0231L38.8708 54.3639L38.9081 54.2611L38.9223 54.1527L37.9307 54.0231ZM17.4029 111.398L26.13 103.837L15.2183 100.06L17.4029 111.398ZM22.1199 100.96C22.9189 98.7071 23.7801 96.2891 24.6755 93.7822L22.792 93.1095C21.8963 95.6175 21.0346 98.0368 20.235 100.291L22.1199 100.96ZM27.2439 86.6067C28.1032 84.2106 28.9693 81.7997 29.8203 79.4337L27.9384 78.7567C27.0872 81.1233 26.2209 83.5347 25.3613 85.9315L27.2439 86.6067ZM32.4027 72.2625C33.3256 69.7023 34.1979 67.2856 34.9854 65.1054L33.1043 64.4259C32.3167 66.6065 31.4443 69.0236 30.5212 71.5842L32.4027 72.2625ZM37.5826 57.9215C37.9885 56.7999 38.3105 55.9105 38.5311 55.3014C38.6414 54.9969 38.7264 54.7625 38.7837 54.6043C38.8124 54.5251 38.8342 54.465 38.8488 54.4247C38.8561 54.4045 38.8616 54.3893 38.8653 54.3792C38.8671 54.3741 38.8685 54.3703 38.8695 54.3677C38.8699 54.3664 38.8703 54.3655 38.8705 54.3648C38.8706 54.3645 38.8707 54.3643 38.8708 54.3641C38.8708 54.364 38.8708 54.364 38.8708 54.3639C38.8708 54.3639 38.8708 54.3639 38.8708 54.3639C38.8708 54.3639 38.8708 54.3639 37.9307 54.0231C36.9906 53.6823 36.9906 53.6823 36.9906 53.6823C36.9906 53.6823 36.9906 53.6823 36.9906 53.6823C36.9905 53.6824 36.9905 53.6824 36.9905 53.6825C36.9904 53.6827 36.9903 53.6829 36.9902 53.6832C36.99 53.6839 36.9896 53.6849 36.9892 53.6861C36.9882 53.6887 36.9869 53.6925 36.985 53.6976C36.9813 53.7078 36.9758 53.723 36.9685 53.7432C36.9539 53.7836 36.9321 53.8437 36.9034 53.9229C36.846 54.0812 36.761 54.3157 36.6507 54.6203C36.43 55.2295 36.1079 56.1191 35.702 57.2409L37.5826 57.9215ZM38.9223 54.1527C39.0853 52.9056 39.1669 51.7046 39.1727 50.5497L37.1727 50.5396C37.1673 51.6073 37.0919 52.725 36.9391 53.8935L38.9223 54.1527ZM38.1114 43.4035C37.3154 40.9574 36.1067 38.8355 34.6042 37.0316L33.0674 38.3116C34.4114 39.9251 35.4941 41.8238 36.2095 44.0224L38.1114 43.4035ZM29.0276 32.3867C26.9189 31.1739 24.6272 30.3128 22.2969 29.7854L21.8554 31.7361C24.0063 32.2229 26.1085 33.015 28.0306 34.1204L29.0276 32.3867ZM15.1157 29.1978C12.5871 29.3555 10.1618 29.9081 8.04209 30.853L8.85643 32.6797C10.7284 31.8452 12.915 31.339 15.2402 31.194L15.1157 29.1978ZM2.31767 35.5728C1.64566 36.6361 1.16308 37.824 0.909958 39.1279L2.87331 39.5091C3.07824 38.4533 3.46687 37.498 4.00834 36.6412L2.31767 35.5728ZM0.913627 39.1099C0.626044 40.4584 0.409408 41.7385 0.259443 42.9537L2.24439 43.1987C2.38661 42.0461 2.59313 40.8236 2.86964 39.5271L0.913627 39.1099ZM0.299273 50.793C0.80326 53.828 1.92407 56.2414 3.49968 58.1338L5.03666 56.8541C3.70977 55.2604 2.72378 53.1845 2.27226 50.4653L0.299273 50.793ZM10.1432 62.62C12.5768 63.5049 15.2274 63.9392 17.8406 64.1149L17.9747 62.1194C15.4804 61.9517 13.0287 61.5411 10.8266 60.7404L10.1432 62.62ZM25.5602 64.0368C26.9271 63.9404 28.2115 63.8174 29.3617 63.7026L29.163 61.7125C28.0176 61.8268 26.7565 61.9475 25.4194 62.0418L25.5602 64.0368ZM29.4027 63.6976C30.5197 63.5394 31.6161 63.3646 32.6921 63.1739L32.3432 61.2046C31.2902 61.3912 30.2166 61.5623 29.1221 61.7174L29.4027 63.6976ZM39.1719 61.7765C41.3828 61.2096 43.4964 60.5701 45.5164 59.8646L44.8569 57.9764C42.8918 58.6628 40.8326 59.286 38.6751 59.8391L39.1719 61.7765ZM51.6922 57.3775C53.7729 56.42 55.7364 55.3861 57.5882 54.286L56.5668 52.5666C54.7757 53.6305 52.8741 54.632 50.856 55.5607L51.6922 57.3775ZM63.1179 50.5687C64.9382 49.1882 66.6243 47.7384 68.1842 46.234L66.7959 44.7944C65.2922 46.2445 63.6661 47.6428 61.9094 48.9751L63.1179 50.5687ZM72.6957 41.3249C74.1329 39.5577 75.4267 37.7437 76.5882 35.9024L74.8967 34.8354C73.7765 36.6111 72.5292 38.3599 71.1441 40.063L72.6957 41.3249ZM79.8095 30.0629C80.7928 28.0068 81.6314 25.9429 82.3401 23.8972L80.4503 23.2425C79.7651 25.2204 78.9548 27.2145 78.0053 29.2L79.8095 30.0629ZM84.1711 17.4958C84.6861 15.2348 85.0524 13.0317 85.2918 10.9248L83.3046 10.699C83.0733 12.7343 82.7192 14.8644 82.221 17.0516L84.1711 17.4958ZM85.6494 4.25807C85.6382 3.08652 85.5857 1.96929 85.4972 0.916175L83.5042 1.08383C83.5884 2.08528 83.6388 3.15287 83.6494 4.27706L85.6494 4.25807Z" fill="#1E1E1E"/>
</svg>
