<svg width="152" height="51" viewBox="0 0 152 51" fill="none" xmlns="http://www.w3.org/2000/svg">
<circle cx="25.0898" cy="25.4053" r="25" fill="#F9D67B"/>
<path d="M14.6299 20.2295C12.7109 20.5647 11.2437 22.2457 11.2437 24.257V28.338H20.6882C20.4793 26.6765 19.8526 25.0684 18.7594 23.776C18.4679 23.4311 18.1473 23.1104 17.7975 22.8238L14.6299 20.2295Z" fill="#014E4E"/>
<path d="M29.1761 16.4927V14.4911C29.1761 12.2466 27.3348 10.4053 25.0903 10.4053H21.0044V15.2684C21.4757 15.0692 21.9906 14.9575 22.5348 14.9575C24.6092 14.9575 26.2999 16.5704 26.4311 18.6109C27.3008 17.8531 28.219 17.1437 29.1761 16.4927Z" fill="#014E4E"/>
<path d="M25.0897 38.1029H29.1755V28.3377H34.8548C37.0994 28.3377 38.9358 26.5012 38.9358 24.2567V20.1709H30.9439C29.9285 21.4875 29.1706 23.0033 28.6508 24.8154C27.8055 27.7693 27.718 30.9272 26.586 33.7984C25.9204 35.4745 24.9634 36.8154 23.7974 37.894C24.2006 38.03 24.6379 38.1029 25.0897 38.1029Z" fill="#1E1E1E"/>
<path d="M34.1555 15.3845C20.6008 24.1975 32.8584 36.2461 15.043 40.4048C23.6519 36.3627 24.0357 26.0582 18.711 21.7052L23.9239 23.3327C23.9239 23.3327 27.6454 18.1926 34.1555 15.3845Z" fill="#014E4E"/>
<path d="M22.5345 16.4053C23.8899 16.4053 24.9927 17.5032 24.9927 18.8636C24.9927 20.219 23.8899 21.317 22.5345 21.317C21.179 21.317 20.0762 20.219 20.0762 18.8636C20.0762 17.5032 21.179 16.4053 22.5345 16.4053Z" fill="#1E1E1E"/>
<path d="M80.1188 13.7303V32.9053H76.6868V23.5453L78.2338 24.7153H67.6518L69.1988 23.5713V32.9053H65.7668V13.7303H69.1988V23.1813L67.6518 21.9853H78.2338L76.6868 23.1683V13.7303H80.1188ZM84.7771 27.1073V24.6763H94.4361L94.0461 25.3263C94.0461 25.2743 94.0461 25.2179 94.0461 25.1573C94.0461 25.0879 94.0461 25.0316 94.0461 24.9883C94.0461 24.3903 93.9118 23.8313 93.6431 23.3113C93.3744 22.7826 92.9671 22.3579 92.4211 22.0373C91.8751 21.7079 91.1818 21.5433 90.3411 21.5433C89.5091 21.5433 88.7854 21.7209 88.1701 22.0763C87.5634 22.4229 87.0911 22.9256 86.7531 23.5843C86.4238 24.2429 86.2591 25.0316 86.2591 25.9503C86.2591 26.8949 86.4194 27.7096 86.7401 28.3943C87.0608 29.0703 87.5288 29.5903 88.1441 29.9543C88.7681 30.3096 89.5264 30.4873 90.4191 30.4873C91.0258 30.4873 91.5501 30.4309 91.9921 30.3183C92.4341 30.2056 92.7938 30.0539 93.0711 29.8633C93.3571 29.6639 93.5694 29.4516 93.7081 29.2263C93.8554 29.0009 93.9421 28.7756 93.9681 28.5503H97.3741C97.3221 29.1309 97.1271 29.6986 96.7891 30.2533C96.4598 30.7993 95.9961 31.2976 95.3981 31.7483C94.8001 32.1903 94.0721 32.5456 93.2141 32.8143C92.3648 33.0743 91.3941 33.2043 90.3021 33.2043C88.8201 33.2043 87.5244 32.9009 86.4151 32.2943C85.3058 31.6876 84.4391 30.8426 83.8151 29.7593C83.1998 28.6759 82.8921 27.4366 82.8921 26.0413C82.8921 24.6113 83.2041 23.3589 83.8281 22.2843C84.4608 21.2096 85.3361 20.3733 86.4541 19.7753C87.5721 19.1686 88.8548 18.8653 90.3021 18.8653C91.7928 18.8653 93.0798 19.1686 94.1631 19.7753C95.2551 20.3819 96.0958 21.2269 96.6851 22.3103C97.2744 23.3849 97.5691 24.6373 97.5691 26.0673C97.5691 26.2493 97.5648 26.4443 97.5561 26.6523C97.5474 26.8603 97.5344 27.0119 97.5171 27.1073H84.7771ZM105.12 33.1913C104.089 33.1913 103.183 33.0309 102.403 32.7103C101.623 32.3809 101.012 31.9086 100.57 31.2933C100.128 30.6779 99.9069 29.9369 99.9069 29.0703C99.9069 28.1256 100.163 27.3499 100.674 26.7433C101.194 26.1279 101.892 25.6556 102.767 25.3263C103.642 24.9883 104.613 24.7716 105.679 24.6763C107.256 24.5203 108.357 24.3729 108.981 24.2343C109.614 24.0869 109.93 23.8529 109.93 23.5323C109.93 23.5236 109.93 23.5193 109.93 23.5193C109.93 23.5106 109.93 23.5063 109.93 23.5063C109.93 22.8996 109.657 22.4316 109.111 22.1023C108.565 21.7729 107.794 21.6083 106.797 21.6083C105.748 21.6083 104.942 21.7946 104.379 22.1673C103.824 22.5313 103.547 23.1119 103.547 23.9093H100.167C100.167 22.8259 100.453 21.9116 101.025 21.1663C101.606 20.4123 102.399 19.8403 103.404 19.4503C104.409 19.0603 105.549 18.8653 106.823 18.8653C108.01 18.8653 109.098 19.0429 110.086 19.3983C111.074 19.7536 111.867 20.2909 112.465 21.0103C113.063 21.7296 113.362 22.6266 113.362 23.7013C113.362 23.8833 113.362 24.0653 113.362 24.2473C113.362 24.4293 113.362 24.6113 113.362 24.7933V29.9933C113.362 30.3226 113.371 30.6476 113.388 30.9683C113.414 31.2803 113.462 31.5619 113.531 31.8133C113.618 32.0906 113.722 32.3246 113.843 32.5153C113.964 32.7059 114.06 32.8359 114.129 32.9053H110.749C110.688 32.8446 110.602 32.7276 110.489 32.5543C110.385 32.3723 110.29 32.1643 110.203 31.9303C110.116 31.6703 110.051 31.3929 110.008 31.0983C109.965 30.7949 109.943 30.4613 109.943 30.0973L110.619 30.5653C110.359 31.0939 109.96 31.5576 109.423 31.9563C108.894 32.3463 108.262 32.6496 107.525 32.8663C106.788 33.0829 105.987 33.1913 105.12 33.1913ZM105.952 30.5003C106.663 30.5003 107.321 30.3789 107.928 30.1363C108.535 29.8936 109.024 29.5209 109.397 29.0183C109.77 28.5069 109.956 27.8526 109.956 27.0553V25.2093L110.788 26.1453C110.233 26.3533 109.566 26.5266 108.786 26.6653C108.006 26.7953 107.217 26.8993 106.42 26.9773C105.397 27.0726 104.626 27.2503 104.106 27.5103C103.595 27.7703 103.339 28.1949 103.339 28.7843C103.339 29.3563 103.556 29.7853 103.989 30.0713C104.422 30.3573 105.077 30.5003 105.952 30.5003ZM120.098 12.5863V32.9053H116.731V12.5863H120.098ZM123.53 32.9053V19.0993H126.91V32.9053H123.53ZM125.233 16.5513C124.678 16.5513 124.193 16.4039 123.777 16.1093C123.37 15.8059 123.166 15.3856 123.166 14.8483C123.166 14.3196 123.37 13.9079 123.777 13.6133C124.193 13.3186 124.678 13.1713 125.233 13.1713C125.779 13.1713 126.256 13.3186 126.663 13.6133C127.07 13.9079 127.274 14.3196 127.274 14.8483C127.274 15.3856 127.07 15.8059 126.663 16.1093C126.256 16.4039 125.779 16.5513 125.233 16.5513ZM134.848 25.3783L134.822 26.9383L129.193 19.0993H132.937L137.175 25.2483L135.121 25.2353L139.281 19.0993H142.947L137.552 26.4963L137.461 25.0663L143.025 32.9053H139.281L134.978 26.7693L137.292 26.5613L132.651 32.9053H128.985L134.848 25.3783Z" fill="white"/>
<path d="M147.152 33.2693C146.614 33.2693 146.159 33.0829 145.787 32.7103C145.414 32.3376 145.228 31.8826 145.228 31.3453C145.228 30.8166 145.414 30.3659 145.787 29.9933C146.159 29.6119 146.614 29.4213 147.152 29.4213C147.68 29.4213 148.131 29.6119 148.504 29.9933C148.885 30.3659 149.076 30.8166 149.076 31.3453C149.076 31.8826 148.885 32.3376 148.504 32.7103C148.131 33.0829 147.68 33.2693 147.152 33.2693Z" fill="#F9D67B"/>
</svg>
