<svg width="51" height="51" viewBox="0 0 51 51" fill="none" xmlns="http://www.w3.org/2000/svg">
<g clip-path="url(#clip0_170_9987)">
<path d="M12.1071 22.2923C17.5314 22.2923 21.9286 17.8951 21.9286 12.4708C21.9286 7.04662 17.5314 2.64941 12.1071 2.64941C6.68291 2.64941 2.28571 7.04662 2.28571 12.4708C2.28571 17.8951 6.68291 22.2923 12.1071 22.2923Z" stroke="#014E4E" stroke-width="2" stroke-linecap="round" stroke-linejoin="round"/>
<path d="M38.8928 22.2923C44.3171 22.2923 48.7143 17.8951 48.7143 12.4708C48.7143 7.04662 44.3171 2.64941 38.8928 2.64941C33.4686 2.64941 29.0714 7.04662 29.0714 12.4708C29.0714 17.8951 33.4686 22.2923 38.8928 22.2923Z" stroke="#014E4E" stroke-width="2" stroke-linecap="round" stroke-linejoin="round"/>
<path d="M12.1071 49.0779C17.5314 49.0779 21.9286 44.6807 21.9286 39.2565C21.9286 33.8323 17.5314 29.4351 12.1071 29.4351C6.68291 29.4351 2.28571 33.8323 2.28571 39.2565C2.28571 44.6807 6.68291 49.0779 12.1071 49.0779Z" stroke="#014E4E" stroke-width="2" stroke-linecap="round" stroke-linejoin="round"/>
<path d="M38.8928 49.0779C44.3171 49.0779 48.7143 44.6807 48.7143 39.2565C48.7143 33.8323 44.3171 29.4351 38.8928 29.4351C33.4686 29.4351 29.0714 33.8323 29.0714 39.2565C29.0714 44.6807 33.4686 49.0779 38.8928 49.0779Z" stroke="#014E4E" stroke-width="2" stroke-linecap="round" stroke-linejoin="round"/>
</g>
<defs>
<clipPath id="clip0_170_9987">
<rect width="50" height="50" fill="white" transform="translate(0.5 0.86377)"/>
</clipPath>
</defs>
</svg>
