<svg width="50" height="51" viewBox="0 0 50 51" fill="none" xmlns="http://www.w3.org/2000/svg">
<path d="M25.0001 15.1493C27.9588 15.1493 30.3572 12.7509 30.3572 9.7922C30.3572 6.83353 27.9588 4.43506 25.0001 4.43506C22.0414 4.43506 19.6429 6.83353 19.6429 9.7922C19.6429 12.7509 22.0414 15.1493 25.0001 15.1493Z" stroke="#014E4E" stroke-width="2" stroke-linecap="round" stroke-linejoin="round"/>
<path d="M7.14291 47.2924C10.1016 47.2924 12.5001 44.8939 12.5001 41.9353C12.5001 38.9766 10.1016 36.5781 7.14291 36.5781C4.18424 36.5781 1.78577 38.9766 1.78577 41.9353C1.78577 44.8939 4.18424 47.2924 7.14291 47.2924Z" stroke="#014E4E" stroke-width="2" stroke-linecap="round" stroke-linejoin="round"/>
<path d="M25.0001 47.2924C27.9588 47.2924 30.3572 44.8939 30.3572 41.9353C30.3572 38.9766 27.9588 36.5781 25.0001 36.5781C22.0414 36.5781 19.6429 38.9766 19.6429 41.9353C19.6429 44.8939 22.0414 47.2924 25.0001 47.2924Z" stroke="#014E4E" stroke-width="2" stroke-linecap="round" stroke-linejoin="round"/>
<path d="M42.8571 47.2924C45.8158 47.2924 48.2143 44.8939 48.2143 41.9353C48.2143 38.9766 45.8158 36.5781 42.8571 36.5781C39.8985 36.5781 37.5 38.9766 37.5 41.9353C37.5 44.8939 39.8985 47.2924 42.8571 47.2924Z" stroke="#014E4E" stroke-width="2" stroke-linecap="round" stroke-linejoin="round"/>
<path d="M7.14294 36.5781V29.4352C7.14294 28.488 7.51922 27.5796 8.18899 26.9098C8.85876 26.24 9.76717 25.8638 10.7144 25.8638H39.2858C40.233 25.8638 41.1414 26.24 41.8112 26.9098C42.481 27.5796 42.8572 28.488 42.8572 29.4352V36.5781" stroke="#014E4E" stroke-width="2" stroke-linecap="round" stroke-linejoin="round"/>
<path d="M25 15.1494V36.578" stroke="#014E4E" stroke-width="2" stroke-linecap="round" stroke-linejoin="round"/>
</svg>
