<svg width="21" height="21" viewBox="0 0 21 21" fill="none" xmlns="http://www.w3.org/2000/svg">
<g clip-path="url(#clip0_208_101)">
<path d="M2.44722 3.29522C2.51817 3.29509 2.58912 3.2949 2.66008 3.29467C2.85441 3.29418 3.04873 3.29442 3.24306 3.29479C3.45289 3.29505 3.66271 3.29464 3.87254 3.29432C4.28334 3.2938 4.69413 3.29391 5.10493 3.29425C5.43882 3.29451 5.77271 3.29455 6.1066 3.29442C6.15413 3.29441 6.20167 3.29439 6.25064 3.29437C6.34721 3.29433 6.44378 3.29429 6.54036 3.29425C7.44572 3.29392 8.35109 3.2943 9.25645 3.29493C10.0332 3.29546 10.8099 3.29537 11.5866 3.29483C12.4887 3.2942 13.3909 3.29395 14.293 3.29431C14.3892 3.29435 14.4854 3.29439 14.5816 3.29442C14.629 3.29444 14.6763 3.29446 14.7251 3.29448C15.0585 3.29458 15.392 3.29441 15.7255 3.29413C16.1319 3.2938 16.5383 3.29389 16.9447 3.29452C17.152 3.29482 17.3593 3.29495 17.5667 3.29456C17.7565 3.29421 17.9464 3.2944 18.1363 3.29502C18.2049 3.29516 18.2735 3.29509 18.3421 3.2948C18.6852 3.29349 19.0055 3.29421 19.3285 3.42729C19.2706 3.54865 19.2124 3.63045 19.1156 3.72453C19.0756 3.76396 19.0756 3.76396 19.0347 3.80418C18.9928 3.84482 18.9928 3.84482 18.9501 3.88628C18.8953 3.93968 18.8406 3.99319 18.786 4.0468C18.7497 4.08213 18.7497 4.08213 18.7125 4.11817C18.6397 4.19366 18.5715 4.27053 18.5032 4.35005C18.3525 4.52265 18.1934 4.68533 18.0314 4.84727C18.0003 4.87859 17.9691 4.90991 17.937 4.94217C17.8332 5.04638 17.7293 5.15045 17.6254 5.25451C17.5506 5.32946 17.476 5.40444 17.4013 5.47941C17.1778 5.70362 16.9542 5.92764 16.7305 6.15164C16.6251 6.25727 16.5196 6.36292 16.4142 6.46857C16.0636 6.81984 15.7129 7.17106 15.3621 7.52213C15.2713 7.613 15.1806 7.70387 15.0898 7.79474C15.0559 7.82861 15.0559 7.82861 15.0214 7.86317C14.6552 8.22973 14.2893 8.59662 13.9235 8.96365C13.5476 9.34083 13.1714 9.71772 12.7949 10.0943C12.5837 10.3056 12.3726 10.5171 12.1618 10.7288C11.9825 10.909 11.803 11.0889 11.6231 11.2684C11.5313 11.36 11.4397 11.4517 11.3484 11.5437C11.2494 11.6434 11.1499 11.7427 11.0503 11.8418C11.0215 11.871 10.9927 11.9002 10.9631 11.9302C10.7471 12.1435 10.5844 12.222 10.2747 12.2305C9.96966 12.1807 9.7945 12.0013 9.58531 11.7891C9.55321 11.7572 9.5211 11.7252 9.48803 11.6923C9.39937 11.6039 9.31107 11.5152 9.22291 11.4264C9.12759 11.3304 9.03183 11.235 8.93612 11.1395C8.74882 10.9524 8.56194 10.765 8.37519 10.5773C8.15752 10.3587 7.93943 10.1405 7.72131 9.92232C7.33198 9.53284 6.94302 9.143 6.55427 8.75294C6.17742 8.37483 5.80035 7.99693 5.42302 7.61929C5.3998 7.59605 5.37657 7.5728 5.35264 7.54885C5.25927 7.4554 5.1659 7.36196 5.07252 7.26851C4.71249 6.90819 4.35262 6.5477 3.99278 6.18719C3.88421 6.07841 3.77564 5.96964 3.66705 5.86089C3.4387 5.6322 3.21042 5.40345 2.98231 5.17453C2.88802 5.07991 2.7937 4.98531 2.6993 4.8908C2.59677 4.78811 2.49436 4.68531 2.39198 4.58247C2.34763 4.53813 2.34763 4.53813 2.30239 4.4929C2.14517 4.33469 1.99442 4.17312 1.84946 4.00358C1.7398 3.87849 1.61928 3.76473 1.49913 3.64977C1.45127 3.60304 1.40532 3.55437 1.35974 3.50542C1.35974 3.47964 1.35974 3.45385 1.35974 3.42729C1.71396 3.28135 2.07166 3.29367 2.44722 3.29522Z" fill="white"/>
<path d="M7.3363 11.1621C7.46729 11.2242 7.55232 11.2912 7.65408 11.3954C7.68553 11.4273 7.71697 11.4593 7.74937 11.4922C7.79997 11.5441 7.79997 11.5441 7.85159 11.5971C7.90536 11.6516 7.95913 11.7061 8.01293 11.7606C8.14511 11.8946 8.27688 12.029 8.4084 12.1636C8.48219 12.2391 8.5562 12.3143 8.63044 12.3894C8.70009 12.4598 8.76942 12.5306 8.83837 12.6017C9.26459 13.0315 9.71659 13.302 10.3295 13.3203C11.1507 13.3101 11.6363 12.8072 12.1828 12.2569C12.2143 12.2253 12.2459 12.1938 12.2783 12.1612C12.3775 12.0618 12.4765 11.9623 12.5756 11.8628C12.6434 11.7948 12.7113 11.7267 12.7791 11.6587C12.9441 11.4933 13.109 11.3277 13.2738 11.1621C13.4269 11.2243 13.53 11.3294 13.6442 11.4448C13.6654 11.4658 13.6865 11.4869 13.7083 11.5086C13.7792 11.5792 13.8498 11.6501 13.9204 11.7211C13.9711 11.7718 14.0219 11.8225 14.0727 11.8731C14.2106 12.0109 14.3483 12.1489 14.486 12.2869C14.6302 12.4315 14.7746 12.5758 14.919 12.7202C15.1616 12.9629 15.4041 13.2057 15.6465 13.4486C15.9263 13.7291 16.2063 14.0093 16.4864 14.2894C16.785 14.5879 17.0834 14.8866 17.3817 15.1853C17.4675 15.2711 17.5533 15.3569 17.6391 15.4427C17.7743 15.578 17.9094 15.7134 18.0445 15.8488C18.0939 15.8984 18.1434 15.9479 18.1929 15.9974C18.6463 16.4506 18.6463 16.4506 18.845 16.6858C18.9518 16.8093 19.0712 16.9205 19.1891 17.0334C19.237 17.0801 19.2829 17.1288 19.3285 17.1777C19.3285 17.2035 19.3285 17.2293 19.3285 17.2559C18.9743 17.4018 18.6166 17.3895 18.241 17.3879C18.1701 17.3881 18.0991 17.3882 18.0282 17.3885C17.8338 17.389 17.6395 17.3887 17.4452 17.3884C17.2353 17.3881 17.0255 17.3885 16.8157 17.3888C16.4049 17.3894 15.9941 17.3892 15.5833 17.3889C15.2494 17.3886 14.9155 17.3886 14.5816 17.3887C14.5341 17.3887 14.4866 17.3888 14.4376 17.3888C14.341 17.3888 14.2444 17.3889 14.1479 17.3889C13.2425 17.3892 12.3371 17.3888 11.4318 17.3882C10.6551 17.3877 9.87837 17.3878 9.10167 17.3883C8.19952 17.389 7.29738 17.3892 6.39524 17.3888C6.29902 17.3888 6.20281 17.3888 6.1066 17.3887C6.05926 17.3887 6.01192 17.3887 5.96315 17.3887C5.62969 17.3886 5.29624 17.3887 4.96278 17.389C4.55637 17.3893 4.14995 17.3893 3.74354 17.3886C3.53621 17.3883 3.32889 17.3882 3.12156 17.3886C2.93169 17.3889 2.74183 17.3888 2.55197 17.3881C2.48336 17.388 2.41476 17.3881 2.34615 17.3883C2.00307 17.3897 1.68275 17.3889 1.35974 17.2559C1.41402 17.1429 1.46522 17.0631 1.55551 16.9757C1.5787 16.9529 1.60189 16.9302 1.62578 16.9067C1.64997 16.8834 1.67417 16.86 1.6991 16.8359C1.83798 16.7011 1.97448 16.5669 2.09936 16.4188C2.30641 16.1809 2.53218 15.9611 2.75538 15.7386C2.80546 15.6885 2.85553 15.6385 2.90559 15.5884C3.04075 15.4532 3.17602 15.3182 3.31132 15.1831C3.45299 15.0417 3.59454 14.9002 3.73611 14.7587C4.00385 14.491 4.2717 14.2235 4.53958 13.956C4.84469 13.6513 5.1497 13.3466 5.45469 13.0418C6.08177 12.4151 6.70899 11.7885 7.3363 11.1621Z" fill="white"/>
<path d="M0.500306 4.28711C0.663768 4.36218 0.775521 4.47355 0.900756 4.60004C0.925135 4.62435 0.949515 4.64867 0.974633 4.67371C1.05639 4.75534 1.13786 4.83724 1.21934 4.91915C1.27784 4.97767 1.33636 5.03618 1.3949 5.09467C1.55389 5.25364 1.71264 5.41286 1.87135 5.57211C2.03721 5.73845 2.20328 5.90457 2.36933 6.07072C2.6838 6.38543 2.99807 6.70034 3.31227 7.01532C3.66996 7.37388 4.02786 7.73222 4.38579 8.09054C5.12213 8.82769 5.85818 9.56512 6.59406 10.3027C6.52952 10.4689 6.4056 10.5802 6.28165 10.7032C6.25739 10.7276 6.23314 10.7519 6.20814 10.7771C6.1267 10.8588 6.04498 10.9403 5.96326 11.0218C5.90486 11.0803 5.84648 11.1388 5.78811 11.1973C5.62947 11.3563 5.47058 11.5151 5.31163 11.6738C5.14555 11.8397 4.97967 12.0057 4.81376 12.1718C4.53516 12.4505 4.2564 12.7291 3.97755 13.0075C3.65473 13.3299 3.3322 13.6526 3.00981 13.9754C2.73334 14.2523 2.45673 14.5289 2.17999 14.8055C2.01454 14.9708 1.84916 15.1361 1.6839 15.3017C1.52864 15.4571 1.3732 15.6124 1.2176 15.7676C1.16037 15.8247 1.1032 15.8819 1.04611 15.9392C0.968488 16.017 0.890633 16.0946 0.81271 16.1721C0.789889 16.1951 0.767067 16.2181 0.743554 16.2418C0.587349 16.3965 0.587349 16.3965 0.500306 16.3965C0.366595 16.0879 0.321452 15.8256 0.324214 15.4909C0.323971 15.4449 0.323727 15.3989 0.323476 15.3515C0.322964 15.225 0.323143 15.0986 0.32363 14.9721C0.323985 14.8352 0.323437 14.6984 0.323008 14.5615C0.322315 14.2939 0.322462 14.0262 0.322916 13.7586C0.32327 13.541 0.323317 13.3233 0.323147 13.1057C0.323123 13.0747 0.323099 13.0436 0.323074 13.0117C0.323024 12.9486 0.322974 12.8855 0.322922 12.8224C0.322477 12.2318 0.322988 11.6412 0.323829 11.0506C0.324527 10.5444 0.324405 10.0383 0.323685 9.53213C0.322848 8.94354 0.32252 8.35496 0.323 7.76637C0.323049 7.70354 0.323098 7.64071 0.323147 7.57788C0.323171 7.54697 0.323195 7.51606 0.32322 7.48422C0.323355 7.26699 0.323128 7.04977 0.322759 6.83255C0.32232 6.56762 0.322442 6.3027 0.323272 6.03777C0.323681 5.90275 0.323846 5.76773 0.323327 5.63271C0.322899 5.48602 0.323437 5.33936 0.324214 5.19267C0.323866 5.15044 0.323517 5.10821 0.323158 5.06471C0.326086 4.77885 0.386762 4.54913 0.500306 4.28711Z" fill="white"/>
<path d="M20.1879 4.28711C20.3216 4.59566 20.3667 4.85796 20.364 5.19267C20.3642 5.23867 20.3644 5.28468 20.3647 5.33208C20.3652 5.45855 20.365 5.585 20.3645 5.71148C20.3642 5.84835 20.3647 5.98521 20.3652 6.12208C20.3659 6.38972 20.3657 6.65736 20.3653 6.925C20.3649 7.14263 20.3649 7.36025 20.365 7.57788C20.365 7.60892 20.3651 7.63996 20.3651 7.67194C20.3651 7.73501 20.3652 7.79808 20.3652 7.86115C20.3657 8.45177 20.3652 9.04238 20.3643 9.633C20.3636 10.1392 20.3638 10.6453 20.3645 11.1515C20.3653 11.7401 20.3657 12.3286 20.3652 12.9172C20.3651 12.9801 20.3651 13.0429 20.365 13.1057C20.365 13.1521 20.365 13.1521 20.365 13.1994C20.3648 13.4166 20.365 13.6338 20.3654 13.851C20.3659 14.116 20.3657 14.3809 20.3649 14.6458C20.3645 14.7808 20.3643 14.9159 20.3648 15.0509C20.3653 15.1976 20.3647 15.3442 20.364 15.4909C20.3643 15.5332 20.3647 15.5754 20.365 15.6189C20.3621 15.9047 20.3014 16.1345 20.1879 16.3965C20.0244 16.3214 19.9127 16.21 19.7874 16.0836C19.763 16.0592 19.7387 16.0349 19.7135 16.0099C19.6318 15.9283 19.5503 15.8463 19.4688 15.7644C19.4103 15.7059 19.3518 15.6474 19.2933 15.5889C19.1343 15.4299 18.9755 15.2707 18.8168 15.1115C18.651 14.9451 18.4849 14.779 18.3188 14.6129C18.0044 14.2982 17.6901 13.9833 17.3759 13.6683C17.0182 13.3097 16.6603 12.9514 16.3024 12.5931C15.566 11.8559 14.83 11.1185 14.0941 10.3809C14.1881 10.2044 14.3084 10.0774 14.4488 9.93813C14.4729 9.91388 14.4971 9.88963 14.5219 9.86464C14.6027 9.78354 14.6838 9.70273 14.7648 9.62192C14.8228 9.56379 14.8808 9.50565 14.9388 9.44749C15.0963 9.2897 15.2539 9.13216 15.4117 8.97468C15.5766 8.81 15.7412 8.64513 15.906 8.48029C16.1825 8.20363 16.4592 7.92713 16.7359 7.65073C17.0563 7.33075 17.3765 7.01049 17.6964 6.69009C17.9709 6.41526 18.2455 6.14059 18.5203 5.86604C18.6845 5.70194 18.8487 5.53779 19.0127 5.37351C19.1668 5.21921 19.321 5.0651 19.4754 4.91114C19.5322 4.85445 19.589 4.7977 19.6456 4.74087C19.7226 4.66364 19.7999 4.58665 19.8772 4.50972C19.8999 4.48691 19.9225 4.46409 19.9458 4.44058C20.1008 4.28711 20.1008 4.28711 20.1879 4.28711Z" fill="white"/>
</g>
<defs>
<clipPath id="clip0_208_101">
<rect width="20" height="20" fill="white" transform="translate(0.344116 0.341797)"/>
</clipPath>
</defs>
</svg>
