<svg width="30" height="31" viewBox="0 0 30 31" fill="none" xmlns="http://www.w3.org/2000/svg">
<g clip-path="url(#clip0_208_850)">
<path d="M28.7786 8.5564C28.7372 8.33184 28.649 8.1185 28.5198 7.93022C28.3906 7.74195 28.2232 7.58295 28.0286 7.46355L23.7429 11.7493C23.543 11.9567 23.3033 12.1216 23.0382 12.2343C22.7732 12.347 22.4881 12.405 22.2 12.405C21.912 12.405 21.6269 12.347 21.3618 12.2343C21.0967 12.1216 20.8571 11.9567 20.6572 11.7493L19.0286 10.2921C18.636 9.89156 18.416 9.35302 18.416 8.79212C18.416 8.23122 18.636 7.69268 19.0286 7.29212L23.3143 3.0064C23.2208 2.78684 23.0803 2.5905 22.9025 2.43127C22.7248 2.27205 22.5142 2.15383 22.2857 2.08498C20.7904 1.78678 19.2414 1.91442 17.815 2.45338C16.3887 2.99234 15.1423 3.92096 14.2178 5.13351C13.2933 6.34607 12.7279 7.79384 12.5858 9.31199C12.4438 10.8301 12.7308 12.3577 13.4143 13.7207L1.71431 25.3135C1.51021 25.5131 1.34805 25.7514 1.23733 26.0146C1.12661 26.2777 1.06958 26.5602 1.06958 26.8457C1.06958 27.1311 1.12661 27.4137 1.23733 27.6768C1.34805 27.9399 1.51021 28.1783 1.71431 28.3778L2.48574 29.1493C2.68531 29.3534 2.92364 29.5155 3.18675 29.6262C3.44986 29.737 3.73243 29.794 4.01788 29.794C4.30334 29.794 4.58591 29.737 4.84902 29.6262C5.11213 29.5155 5.35046 29.3534 5.55003 29.1493L17.25 17.4707C18.6134 18.1203 20.1302 18.3789 21.6318 18.218C23.1334 18.057 24.561 17.4827 25.7557 16.5589C26.9504 15.6351 27.8655 14.398 28.3991 12.9852C28.9328 11.5725 29.0642 10.0394 28.7786 8.5564V8.5564Z" stroke="#014E4E" stroke-width="2" stroke-linecap="round" stroke-linejoin="round"/>
</g>
<defs>
<clipPath id="clip0_208_850">
<rect width="30" height="30" fill="white" transform="translate(0 0.863281)"/>
</clipPath>
</defs>
</svg>
