<svg width="24" height="24" viewBox="0 0 24 24" fill="none" xmlns="http://www.w3.org/2000/svg">
<path d="M22.1006 11.4456L19.0871 10.5844C17.73 10.2018 16.4938 9.47734 15.4968 8.48032C14.4998 7.48331 13.7753 6.24711 13.3927 4.89002L12.5315 1.87645C12.4882 1.77101 12.4145 1.68083 12.3198 1.61737C12.2252 1.5539 12.1137 1.52002 11.9998 1.52002C11.8858 1.52002 11.7744 1.5539 11.6797 1.61737C11.585 1.68083 11.5113 1.77101 11.468 1.87645L10.6068 4.89002C10.2242 6.24711 9.49978 7.48331 8.50276 8.48032C7.50575 9.47734 6.26955 10.2018 4.91246 10.5844L1.89889 11.4456C1.78318 11.4784 1.68134 11.5481 1.60882 11.6441C1.5363 11.74 1.49707 11.857 1.49707 11.9773C1.49707 12.0976 1.5363 12.2146 1.60882 12.3106C1.68134 12.4065 1.78318 12.4762 1.89889 12.5091L4.91246 13.3702C6.26955 13.7528 7.50575 14.4773 8.50276 15.4743C9.49978 16.4713 10.2242 17.7075 10.6068 19.0646L11.468 22.0782C11.5009 22.1939 11.5706 22.2958 11.6665 22.3683C11.7625 22.4408 11.8795 22.48 11.9998 22.48C12.12 22.48 12.237 22.4408 12.333 22.3683C12.429 22.2958 12.4987 22.1939 12.5315 22.0782L13.3927 19.0646C13.7753 17.7075 14.4998 16.4713 15.4968 15.4743C16.4938 14.4773 17.73 13.7528 19.0871 13.3702L22.1006 12.5091C22.2164 12.4762 22.3182 12.4065 22.3907 12.3106C22.4632 12.2146 22.5025 12.0976 22.5025 11.9773C22.5025 11.857 22.4632 11.74 22.3907 11.6441C22.3182 11.5481 22.2164 11.4784 22.1006 11.4456Z" fill="#F9D67B"/>
</svg>
