<svg width="20" height="20" viewBox="0 0 20 20" fill="none" xmlns="http://www.w3.org/2000/svg">
<g clip-path="url(#clip0_510_441)">
<path d="M10.6715 9.85628C10.4596 9.94829 10.2311 9.99577 10.0001 9.99577C9.7691 9.99577 9.54057 9.94829 9.32868 9.85628L1.18582 6.08486C1.05359 6.01816 0.942476 5.91608 0.864838 5.78996C0.787201 5.66385 0.746094 5.51866 0.746094 5.37057C0.746094 5.22248 0.787201 5.07729 0.864838 4.95118C0.942476 4.82506 1.05359 4.72298 1.18582 4.65628L9.32868 0.856285C9.54057 0.764275 9.7691 0.716797 10.0001 0.716797C10.2311 0.716797 10.4596 0.764275 10.6715 0.856285L18.8144 4.62771C18.9466 4.69441 19.0577 4.79649 19.1354 4.9226C19.213 5.04872 19.2541 5.1939 19.2541 5.342C19.2541 5.49009 19.213 5.63528 19.1354 5.76139C19.0577 5.8875 18.9466 5.98959 18.8144 6.05628L10.6715 9.85628Z" stroke="#014E4E" stroke-linecap="round" stroke-linejoin="round"/>
<path d="M19.2863 10.5L10.572 14.5143C10.3859 14.5992 10.1837 14.6431 9.97913 14.6431C9.77457 14.6431 9.57239 14.5992 9.38627 14.5143L0.714844 10.5" stroke="#014E4E" stroke-linecap="round" stroke-linejoin="round"/>
<path d="M19.2863 15.1406L10.572 19.1549C10.3859 19.2398 10.1837 19.2837 9.97913 19.2837C9.77457 19.2837 9.57239 19.2398 9.38627 19.1549L0.714844 15.1406" stroke="#014E4E" stroke-linecap="round" stroke-linejoin="round"/>
</g>
<defs>
<clipPath id="clip0_510_441">
<rect width="20" height="20" fill="white"/>
</clipPath>
</defs>
</svg>
