<svg width="30" height="31" viewBox="0 0 30 31" fill="none" xmlns="http://www.w3.org/2000/svg">
<path d="M14.9999 9.43443C16.7751 9.43443 18.2142 7.99535 18.2142 6.22015C18.2142 4.44494 16.7751 3.00586 14.9999 3.00586C13.2247 3.00586 11.7856 4.44494 11.7856 6.22015C11.7856 7.99535 13.2247 9.43443 14.9999 9.43443Z" stroke="#014E4E" stroke-width="2" stroke-linecap="round" stroke-linejoin="round"/>
<path d="M4.28557 28.7206C6.06078 28.7206 7.49986 27.2815 7.49986 25.5063C7.49986 23.7311 6.06078 22.292 4.28557 22.292C2.51037 22.292 1.07129 23.7311 1.07129 25.5063C1.07129 27.2815 2.51037 28.7206 4.28557 28.7206Z" stroke="#014E4E" stroke-width="2" stroke-linecap="round" stroke-linejoin="round"/>
<path d="M14.9999 28.7206C16.7751 28.7206 18.2142 27.2815 18.2142 25.5063C18.2142 23.7311 16.7751 22.292 14.9999 22.292C13.2247 22.292 11.7856 23.7311 11.7856 25.5063C11.7856 27.2815 13.2247 28.7206 14.9999 28.7206Z" stroke="#014E4E" stroke-width="2" stroke-linecap="round" stroke-linejoin="round"/>
<path d="M25.7143 28.7206C27.4895 28.7206 28.9286 27.2815 28.9286 25.5063C28.9286 23.7311 27.4895 22.292 25.7143 22.292C23.9391 22.292 22.5 23.7311 22.5 25.5063C22.5 27.2815 23.9391 28.7206 25.7143 28.7206Z" stroke="#014E4E" stroke-width="2" stroke-linecap="round" stroke-linejoin="round"/>
<path d="M4.28564 22.2919V18.0061C4.28564 17.4378 4.51141 16.8928 4.91327 16.4909C5.31514 16.089 5.86018 15.8633 6.4285 15.8633H23.5714C24.1397 15.8633 24.6847 16.089 25.0866 16.4909C25.4885 16.8928 25.7142 17.4378 25.7142 18.0061V22.2919" stroke="#014E4E" stroke-width="2" stroke-linecap="round" stroke-linejoin="round"/>
<path d="M15 9.43457V22.2917" stroke="#014E4E" stroke-width="2" stroke-linecap="round" stroke-linejoin="round"/>
</svg>
