<svg width="31" height="31" viewBox="0 0 31 31" fill="none" xmlns="http://www.w3.org/2000/svg">
<g clip-path="url(#clip0_140_61)">
<path d="M16.3745 15.3337C16.0567 15.4718 15.7139 15.543 15.3673 15.543C15.0208 15.543 14.678 15.4718 14.3602 15.3337L2.14592 9.6766C1.94758 9.57656 1.7809 9.42343 1.66445 9.23426C1.54799 9.04509 1.48633 8.82731 1.48633 8.60517C1.48633 8.38303 1.54799 8.16525 1.66445 7.97608C1.7809 7.78691 1.94758 7.63378 2.14592 7.53374L14.3602 1.83374C14.678 1.69573 15.0208 1.62451 15.3673 1.62451C15.7139 1.62451 16.0567 1.69573 16.3745 1.83374L28.5888 7.49089C28.7871 7.59092 28.9538 7.74405 29.0703 7.93322C29.1867 8.12239 29.2484 8.34017 29.2484 8.56231C29.2484 8.78446 29.1867 9.00224 29.0703 9.19141C28.9538 9.38057 28.7871 9.5337 28.5888 9.63374L16.3745 15.3337Z" stroke="#014E4E" stroke-width="1.5" stroke-linecap="round" stroke-linejoin="round"/>
<path d="M29.2959 16.2979L16.2244 22.3193C15.9453 22.4466 15.642 22.5125 15.3351 22.5125C15.0283 22.5125 14.725 22.4466 14.4459 22.3193L1.43872 16.2979" stroke="#014E4E" stroke-width="1.5" stroke-linecap="round" stroke-linejoin="round"/>
<path d="M29.2959 23.2622L16.2244 29.2836C15.9453 29.411 15.642 29.4769 15.3351 29.4769C15.0283 29.4769 14.725 29.411 14.4459 29.2836L1.43872 23.2622" stroke="#014E4E" stroke-width="1.5" stroke-linecap="round" stroke-linejoin="round"/>
</g>
<defs>
<clipPath id="clip0_140_61">
<rect width="30" height="30" fill="white" transform="translate(0.367188 0.547852)"/>
</clipPath>
</defs>
</svg>
