<svg width="36" height="36" viewBox="0 0 36 36" fill="none" xmlns="http://www.w3.org/2000/svg">
<g clip-path="url(#clip0_194_120)">
<path d="M12.4936 0.0592552C14.3924 0.00523369 16.2364 0.604588 17.6484 1.89837C17.7127 1.9561 17.7769 2.01384 17.8431 2.07332C19.2499 3.40137 19.9287 5.18752 20.0522 7.09408C20.0967 8.95079 19.3925 10.8281 18.1329 12.1956C17.7056 12.6429 17.2618 13.0323 16.7343 13.3593C16.6477 13.4153 16.6477 13.4153 16.5594 13.4725C16.1655 13.7199 15.7652 13.9043 15.3281 14.0624C15.3281 14.0856 15.3281 14.1088 15.3281 14.1327C15.3701 14.1426 15.4121 14.1524 15.4553 14.1625C17.4082 14.6271 19.2019 15.4041 20.777 16.6637C20.8264 16.703 20.8758 16.7422 20.9267 16.7826C20.9668 16.8163 21.0068 16.8499 21.0481 16.8845C21.2079 16.9682 21.2736 16.9251 21.4453 16.8749C21.6121 16.8683 21.7792 16.8658 21.9462 16.8661C21.993 16.8661 22.0397 16.8661 22.0878 16.8661C22.4147 16.8681 22.7301 16.8946 23.052 16.9505C23.3314 16.9408 23.5071 16.7822 23.6977 16.5901C23.7448 16.5376 23.7918 16.4852 23.8403 16.4311C24.4653 15.7926 25.2389 15.5427 26.1123 15.517C26.901 15.5326 27.7169 15.7652 28.2886 16.335C28.383 16.4436 28.4751 16.5542 28.5641 16.6673C28.6938 16.8117 28.788 16.8777 28.9687 16.9452C29.2816 16.962 29.2816 16.962 29.5886 16.9106C30.346 16.7345 31.1674 16.8885 31.8367 17.2671C32.0142 17.3862 32.1792 17.5121 32.3437 17.6484C32.3884 17.6835 32.4331 17.7187 32.4791 17.7549C33.0936 18.2945 33.3709 19.0841 33.4582 19.8751C33.4897 20.1179 33.5234 20.2341 33.6975 20.4106C33.8831 20.5265 34.0686 20.6308 34.2641 20.7289C34.9162 21.0804 35.3161 21.4848 35.6484 22.1484C35.6776 22.2045 35.7068 22.2606 35.7368 22.3184C36.0499 23.0244 36.0623 23.9654 35.8066 24.6928C35.7118 24.9126 35.6002 25.12 35.4858 25.33C35.3429 25.6124 35.3442 25.7751 35.4375 26.0859C35.54 26.3058 35.6484 26.5209 35.7626 26.7349C36.0547 27.3232 36.0105 28.1515 35.8816 28.7819C35.8161 28.9709 35.7405 29.1428 35.6484 29.3202C35.6186 29.3806 35.5887 29.441 35.558 29.5032C35.1785 30.203 34.6496 30.5915 33.9329 30.9146C33.7568 31.0043 33.6641 31.0691 33.539 31.2187C33.4919 31.3541 33.4919 31.3541 33.4717 31.5043C33.4619 31.56 33.4521 31.6157 33.442 31.673C33.432 31.7319 33.4219 31.7908 33.4116 31.8515C33.2188 32.8501 32.7881 33.5695 31.9394 34.1586C31.1697 34.5976 30.3216 34.7073 29.4609 34.5234C29.0562 34.4866 28.8606 34.5455 28.5468 34.8046C28.4946 34.8713 28.4424 34.938 28.3886 35.0068C28.0001 35.5003 27.329 35.7595 26.7363 35.9076C25.7992 35.9978 24.8892 35.8896 24.1372 35.2836C23.96 35.1286 23.7864 34.976 23.625 34.8046C23.625 34.7582 23.625 34.7118 23.625 34.664C23.2906 34.4968 22.9445 34.462 22.5791 34.558C21.8522 34.7317 21.0643 34.5657 20.4183 34.2122C20.2625 34.1112 20.1155 34.0042 19.9687 33.8906C19.8599 33.8144 19.8599 33.8144 19.749 33.7367C19.1463 33.2147 18.8855 32.4559 18.7822 31.6933C18.7405 31.4324 18.7131 31.3038 18.5625 31.0825C18.3825 30.9588 18.2183 30.8714 18.0219 30.7792C17.2247 30.3978 16.7195 29.7599 16.3959 28.9511C16.2736 28.5649 16.2394 28.2331 16.2408 27.8294C16.241 27.7532 16.2412 27.6769 16.2414 27.5983C16.2416 27.5401 16.2419 27.4818 16.2421 27.4218C16.1273 27.4217 16.1273 27.4217 16.0102 27.4215C14.147 27.4189 12.2837 27.4147 10.4205 27.4089C9.51941 27.4061 8.61836 27.4038 7.7173 27.4028C6.93183 27.4018 6.14638 27.3999 5.36092 27.3969C4.94512 27.3953 4.52933 27.3942 4.11352 27.3943C3.72188 27.3943 3.33027 27.393 2.93863 27.3908C2.79516 27.3902 2.65168 27.3901 2.50821 27.3905C0.924804 27.3942 0.924803 27.3942 0.448658 26.9685C-0.000876065 26.4632 0.0204744 25.9386 0.0535105 25.2979C0.280288 22.6389 1.50369 20.1039 3.30079 18.1576C3.42536 18.0217 3.54355 17.883 3.6606 17.7407C3.89311 17.4691 4.15384 17.2423 4.42964 17.0156C4.53623 16.9273 4.53623 16.9273 4.64497 16.8373C6.3266 15.468 8.22871 14.61 10.3359 14.1327C10.2995 14.1144 10.2631 14.096 10.2255 14.0771C9.5228 13.7209 8.83689 13.3714 8.22651 12.8671C8.16262 12.8146 8.09872 12.7622 8.03288 12.7081C6.76053 11.6092 5.8684 10.0085 5.64226 8.33224C5.49355 6.21494 5.90027 4.2276 7.29927 2.57512C8.49666 1.21462 10.2259 0.215671 12.0585 0.0768333C12.2036 0.0713945 12.3486 0.0653996 12.4936 0.0592552ZM8.78901 2.81243C8.73545 2.85929 8.68188 2.90615 8.62669 2.95443C7.55635 3.95428 6.85802 5.45086 6.80598 6.91253C6.77644 8.67089 7.26983 10.1414 8.48909 11.4394C8.54166 11.4929 8.59423 11.5464 8.64839 11.6015C8.72072 11.6752 8.72072 11.6752 8.79451 11.7504C9.8808 12.7843 11.4485 13.3312 12.9337 13.3137C14.6177 13.2551 16.136 12.5385 17.2968 11.3202C18.2919 10.1718 18.9023 8.66311 18.8569 7.12896C18.7497 5.7622 18.3447 4.49249 17.4375 3.44524C17.3958 3.39349 17.3541 3.34173 17.3111 3.28841C16.3246 2.1042 14.8702 1.44419 13.3593 1.26555C11.6567 1.17097 10.0751 1.68107 8.78901 2.81243ZM4.07808 19.0546C2.54685 20.7993 1.26893 23.2856 1.25239 25.6508C1.2514 25.7165 1.2504 25.7822 1.24937 25.8499C1.24919 26.0289 1.24919 26.0289 1.4062 26.1562C1.60894 26.1698 1.8049 26.1745 2.0077 26.1731C2.0707 26.1732 2.1337 26.1733 2.19861 26.1735C2.41098 26.1737 2.62333 26.1729 2.8357 26.1721C2.98742 26.1721 3.13915 26.1721 3.29088 26.1722C3.70387 26.1722 4.11686 26.1714 4.52985 26.1704C4.96105 26.1696 5.39225 26.1695 5.82345 26.1693C6.64048 26.1689 7.4575 26.1677 8.27453 26.1663C9.20447 26.1647 10.1344 26.164 11.0644 26.1633C12.9778 26.1618 14.8912 26.1593 16.8046 26.1562C16.9214 25.9226 16.9182 25.7045 16.875 25.4531C16.779 25.2328 16.6688 25.0237 16.5563 24.8115C16.1969 24.1079 16.2407 23.3136 16.4506 22.5667C16.7794 21.6299 17.3195 21.0799 18.1974 20.6569C18.4539 20.5314 18.6423 20.4383 18.7734 20.1796C18.8111 20.0024 18.8408 19.8312 18.8657 19.6523C19.0034 18.8094 19.3673 18.176 19.9687 17.5781C15.0199 13.8386 8.25635 14.4987 4.07808 19.0546ZM24.5214 17.5033C24.2551 17.8365 23.8332 18.0664 23.414 18.1406C23.2735 18.147 23.1328 18.1497 22.9921 18.1493C22.9196 18.1495 22.8471 18.1497 22.7724 18.1499C22.5966 18.1418 22.4575 18.1152 22.289 18.0702C21.6357 18.0014 21.1627 18.1662 20.6542 18.5756C20.156 19.0451 20.024 19.4986 19.9385 20.1645C19.8413 20.7121 19.5798 21.1265 19.1513 21.4755C18.9608 21.6014 18.7656 21.6931 18.5581 21.788C18.068 22.0219 17.787 22.3189 17.572 22.8177C17.3454 23.4946 17.4118 23.9702 17.7187 24.6093C17.7879 24.7272 17.8578 24.8446 17.9296 24.9609C18.124 25.5481 18.0576 26.2422 17.789 26.789C17.6971 26.9541 17.6022 27.1175 17.5078 27.2812C17.3141 27.7815 17.4453 28.3532 17.6484 28.8281C17.9203 29.3485 18.298 29.5615 18.8037 29.8114C19.2691 30.0473 19.6165 30.3386 19.833 30.8254C19.9325 31.1307 19.9812 31.4382 20.0302 31.7548C20.1239 32.2946 20.3839 32.6847 20.8116 33.0243C21.2724 33.3267 21.7399 33.4635 22.289 33.3984C22.3332 33.3868 22.3775 33.3752 22.423 33.3632C23.0126 33.2224 23.594 33.3141 24.1171 33.6093C24.3669 33.7873 24.574 33.9941 24.7851 34.2158C25.2214 34.6303 25.6782 34.761 26.2696 34.7483C26.8542 34.6995 27.185 34.4497 27.6034 34.0515C27.7547 33.9082 27.9075 33.7763 28.0722 33.6489C28.1132 33.617 28.1542 33.5852 28.1964 33.5525C28.529 33.3528 28.8407 33.3099 29.2236 33.3149C29.3402 33.3156 29.3402 33.3156 29.4592 33.3162C29.6382 33.3262 29.7819 33.3516 29.9531 33.3984C30.5015 33.4635 30.9765 33.3294 31.4329 33.0193C31.8849 32.6523 32.153 32.2167 32.2327 31.6351C32.2442 31.5247 32.2442 31.5247 32.2558 31.412C32.3347 30.8842 32.5014 30.4604 32.9142 30.1071C33.16 29.9369 33.4112 29.8056 33.684 29.685C34.117 29.4763 34.4647 29.0743 34.664 28.6391C34.8539 28 34.8026 27.4017 34.4926 26.8198C34.4478 26.7414 34.4029 26.663 34.3567 26.5822C34.1064 26.1122 34.1168 25.61 34.2553 25.1059C34.3329 24.8602 34.4313 24.6661 34.5717 24.4511C34.8445 23.9841 34.804 23.4474 34.6901 22.9331C34.5022 22.3863 34.162 22.0075 33.65 21.7427C33.5634 21.7018 33.4766 21.6612 33.3896 21.621C32.8561 21.3743 32.591 21.0847 32.3613 20.5488C32.2805 20.3117 32.2438 20.0755 32.2075 19.8281C32.1134 19.2299 31.9236 18.8446 31.4483 18.46C30.9572 18.1255 30.4724 18.0071 29.8828 18.0702C29.8372 18.0819 29.7916 18.0936 29.7446 18.1057C29.2383 18.2291 28.6528 18.1821 28.1953 17.9296C27.9463 17.7332 27.719 17.5182 27.4921 17.2968C27.0842 16.9024 26.656 16.7302 26.0903 16.7035C25.4579 16.7242 24.9049 17.0027 24.5214 17.5033Z" fill="#014E4E"/>
<path d="M29.8123 20.5094C31.2396 21.6081 32.1462 23.0207 32.4317 24.8248C32.6439 26.54 32.2323 28.2486 31.1812 29.6299C30.4136 30.5964 29.4606 31.3132 28.2964 31.733C28.2492 31.7501 28.2019 31.7671 28.1533 31.7847C26.5296 32.3368 24.7261 32.1673 23.1927 31.4325C21.697 30.6685 20.5927 29.3499 20.0391 27.7735C19.5376 26.1072 19.6384 24.2791 20.4566 22.7258C20.8018 22.1054 21.2225 21.5912 21.7266 21.0938C21.7735 21.0471 21.8203 21.0003 21.8686 20.9521C22.4851 20.3758 23.2533 19.9619 24.0469 19.6876C24.1651 19.6461 24.1651 19.6461 24.2856 19.6038C26.1378 19.0472 28.2362 19.4013 29.8123 20.5094ZM22.1001 22.4342C21.2297 23.5541 20.8243 24.8859 20.9532 26.297C21.1447 27.716 21.8391 28.9658 22.9615 29.8565C24.1645 30.7232 25.543 31.0439 27.013 30.8467C27.9897 30.6699 28.8708 30.192 29.6016 29.5313C29.6514 29.4873 29.7011 29.4432 29.7524 29.3978C30.7462 28.4667 31.2553 27.1122 31.3067 25.7696C31.2865 24.3115 30.6828 23.0391 29.6719 22.0079C29.6251 21.9586 29.5784 21.9093 29.5302 21.8585C28.5674 20.9177 27.2239 20.5551 25.9129 20.5687C24.4063 20.6162 23.0917 21.3057 22.1001 22.4342Z" fill="#014E4E"/>
<path d="M29.6719 22.6407C30.042 22.961 30.2744 23.2928 30.3195 23.7876C30.3438 24.4008 30.2085 24.7831 29.7955 25.2315C29.2016 25.8731 28.5809 26.4896 27.9634 27.1083C27.7855 27.2865 27.6083 27.4654 27.4313 27.6444C27.2934 27.7836 27.1551 27.9223 27.0167 28.0608C26.9195 28.1583 26.8229 28.2563 26.7262 28.3542C26.6668 28.4134 26.6074 28.4726 26.5462 28.5336C26.4945 28.5856 26.4428 28.6375 26.3896 28.691C25.9646 29.0487 25.5057 29.1541 24.961 29.1094C24.2399 28.986 23.7978 28.3963 23.3195 27.893C23.1836 27.7534 23.0407 27.6258 22.8911 27.501C22.427 27.107 21.9884 26.6977 21.9089 26.072C21.893 25.4802 21.955 25.059 22.3594 24.6094C22.8432 24.2158 23.2934 24.1419 23.9063 24.1875C24.2914 24.2985 24.5395 24.5021 24.8277 24.7698C24.9602 24.89 25.0985 24.9953 25.2422 25.1016C25.2721 25.0712 25.302 25.0409 25.3328 25.0096C25.6447 24.693 25.9574 24.3772 26.2705 24.0618C26.3871 23.944 26.5036 23.8261 26.6199 23.708C26.7873 23.538 26.9554 23.3688 27.1236 23.1996C27.1753 23.1469 27.2269 23.0941 27.2801 23.0398C27.9793 22.3404 28.7833 22.1234 29.6719 22.6407ZM27.3798 24.6418C27.2919 24.7298 27.204 24.8178 27.1163 24.9059C26.982 25.0405 26.8474 25.1748 26.7127 25.309C26.6265 25.3953 26.5402 25.4816 26.454 25.568C26.4141 25.6077 26.3743 25.6474 26.3332 25.6883C26.1653 25.8573 26.0092 26.0237 25.8608 26.2106C25.6758 26.4398 25.5564 26.5028 25.2642 26.5474C24.8692 26.5366 24.6593 26.2872 24.3985 26.0157C24.3512 25.9644 24.304 25.9131 24.2554 25.8602C23.9599 25.5436 23.9599 25.5436 23.5679 25.3697C23.3507 25.3664 23.3507 25.3664 23.2075 25.4576C23.0967 25.6596 23.1046 25.7871 23.1328 26.0157C23.2546 26.1752 23.3661 26.3001 23.5099 26.4364C23.5484 26.4745 23.587 26.5126 23.6266 26.5519C23.7497 26.673 23.8741 26.7925 23.9985 26.9122C24.0815 26.9936 24.1644 27.0752 24.2473 27.1569C24.6513 27.563 24.6513 27.563 25.1016 27.9141C25.6538 27.8694 26.0021 27.3708 26.3485 26.9833C26.6721 26.6259 27.0098 26.2852 27.3543 25.9481C27.428 25.8758 27.428 25.8758 27.5031 25.802C27.7066 25.6023 27.9101 25.4028 28.115 25.2046C28.2665 25.0578 28.4169 24.9098 28.5672 24.7616C28.6136 24.7172 28.6601 24.6728 28.7079 24.6271C28.9091 24.427 29.0257 24.301 29.1111 24.0259C29.1274 23.8276 29.1274 23.8276 28.9907 23.669C28.4244 23.271 27.7582 24.2646 27.3798 24.6418Z" fill="#014E4E"/>
</g>
<defs>
<clipPath id="clip0_194_120">
<rect width="36" height="36" fill="white"/>
</clipPath>
</defs>
</svg>
