<svg width="31" height="31" viewBox="0 0 31 31" fill="none" xmlns="http://www.w3.org/2000/svg">
<path d="M26.135 19.8371L22.8325 17.8671C22.0622 17.407 21.1446 17.2604 20.2692 17.4574C19.3939 17.6544 18.6276 18.1801 18.1287 18.9259L17.1762 20.3471C14.4562 19.0108 12.2576 16.8082 10.9262 14.0859L12.34 13.1446C13.0868 12.6484 13.6146 11.8844 13.8146 11.0103C14.0147 10.1363 13.8716 9.21878 13.415 8.44712L11.465 5.14712C11.1642 4.64388 10.7143 4.2467 10.1776 4.01063C9.64098 3.77455 9.04418 3.7113 8.46997 3.82962C7.57463 4.01004 6.72579 4.37211 5.97589 4.89348C5.22598 5.41485 4.59093 6.08443 4.10997 6.86087C3.63558 7.61817 3.32392 8.46588 3.1948 9.35012C3.06568 10.2344 3.12193 11.1358 3.35997 11.9971C4.41617 15.7989 6.43838 19.2626 9.22988 22.0512C12.0214 24.8399 15.4871 26.8585 19.29 27.9109C20.1505 28.1488 21.0511 28.205 21.9345 28.0759C22.8179 27.9467 23.6648 27.6351 24.4212 27.1609C25.1979 26.6803 25.8677 26.0455 26.3893 25.2958C26.9109 24.5461 27.2731 23.6974 27.4537 22.8021C27.5669 22.2322 27.501 21.6412 27.2648 21.1104C27.0287 20.5795 26.634 20.1347 26.135 19.8371ZM25.615 22.4371C25.4849 23.0793 25.2244 23.688 24.8496 24.2255C24.4749 24.763 23.9938 25.218 23.4362 25.5621C22.898 25.8997 22.2954 26.1215 21.6668 26.2134C21.0382 26.3053 20.3973 26.2653 19.785 26.0959C16.2973 25.1303 13.1188 23.2786 10.5587 20.7208C7.99856 18.1631 6.14386 14.9864 5.17497 11.4996C5.00474 10.8868 4.96417 10.2453 5.05586 9.61597C5.14755 8.98664 5.36948 8.38334 5.70747 7.84462C6.05466 7.28377 6.51364 6.80044 7.0558 6.42473C7.59795 6.04903 8.21168 5.78901 8.85872 5.66087C8.91961 5.64844 8.98158 5.64216 9.04372 5.64212C9.20679 5.64224 9.36701 5.68485 9.5086 5.76573C9.65019 5.8466 9.76828 5.96297 9.85122 6.10337L11.8062 9.40212C12.0182 9.76052 12.0846 10.1866 11.9915 10.5925C11.8985 10.9984 11.6532 11.3531 11.3062 11.5834L9.23122 12.9646C9.05003 13.0851 8.9164 13.2649 8.85323 13.4731C8.79005 13.6813 8.80128 13.905 8.88497 14.1059C10.4532 17.8418 13.4204 20.8161 17.1525 22.3934C17.353 22.4765 17.576 22.4877 17.7838 22.425C17.9916 22.3624 18.1713 22.2297 18.2925 22.0496L19.6862 19.9696C19.9178 19.6226 20.2739 19.3779 20.6809 19.2862C21.0878 19.1945 21.5145 19.2629 21.8725 19.4771L25.1762 21.4471C25.3425 21.5468 25.4739 21.6954 25.5525 21.8726C25.631 22.0498 25.6528 22.247 25.615 22.4371ZM18.4087 12.8671C18.3216 12.7802 18.2526 12.6769 18.2054 12.5632C18.1583 12.4495 18.134 12.3277 18.134 12.2046C18.134 12.0816 18.1583 11.9597 18.2054 11.846C18.2526 11.7323 18.3216 11.6291 18.4087 11.5421L23.0575 6.89212H21.155C20.9063 6.89212 20.6679 6.79334 20.4921 6.61753C20.3162 6.44171 20.2175 6.20326 20.2175 5.95462C20.2175 5.70598 20.3162 5.46752 20.4921 5.2917C20.6679 5.11589 20.9063 5.01712 21.155 5.01712H25.3212C25.5696 5.0181 25.8074 5.11719 25.983 5.2928C26.1586 5.4684 26.2577 5.70628 26.2587 5.95462V10.1209C26.2587 10.3695 26.16 10.608 25.9841 10.7838C25.8083 10.9596 25.5699 11.0584 25.3212 11.0584C25.0726 11.0584 24.8341 10.9596 24.6583 10.7838C24.4825 10.608 24.3837 10.3695 24.3837 10.1209V8.21837L19.7337 12.8671C19.6468 12.9543 19.5436 13.0236 19.4299 13.0708C19.3162 13.118 19.1943 13.1423 19.0712 13.1423C18.9481 13.1423 18.8262 13.118 18.7125 13.0708C18.5988 13.0236 18.4956 12.9543 18.4087 12.8671Z" fill="white"/>
</svg>
